<?xml version="1.0" encoding="UTF-8" standalone="no"?>
<svg
   xmlns:dc="http://purl.org/dc/elements/1.1/"
   xmlns:cc="http://creativecommons.org/ns#"
   xmlns:rdf="http://www.w3.org/1999/02/22-rdf-syntax-ns#"
   xmlns:svg="http://www.w3.org/2000/svg"
   xmlns="http://www.w3.org/2000/svg"
   id="svg833"
   version="1.1"
   viewBox="0 0 14.81538 11.69005"
   height="11.69005mm"
   width="14.81538mm">
  <defs
     id="defs827" />
  <metadata
     id="metadata830">
    <rdf:RDF>
      <cc:Work
         rdf:about="">
        <dc:format>image/svg+xml</dc:format>
        <dc:type
           rdf:resource="http://purl.org/dc/dcmitype/StillImage" />
        <dc:title></dc:title>
      </cc:Work>
    </rdf:RDF>
  </metadata>
  <g
     transform="translate(-99.181536,-182.29782)"
     id="layer1">
    <path
       id="path98"
       style="opacity:1;fill:#ffffff;fill-opacity:1;fill-rule:nonzero;stroke:none;stroke-width:0.03527778"
       d="m 112.57074,189.12917 c -0.71438,1.23074 -1.41305,2.41861 -2.28699,2.41861 -0.25065,0 -0.69465,-0.23745 -0.52268,-0.89203 l 0.82406,-0.83231 c 0.0564,-0.0627 0.0991,-0.13642 0.0591,-0.23044 l -0.52172,-1.10186 c -0.0296,-0.0651 -0.0875,-0.0623 -0.14993,0 l -1.10257,1.10215 c -0.0591,0.06 -0.0853,0.14333 -0.047,0.2329 l 0.34865,0.81509 c -0.13466,0.53785 -0.48482,0.93021 -0.90992,0.90124 -0.78976,-0.0528 -1.43097,-1.55402 -0.48013,-3.67382 0.16012,-0.35557 0.22034,-0.65501 0.20369,-0.91409 1.80245,-0.82088 4.12172,-1.7024 5.00447,-0.5873 0.52959,0.66767 0.28279,1.55194 -0.41906,2.76186 z m -7.65362,2.41335 c -0.42443,0.029 -0.77516,-0.36339 -0.90964,-0.90124 l 0.34752,-0.81509 c 0.0393,-0.0896 0.0128,-0.17293 -0.0456,-0.2329 l -1.10324,-1.10215 c -0.0627,-0.0623 -0.11963,-0.0651 -0.14965,0 l -0.52228,1.10186 c -0.0398,0.094 0.004,0.16771 0.0594,0.23044 l 0.82406,0.83231 c 0.17156,0.65458 -0.27202,0.89203 -0.52267,0.89203 -0.87396,0 -1.57263,-1.18787 -2.28646,-2.41861 -0.702104,-1.20992 -0.948773,-2.09419 -0.41974,-2.76186 0.8829,-1.1151 3.20213,-0.23358 5.00419,0.5873 -0.0168,0.25908 0.044,0.55852 0.20369,0.91409 0.9518,2.1198 0.31006,3.62105 -0.47956,3.67382 z m 2.94816,-5.43263 c -0.13158,0.0418 -0.26733,0.004 -0.38625,-0.0917 -0.1021,-0.085 -0.21029,-0.15734 -0.31641,-0.22007 0.32935,-0.1954 0.55121,-0.55463 0.55121,-0.96488 0,-0.56197 -0.41162,-1.02595 -0.95013,-1.11044 l 0.41328,-0.53287 c 0.0406,-0.0531 0.0406,-0.13935 0,-0.19198 l -0.51319,-0.66213 c -0.02,-0.0269 -0.0467,-0.038 -0.0746,-0.038 -0.0267,0 -0.054,0.0111 -0.075,0.038 l -0.51178,0.66213 c -0.0415,0.0526 -0.0415,0.13892 0,0.19198 l 0.41216,0.53329 c -0.53813,0.0843 -0.94975,0.54805 -0.94975,1.11002 0,0.41025 0.22161,0.76948 0.55206,0.96488 -0.10682,0.0627 -0.21456,0.13505 -0.31708,0.22007 -0.11881,0.0955 -0.25439,0.13342 -0.38629,0.0917 -2.33768,-0.74743 -4.40241,-1.46749 -5.575254,-0.31793 -1.404775,1.37873 0.230131,3.60677 0.745104,4.52343 0.36063,0.64382 0.61708,1.3929 0.61708,1.98783 h 10.97815 c 0,-0.59493 0.25576,-1.34401 0.61627,-1.98783 0.51495,-0.91666 2.15042,-3.1447 0.7451,-4.52343 -1.17313,-1.14956 -3.23631,-0.4295 -5.57474,0.31793 z m -6.76395,7.87798 h 10.97675 v -0.90374 h -10.97675 z" />
  </g>
</svg>
