<?xml version="1.0" encoding="UTF-8" standalone="no"?>
<svg
   xmlns:dc="http://purl.org/dc/elements/1.1/"
   xmlns:cc="http://creativecommons.org/ns#"
   xmlns:rdf="http://www.w3.org/1999/02/22-rdf-syntax-ns#"
   xmlns:svg="http://www.w3.org/2000/svg"
   xmlns="http://www.w3.org/2000/svg"
   id="svg93"
   version="1.2"
   viewBox="0 0 105.16165 59.257815"
   height="20.904839mm"
   width="37.09869mm">
  <metadata
     id="metadata97">
    <rdf:RDF>
      <cc:Work
         rdf:about="">
        <dc:format>image/svg+xml</dc:format>
        <dc:type
           rdf:resource="http://purl.org/dc/dcmitype/StillImage" />
        <dc:title></dc:title>
      </cc:Work>
    </rdf:RDF>
  </metadata>
  <defs
     id="defs8">
    <clipPath
       id="clip1">
      <path
         id="path2"
         d="m 246,782.74219 h 2 V 842 h -2 z m 0,0" />
    </clipPath>
    <clipPath
       id="clip2">
      <path
         id="path5"
         d="m 465,817 h 10.83984 v 10 H 465 Z m 0,0" />
    </clipPath>
  </defs>
  <path
     id="path10"
     d="m 54.5618,0 0.004,59.25781 h 1.19531 V 0 h -1.19922"
     style="clip-rule:nonzero;fill:#1d4f91;fill-opacity:1;fill-rule:nonzero;stroke:none" />
  <g
     id="flowRoot817-5-3"
     style="font-style:normal;font-variant:normal;font-weight:normal;font-stretch:normal;font-size:40px;line-height:125%;font-family:'Libre Baskerville';-inkscape-font-specification:'Libre Baskerville';letter-spacing:0px;word-spacing:0px;fill:#1d4f91;fill-opacity:1;stroke:none;stroke-width:1px;stroke-linecap:butt;stroke-linejoin:miter;stroke-opacity:1"
     transform="matrix(0.75000003,0,0,0.75000003,-15.237881,-364.80807)"
     aria-label="ICG">
    <path
       id="path1562"
       style="font-style:normal;font-variant:normal;font-weight:600;font-stretch:normal;font-size:32px;line-height:0%;font-family:'Proxima Nova';-inkscape-font-specification:'Proxima Nova Semi-Bold';letter-spacing:0px;fill:#1d4f91;fill-opacity:1"
       d="m 115.1117,536.55595 v -21.344 h -3.744 v 21.344 z" />
    <path
       id="path1564"
       style="font-style:normal;font-variant:normal;font-weight:600;font-stretch:normal;font-size:32px;line-height:0%;font-family:'Proxima Nova';-inkscape-font-specification:'Proxima Nova Semi-Bold';letter-spacing:0px;fill:#1d4f91;fill-opacity:1"
       d="m 129.9202,536.93995 c 4.32,0 6.944,-2.24 8.576,-4.8 l -3.2,-1.632 c -1.024,1.792 -3.072,3.104 -5.376,3.104 -4.224,0 -7.36,-3.232 -7.36,-7.712 0,-4.48 3.136,-7.712 7.36,-7.712 2.304,0 4.352,1.344 5.376,3.104 l 3.2,-1.632 c -1.6,-2.56 -4.256,-4.8 -8.576,-4.8 -6.304,0 -11.2,4.48 -11.2,11.04 0,6.56 4.896,11.04 11.2,11.04 z" />
    <path
       id="path1566"
       style="font-style:normal;font-variant:normal;font-weight:600;font-stretch:normal;font-size:32px;line-height:0%;font-family:'Proxima Nova';-inkscape-font-specification:'Proxima Nova Semi-Bold';letter-spacing:0px;fill:#1d4f91;fill-opacity:1"
       d="m 151.7327,536.97195 c 3.712,0 6.688,-1.536 8.8,-3.872 v -8 h -10.112 v 3.296 h 6.368 v 3.328 c -0.96,0.896 -2.88,1.92 -5.056,1.92 -4.224,0 -7.36,-3.264 -7.36,-7.744 0,-4.48 3.136,-7.712 7.36,-7.712 2.4,0 4.416,1.248 5.536,2.848 l 3.072,-1.728 c -1.728,-2.464 -4.448,-4.448 -8.608,-4.448 -6.176,0 -11.2,4.352 -11.2,11.04 0,6.688 5.024,11.072 11.2,11.072 z" />
  </g>
  <path
     style="fill:#1d4f91;fill-opacity:1;fill-rule:nonzero;stroke:none;stroke-width:1"
     d="m 37.952385,26.714838 c -2.023437,3.48829 -4.003906,6.85547 -6.484374,6.85547 -0.707031,0 -1.968749,-0.67187 -1.480469,-2.52734 l 2.335939,-2.35938 c 0.160155,-0.17968 0.28125,-0.38671 0.167967,-0.65234 l -1.476563,-3.125 c -0.08594,-0.18359 -0.249999,-0.17578 -0.42578,0 l -3.124999,3.125 c -0.16797,0.17188 -0.24219,0.40625 -0.132813,0.66016 l 0.98828,2.30859 c -0.382811,1.52734 -1.374998,2.64063 -2.58203,2.55469 -2.238281,-0.14844 -4.054687,-4.40235 -1.359376,-10.41016 0.453126,-1.01172 0.624999,-1.85937 0.578124,-2.59375 5.109377,-2.32422 11.683594,-4.82422 14.183594,-1.66406 1.503906,1.89453 0.800781,4.39844 -1.1875,7.82812 z m -21.695309,6.83985 c -1.203125,0.0859 -2.195314,-1.02735 -2.578126,-2.55469 l 0.984375,-2.30859 c 0.113282,-0.25391 0.03906,-0.48828 -0.128907,-0.66016 l -3.128905,-3.125 c -0.175782,-0.17578 -0.335937,-0.18359 -0.421875,0 l -1.4804688,3.125 c -0.113282,0.26563 0.01172,0.47266 0.167968,0.65234 l 2.3359388,2.35938 c 0.484374,1.85547 -0.769533,2.52734 -1.480469,2.52734 -2.4765628,0 -4.4570311,-3.36718 -6.4843751,-6.85547 -1.98828,-3.42968 -2.687499,-5.93359 -1.1875,-7.82812 2.503906,-3.16016 9.0781241,-0.66016 14.1835941,1.66406 -0.04687,0.73438 0.124999,1.58203 0.578125,2.59375 2.699218,6.00781 0.878905,10.26172 -1.359375,10.41016 z m 8.355466,-15.39844 c -0.371093,0.12109 -0.757811,0.0117 -1.093748,-0.25781 -0.289062,-0.24219 -0.593751,-0.44531 -0.894531,-0.625 0.933594,-0.55469 1.562499,-1.57031 1.562499,-2.73438 0,-1.59375 -1.167969,-2.91015 -2.695312,-3.14843 l 1.171876,-1.51172 c 0.117186,-0.14844 0.117186,-0.39453 0,-0.54297 l -1.453126,-1.875 c -0.05859,-0.0781 -0.132813,-0.10938 -0.214844,-0.10938 -0.07422,0 -0.152344,0.0312 -0.210937,0.10938 l -1.449219,1.875 c -0.117187,0.14844 -0.117187,0.39453 0,0.54297 l 1.167969,1.51172 c -1.527343,0.23828 -2.691406,1.55468 -2.691406,3.14843 0,1.16407 0.624999,2.17969 1.5625,2.73438 -0.300781,0.17969 -0.60547,0.38281 -0.898438,0.625 -0.335937,0.26953 -0.718749,0.3789 -1.093749,0.25781 -6.628907,-2.11719 -12.4804691,-4.16016 -15.8046871,-0.90234 -3.980469,3.91015 0.652344,10.22656 2.11328,12.82422 1.019532,1.82421 1.746094,3.94921 1.746094,5.63671 H 36.557855 c 0,-1.6875 0.726561,-3.8125 1.746093,-5.63671 1.460937,-2.59766 6.097657,-8.91407 2.113281,-12.82422 -3.324219,-3.25782 -9.175781,-1.21485 -15.804687,0.90234 z M 5.4406689,40.488278 H 36.557855 v -2.5625 H 5.4406689 Z"
     id="path90-3-4" />
</svg>
