<?xml version="1.0" encoding="UTF-8" standalone="no"?>
<svg
   xmlns:dc="http://purl.org/dc/elements/1.1/"
   xmlns:cc="http://creativecommons.org/ns#"
   xmlns:rdf="http://www.w3.org/1999/02/22-rdf-syntax-ns#"
   xmlns:svg="http://www.w3.org/2000/svg"
   xmlns="http://www.w3.org/2000/svg"
   id="svg93"
   version="1.2"
   viewBox="0 0 638.87015 62.092456"
   height="21.904837mm"
   width="225.37918mm">
  <metadata
     id="metadata97">
    <rdf:RDF>
      <cc:Work
         rdf:about="">
        <dc:format>image/svg+xml</dc:format>
        <dc:type
           rdf:resource="http://purl.org/dc/dcmitype/StillImage" />
        <dc:title></dc:title>
      </cc:Work>
    </rdf:RDF>
  </metadata>
  <defs
     id="defs8">
    <clipPath
       id="clip1">
      <path
         id="path2"
         d="m 246,782.74219 h 2 V 842 h -2 z m 0,0" />
    </clipPath>
    <clipPath
       id="clip2">
      <path
         id="path5"
         d="m 465,817 h 10.83984 v 10 H 465 Z m 0,0" />
    </clipPath>
  </defs>
  <g
     clip-path="url(#clip1)"
     id="g12"
     style="clip-rule:nonzero;fill:#ffffff"
     transform="translate(-3.0253163,-781.32487)">
    <path
       style="fill:#ffffff;fill-opacity:1;fill-rule:nonzero;stroke:none"
       d="M 246.66406,782.74219 246.66797,842 h 1.19531 v -59.25781 h -1.19922"
       id="path10" />
  </g>
  <path
     style="fill:#ffffff;fill-opacity:1;fill-rule:nonzero;stroke:none"
     d="m 222.75252,32.975907 h -5.00391 c -0.10937,0 -0.13672,-0.082 -0.10937,-0.1914 l 2.5039,-6.69141 c 0.0273,-0.10547 0.0781,-0.24219 0.16016,-0.24219 0.082,0 0.10937,0.13672 0.13672,0.24219 l 2.44922,6.71875 c 0.0234,0.082 0,0.16406 -0.13672,0.16406 z m 9.1914,7.96875 c -0.32422,0 -0.73437,-0.0273 -1.14062,-0.10937 -0.57031,-0.13281 -1.35938,-0.51563 -2.39453,-2.96485 -1.74219,-4.13281 -6.09375,-15.22656 -6.7461,-16.72265 -0.26953,-0.625 -0.43359,-0.8711 -0.67578,-0.8711 -0.27344,0 -0.4375,0.29688 -0.76562,1.08594 l -6.82422,17.08203 c -0.54297,1.35547 -1.0625,2.28125 -2.3125,2.44532 -0.21485,0.0273 -0.59766,0.0547 -0.84375,0.0547 -0.21875,0 -0.32813,0.0547 -0.32813,0.21875 0,0.21485 0.16797,0.27344 0.51953,0.27344 1.41407,0 2.91016,-0.082 3.20704,-0.082 0.84765,0 2.01562,0.082 2.88671,0.082 0.29688,0 0.46094,-0.0586 0.46094,-0.27344 0,-0.16406 -0.082,-0.21875 -0.41015,-0.21875 h -0.40625 c -0.84375,0 -1.08985,-0.35156 -1.08985,-0.84375 0,-0.32422 0.13672,-0.97656 0.41016,-1.65625 l 1.46875,-3.89062 c 0.0547,-0.16406 0.10937,-0.21485 0.24219,-0.21485 h 6.0664 c 0.13672,0 0.21875,0.0508 0.27344,0.1875 l 2.17578,5.76563 c 0.13672,0.32422 -0.0547,0.57031 -0.24609,0.625 -0.26953,0.0273 -0.37891,0.082 -0.37891,0.24609 0,0.19141 0.32422,0.19141 0.8125,0.21485 2.17578,0.0586 4.16406,0.0586 5.14063,0.0586 1.00781,0 1.2539,-0.0586 1.2539,-0.27344 0,-0.1914 -0.13672,-0.21875 -0.35547,-0.21875 z m -55.63672,0 c -0.35156,0 -0.89843,-0.0273 -1.6875,-0.27343 -0.8125,-0.24219 -1.08593,-1.03125 -1.33203,-2.7461 l -2.47265,-16.80469 c -0.082,-0.57421 -0.2461,-0.84375 -0.49219,-0.84375 -0.24219,0 -0.40625,0.21485 -0.59766,0.65235 l -7.39843,15.52734 -7.42188,-15.33594 c -0.35156,-0.70703 -0.51562,-0.84375 -0.73437,-0.84375 -0.21875,0 -0.38282,0.2461 -0.46094,0.70704 l -2.69141,17.73437 c -0.13672,0.92188 -0.35547,1.98438 -1.11719,2.14453 -0.40625,0.082 -0.59765,0.082 -0.8164,0.082 -0.27344,0 -0.4336,0.0547 -0.4336,0.19141 0,0.24219 0.21485,0.30078 0.48829,0.30078 0.87109,0 2.17578,-0.0859 2.6914,-0.0859 0.49219,0 1.71485,0.0859 2.85547,0.0859 0.41016,0 0.65234,-0.0586 0.65234,-0.30078 0,-0.13672 -0.1875,-0.19141 -0.40625,-0.19141 -0.27343,0 -0.65234,-0.0273 -1.14453,-0.13672 -0.46093,-0.10546 -0.8125,-0.35156 -0.8125,-0.87109 0,-0.43359 0.0273,-0.78516 0.082,-1.27344 l 1.41407,-10.82422 h 0.10547 c 0.95312,2.03516 2.58593,5.46485 2.83203,6.03516 0.32422,0.76172 2.47656,4.92188 3.125,6.17188 0.4375,0.8164 0.70703,1.36328 0.95312,1.36328 0.2461,0 0.37891,-0.2461 1.00391,-1.52735 l 5.93359,-12.34375 h 0.10547 l 1.63281,11.96485 c 0.10938,0.76172 0.0273,1.11328 -0.13672,1.16797 -0.1875,0.082 -0.30078,0.16406 -0.30078,0.30078 0,0.16406 0.16407,0.24609 0.79297,0.30078 1.08594,0.082 4.83985,0.16406 5.51953,0.16406 0.38282,0 0.70703,-0.082 0.70703,-0.30078 0,-0.16406 -0.1914,-0.19141 -0.4375,-0.19141 z m 11.98829,-0.65234 c -0.625,0 -1.25,-0.0273 -1.98438,-0.32422 -0.86719,-0.35547 -0.94922,-0.81641 -0.94922,-2.61328 v -6.44141 c 0,-0.13672 0.0508,-0.1914 0.16016,-0.1914 0.41015,0 0.68359,0 1.17187,0.0234 1.0586,0.0547 1.6875,0.24219 2.25782,0.65625 2.0664,1.4375 2.63671,3.72266 2.63671,5.40625 0,2.83204 -2.0664,3.48438 -3.29296,3.48438 z m -2.9336,-17.78906 c 0,-0.29688 0.0508,-0.40235 0.24219,-0.46094 0.27344,-0.0547 0.51562,-0.0547 0.89844,-0.0547 2.33984,0 3.40234,2.39453 3.40234,4.21875 0,1.33203 -0.41016,2.3125 -1.11719,2.88281 -0.46093,0.40625 -1.0625,0.51563 -1.96093,0.51563 -0.6211,0 -1.03125,-0.0273 -1.27735,-0.082 -0.10547,-0.0273 -0.1875,-0.082 -0.1875,-0.30078 z m 4.6211,7.21093 c 1.49609,-1.19531 2.77734,-2.53125 2.77734,-4.75781 0,-1.44531 -0.87109,-4.08203 -5.79688,-4.08203 -0.92578,0 -1.98437,0.0781 -3.3164,0.0781 -0.54297,0 -2.25781,-0.0781 -3.69922,-0.0781 -0.40625,0 -0.59766,0.0547 -0.59766,0.24609 0,0.1875 0.16407,0.24219 0.46094,0.24219 0.37891,0 0.84375,0.0274 1.05859,0.0781 0.89844,0.19531 1.11719,0.6289 1.17188,1.55468 0.0547,0.8711 0.0547,1.63282 0.0547,5.76563 v 4.78906 c 0,2.5 0,4.65235 -0.13672,5.78906 -0.10938,0.78907 -0.24219,1.38672 -0.78516,1.4961 -0.24609,0.0547 -0.57422,0.10937 -0.98437,0.10937 -0.32422,0 -0.4336,0.082 -0.4336,0.21875 0,0.19141 0.19141,0.27344 0.54297,0.27344 1.08985,0 2.80469,-0.082 3.42969,-0.082 0.81641,0 3.28906,0.16016 3.94141,0.16016 5.00781,0 7.26171,-3.01563 7.26171,-5.92969 0,-3.17969 -2.71875,-5.10938 -4.94921,-5.8711 z m -67.30078,7.47657 c -0.21875,0 -0.26954,0.16406 -0.30079,0.41015 -0.0547,0.51563 -0.3789,1.27735 -0.70312,1.62891 -0.68359,0.73828 -1.74609,0.76172 -3.1875,0.76172 -2.12109,0 -2.82422,-0.19141 -3.28906,-0.59766 -0.57032,-0.48828 -0.57032,-2.36328 -0.57032,-5.84765 v -4.78516 c 0,-4.13281 0,-4.89453 0.0547,-5.76563 0.0547,-0.95312 0.26953,-1.41406 1.00391,-1.55078 0.32812,-0.0508 0.76172,-0.0781 1.0625,-0.0781 0.32812,0 0.48828,-0.0586 0.48828,-0.2461 0,-0.1914 -0.1875,-0.24609 -0.57031,-0.24609 -1.0625,0 -3.04688,0.0859 -3.69922,0.0859 -0.73438,0 -2.44922,-0.0859 -3.72656,-0.0859 -0.40625,0 -0.59766,0.0547 -0.59766,0.24609 0,0.1875 0.16406,0.2461 0.46094,0.2461 0.35547,0 0.67968,0.0273 0.89843,0.0781 0.89844,0.1875 1.11719,0.625 1.17188,1.55078 0.0547,0.8711 0.0547,1.63282 0.0547,5.76563 v 4.78516 c 0,2.5039 0,4.65625 -0.13672,5.79296 -0.10938,0.78907 -0.2461,1.38672 -0.78906,1.4961 -0.2461,0.0547 -0.57422,0.10937 -0.98047,0.10937 -0.32422,0 -0.4336,0.082 -0.4336,0.21875 0,0.1875 0.19141,0.27344 0.54297,0.27344 1.08594,0 2.80078,-0.0859 3.42969,-0.0859 2.20312,0 3.99609,0.16407 7.91016,0.16407 1.41406,0 1.55078,-0.13672 1.71484,-0.73438 0.21875,-0.78906 0.40625,-2.82812 0.40625,-3.125 0,-0.32812 -0.0234,-0.46484 -0.21484,-0.46484 z m 84.55859,3.7539 c -0.41016,0 -1.00391,-0.0547 -1.38672,-0.10937 -0.81641,-0.10938 -1.00391,-0.59766 -1.08984,-1.33203 -0.10938,-1.16797 -0.10938,-3.32032 -0.10938,-5.95703 v -4.78516 c 0,-4.13281 0,-4.89453 0.0547,-5.76563 0.0547,-0.95312 0.27344,-1.41406 1.00781,-1.55468 0.32813,-0.0508 0.54297,-0.0781 0.81641,-0.0781 0.27343,0 0.43359,-0.0547 0.43359,-0.27344 0,-0.16015 -0.21484,-0.21484 -0.57031,-0.21484 -1.03516,0 -2.64063,0.082 -3.31641,0.082 -0.79297,0 -2.5039,-0.082 -3.53906,-0.082 -0.43359,0 -0.65234,0.0547 -0.65234,0.21484 0,0.21875 0.16406,0.27344 0.4375,0.27344 0.32421,0 0.67968,0.0274 0.97656,0.10938 0.60156,0.13672 0.87109,0.59765 0.92578,1.52343 0.0547,0.8711 0.0547,1.63282 0.0547,5.76563 v 4.78516 c 0,2.63671 0,4.78906 -0.13672,5.92968 -0.082,0.78907 -0.24219,1.25 -0.78906,1.35938 -0.24219,0.0547 -0.57032,0.10937 -0.97657,0.10937 -0.32812,0 -0.43359,0.082 -0.43359,0.21875 0,0.1875 0.1875,0.27344 0.54297,0.27344 1.08594,0 2.79687,-0.0859 3.42578,-0.0859 0.73437,0 2.44531,0.0859 4.24219,0.0859 0.29687,0 0.51953,-0.0859 0.51953,-0.27344 0,-0.13672 -0.14063,-0.21875 -0.4375,-0.21875 z m -60.63281,-20.07031 c -1.0625,0 -2.77735,0.082 -3.10157,0.082 -0.0273,0 -1.73828,-0.082 -3.125,-0.082 -0.38281,0 -0.57031,0.0547 -0.57031,0.24609 0,0.1875 0.16016,0.24219 0.45703,0.24219 0.30078,0 0.76172,0.0274 0.98438,0.0781 0.89453,0.1914 1.11328,0.6289 1.16797,1.55468 0.0508,0.8711 0.0508,1.63282 0.0508,5.76563 v 3.39844 c 0,2.80468 -0.0781,5.2539 -1.57813,6.74609 -1.08203,1.08594 -2.55469,1.46875 -3.75,1.46875 -0.92578,0 -2.17578,-0.10937 -3.40234,-1.11719 -1.32813,-1.08593 -2.1211,-2.74609 -2.1211,-6.6875 v -3.80859 c 0,-4.13281 0,-4.89453 0.0547,-5.76563 0.0586,-0.95312 0.27344,-1.41406 1.00781,-1.55468 0.32813,-0.0508 0.49219,-0.0781 0.78907,-0.0781 0.26953,0 0.43359,-0.0547 0.43359,-0.24219 0,-0.1914 -0.1875,-0.24609 -0.59766,-0.24609 -0.97656,0 -2.6914,0.082 -3.34375,0.082 -0.8164,0 -2.53124,-0.082 -3.97265,-0.082 -0.40625,0 -0.59766,0.0547 -0.59766,0.24609 0,0.1875 0.16407,0.24219 0.46094,0.24219 0.38281,0 0.84766,0.0274 1.0625,0.0781 0.89844,0.1914 1.11719,0.6289 1.16797,1.55468 0.0547,0.8711 0.0547,1.63282 0.0547,5.76563 v 3.96875 c 0,3.94531 1.03515,5.95703 2.42187,7.20703 1.98438,1.79688 4.59375,1.87891 6.03906,1.87891 1.76563,0 3.72657,-0.30078 5.65625,-1.95703 2.28516,-1.96094 2.58594,-5.16797 2.58594,-8.1875 v -2.91016 c 0,-4.13281 0,-4.89453 0.0508,-5.76563 0.0547,-0.95312 0.27344,-1.41406 1.00781,-1.55468 0.32422,-0.0508 0.48829,-0.0781 0.78907,-0.0781 0.32422,0 0.48828,-0.0547 0.48828,-0.24219 0,-0.1914 -0.19141,-0.24609 -0.57031,-0.24609 z m -51.835943,19.58203 c -5.222665,0 -8.347665,-4.48828 -8.347665,-10.14453 0,-6.77344 3.5586,-8.51172 6.69141,-8.51172 4.457031,0 7.968758,3.78125 7.968758,9.8711 0,7.85937 -4.410163,8.78515 -6.312503,8.78515 z m -0.871095,-19.96484 c -8.15625,0 -11.230474,6.01172 -11.230474,10.66406 0,4.8125 3.152344,10.66016 10.960934,10.66016 6.906258,0 11.257828,-4.92578 11.257828,-11.15235 0,-6.22656 -4.21485,-10.17187 -10.988288,-10.17187 z"
     id="path90" />
  <g
     id="flowRoot817-5-3"
     style="font-style:normal;font-variant:normal;font-weight:normal;font-stretch:normal;font-size:40px;line-height:125%;font-family:'Libre Baskerville';-inkscape-font-specification:'Libre Baskerville';letter-spacing:0px;word-spacing:0px;fill:#ffffff;fill-opacity:1;stroke:none;stroke-width:1px;stroke-linecap:butt;stroke-linejoin:miter;stroke-opacity:1"
     transform="matrix(0.75000006,0,0,0.75000006,173.67107,-363.3903)"
     aria-label="INSTITUTE FOR CANCER GENETICS">
    <path
       id="path881"
       style="font-style:normal;font-variant:normal;font-weight:normal;font-stretch:normal;font-size:32px;line-height:0%;font-family:'Proxima Nova';-inkscape-font-specification:'Proxima Nova';letter-spacing:0px;fill:#ffffff;fill-opacity:1"
       d="m 114.2477,536.55595 v -21.344 h -2.656 v 21.344 z" />
    <path
       id="path883"
       style="font-style:normal;font-variant:normal;font-weight:normal;font-stretch:normal;font-size:32px;line-height:0%;font-family:'Proxima Nova';-inkscape-font-specification:'Proxima Nova';letter-spacing:0px;fill:#ffffff;fill-opacity:1"
       d="m 136.8807,536.55595 v -21.344 h -2.656 v 16.672 l -12.288,-16.672 h -2.72 v 21.344 h 2.656 v -17.024 l 12.448,17.024 z" />
    <path
       id="path885"
       style="font-style:normal;font-variant:normal;font-weight:normal;font-stretch:normal;font-size:32px;line-height:0%;font-family:'Proxima Nova';-inkscape-font-specification:'Proxima Nova';letter-spacing:0px;fill:#ffffff;fill-opacity:1"
       d="m 148.8162,536.93995 c 5.76,0 7.872,-3.168 7.872,-6.272 0,-7.968 -12.64,-5.216 -12.64,-10.016 0,-2.016 1.824,-3.392 4.384,-3.392 2.336,0 4.576,0.8 6.176,2.56 l 1.6,-1.952 c -1.792,-1.888 -4.32,-2.976 -7.584,-2.976 -4.192,0 -7.328,2.4 -7.328,5.92 0,7.616 12.64,4.576 12.64,10.08 0,1.632 -1.216,3.68 -5.024,3.68 -3.008,0 -5.312,-1.472 -6.72,-3.04 l -1.568,2.016 c 1.76,1.984 4.48,3.392 8.192,3.392 z" />
    <path
       id="path887"
       style="font-style:normal;font-variant:normal;font-weight:normal;font-stretch:normal;font-size:32px;line-height:0%;font-family:'Proxima Nova';-inkscape-font-specification:'Proxima Nova';letter-spacing:0px;fill:#ffffff;fill-opacity:1"
       d="m 168.4027,536.55595 v -18.976 h 6.784 v -2.368 h -16.192 v 2.368 h 6.752 v 18.976 z" />
    <path
       id="path889"
       style="font-style:normal;font-variant:normal;font-weight:normal;font-stretch:normal;font-size:32px;line-height:0%;font-family:'Proxima Nova';-inkscape-font-specification:'Proxima Nova';letter-spacing:0px;fill:#ffffff;fill-opacity:1"
       d="m 181.3727,536.55595 v -21.344 h -2.656 v 21.344 z" />
    <path
       id="path891"
       style="font-style:normal;font-variant:normal;font-weight:normal;font-stretch:normal;font-size:32px;line-height:0%;font-family:'Proxima Nova';-inkscape-font-specification:'Proxima Nova';letter-spacing:0px;fill:#ffffff;fill-opacity:1"
       d="m 194.2777,536.55595 v -18.976 h 6.784 v -2.368 h -16.192 v 2.368 h 6.752 v 18.976 z" />
    <path
       id="path893"
       style="font-style:normal;font-variant:normal;font-weight:normal;font-stretch:normal;font-size:32px;line-height:0%;font-family:'Proxima Nova';-inkscape-font-specification:'Proxima Nova';letter-spacing:0px;fill:#ffffff;fill-opacity:1"
       d="m 213.2957,536.93995 c 5.792,0 8.704,-3.392 8.704,-8.704 v -13.024 h -2.656 v 12.992 c 0,3.904 -2.112,6.368 -6.048,6.368 -3.936,0 -6.048,-2.464 -6.048,-6.368 v -12.992 h -2.656 v 13.056 c 0,5.248 2.912,8.672 8.704,8.672 z" />
    <path
       id="path895"
       style="font-style:normal;font-variant:normal;font-weight:normal;font-stretch:normal;font-size:32px;line-height:0%;font-family:'Proxima Nova';-inkscape-font-specification:'Proxima Nova';letter-spacing:0px;fill:#ffffff;fill-opacity:1"
       d="m 234.9027,536.55595 v -18.976 h 6.784 v -2.368 h -16.192 v 2.368 h 6.752 v 18.976 z" />
    <path
       id="path897"
       style="font-style:normal;font-variant:normal;font-weight:normal;font-stretch:normal;font-size:32px;line-height:0%;font-family:'Proxima Nova';-inkscape-font-specification:'Proxima Nova';letter-spacing:0px;fill:#ffffff;fill-opacity:1"
       d="m 259.2007,536.55595 v -2.368 h -11.328 v -7.36 h 11.104 v -2.368 h -11.104 v -6.88 h 11.328 v -2.368 h -13.984 v 21.344 z" />
    <path
       id="path899"
       style="font-style:normal;font-variant:normal;font-weight:normal;font-stretch:normal;font-size:32px;line-height:0%;font-family:'Proxima Nova';-inkscape-font-specification:'Proxima Nova';letter-spacing:0px;fill:#ffffff;fill-opacity:1"
       d="m 274.3102,536.55595 v -9.728 h 11.104 v -2.368 h -11.104 v -6.88 h 11.328 v -2.368 h -13.984 v 21.344 z" />
    <path
       id="path901"
       style="font-style:normal;font-variant:normal;font-weight:normal;font-stretch:normal;font-size:32px;line-height:0%;font-family:'Proxima Nova';-inkscape-font-specification:'Proxima Nova';letter-spacing:0px;fill:#ffffff;fill-opacity:1"
       d="m 299.0072,536.93995 c 6.304,0 10.592,-4.736 10.592,-11.04 0,-6.304 -4.288,-11.04 -10.592,-11.04 -6.336,0 -10.592,4.736 -10.592,11.04 0,6.304 4.256,11.04 10.592,11.04 z m 0,-2.368 c -4.8,0 -7.84,-3.712 -7.84,-8.672 0,-4.992 3.04,-8.672 7.84,-8.672 4.768,0 7.84,3.68 7.84,8.672 0,4.96 -3.072,8.672 -7.84,8.672 z" />
    <path
       id="path903"
       style="font-style:normal;font-variant:normal;font-weight:normal;font-stretch:normal;font-size:32px;line-height:0%;font-family:'Proxima Nova';-inkscape-font-specification:'Proxima Nova';letter-spacing:0px;fill:#ffffff;fill-opacity:1"
       d="m 329.2672,536.55595 -5.76,-8.704 c 2.912,-0.256 5.536,-2.368 5.536,-6.208 0,-3.936 -2.784,-6.432 -6.688,-6.432 h -8.576 v 21.344 h 2.656 v -8.48 h 4.256 l 5.44,8.48 z m -7.232,-10.816 h -5.6 v -8.16 h 5.6 c 2.528,0 4.256,1.664 4.256,4.064 0,2.4 -1.728,4.096 -4.256,4.096 z" />
    <path
       id="path905"
       style="font-style:normal;font-variant:normal;font-weight:normal;font-stretch:normal;font-size:32px;line-height:0%;font-family:'Proxima Nova';-inkscape-font-specification:'Proxima Nova';letter-spacing:0px;fill:#ffffff;fill-opacity:1"
       d="m 351.5787,536.93995 c 3.776,0 6.336,-1.792 8.128,-4.224 l -2.272,-1.248 c -1.216,1.824 -3.424,3.104 -5.856,3.104 -4.672,0 -8.224,-3.616 -8.224,-8.672 0,-5.088 3.552,-8.672 8.224,-8.672 2.432,0 4.64,1.312 5.856,3.104 l 2.24,-1.248 c -1.696,-2.4 -4.32,-4.224 -8.096,-4.224 -6.144,0 -10.976,4.48 -10.976,11.04 0,6.56 4.832,11.04 10.976,11.04 z" />
    <path
       id="path907"
       style="font-style:normal;font-variant:normal;font-weight:normal;font-stretch:normal;font-size:32px;line-height:0%;font-family:'Proxima Nova';-inkscape-font-specification:'Proxima Nova';letter-spacing:0px;fill:#ffffff;fill-opacity:1"
       d="m 381.2387,536.55595 -8.608,-21.344 h -3.296 l -8.576,21.344 h 3.04 l 1.888,-4.736 h 10.624 l 1.888,4.736 z m -5.728,-7.104 h -9.056 l 4.544,-11.488 z" />
    <path
       id="path909"
       style="font-style:normal;font-variant:normal;font-weight:normal;font-stretch:normal;font-size:32px;line-height:0%;font-family:'Proxima Nova';-inkscape-font-specification:'Proxima Nova';letter-spacing:0px;fill:#ffffff;fill-opacity:1"
       d="m 401.6932,536.55595 v -21.344 h -2.656 v 16.672 l -12.288,-16.672 h -2.72 v 21.344 h 2.656 v -17.024 l 12.448,17.024 z" />
    <path
       id="path911"
       style="font-style:normal;font-variant:normal;font-weight:normal;font-stretch:normal;font-size:32px;line-height:0%;font-family:'Proxima Nova';-inkscape-font-specification:'Proxima Nova';letter-spacing:0px;fill:#ffffff;fill-opacity:1"
       d="m 416.8287,536.93995 c 3.776,0 6.336,-1.792 8.128,-4.224 l -2.272,-1.248 c -1.216,1.824 -3.424,3.104 -5.856,3.104 -4.672,0 -8.224,-3.616 -8.224,-8.672 0,-5.088 3.552,-8.672 8.224,-8.672 2.432,0 4.64,1.312 5.856,3.104 l 2.24,-1.248 c -1.696,-2.4 -4.32,-4.224 -8.096,-4.224 -6.144,0 -10.976,4.48 -10.976,11.04 0,6.56 4.832,11.04 10.976,11.04 z" />
    <path
       id="path913"
       style="font-style:normal;font-variant:normal;font-weight:normal;font-stretch:normal;font-size:32px;line-height:0%;font-family:'Proxima Nova';-inkscape-font-specification:'Proxima Nova';letter-spacing:0px;fill:#ffffff;fill-opacity:1"
       d="m 442.3257,536.55595 v -2.368 h -11.328 v -7.36 h 11.104 v -2.368 h -11.104 v -6.88 h 11.328 v -2.368 h -13.984 v 21.344 z" />
    <path
       id="path915"
       style="font-style:normal;font-variant:normal;font-weight:normal;font-stretch:normal;font-size:32px;line-height:0%;font-family:'Proxima Nova';-inkscape-font-specification:'Proxima Nova';letter-spacing:0px;fill:#ffffff;fill-opacity:1"
       d="m 462.0172,536.55595 -5.76,-8.704 c 2.912,-0.256 5.536,-2.368 5.536,-6.208 0,-3.936 -2.784,-6.432 -6.688,-6.432 h -8.576 v 21.344 h 2.656 v -8.48 h 4.256 l 5.44,8.48 z m -7.232,-10.816 h -5.6 v -8.16 h 5.6 c 2.528,0 4.256,1.664 4.256,4.064 0,2.4 -1.728,4.096 -4.256,4.096 z" />
    <path
       id="path917"
       style="font-style:normal;font-variant:normal;font-weight:normal;font-stretch:normal;font-size:32px;line-height:0%;font-family:'Proxima Nova';-inkscape-font-specification:'Proxima Nova';letter-spacing:0px;fill:#ffffff;fill-opacity:1"
       d="m 484.3287,536.97195 c 3.488,0 6.4,-1.472 8.384,-3.68 v -7.712 h -9.984 v 2.368 h 7.328 v 4.352 c -1.056,1.056 -3.168,2.304 -5.728,2.304 -4.672,0 -8.224,-3.648 -8.224,-8.704 0,-5.088 3.552,-8.672 8.224,-8.672 2.56,0 4.832,1.216 6.176,2.944 l 2.112,-1.312 c -1.888,-2.336 -4.512,-4 -8.288,-4 -6.08,0 -10.976,4.416 -10.976,11.04 0,6.624 4.896,11.072 10.976,11.072 z" />
    <path
       id="path919"
       style="font-style:normal;font-variant:normal;font-weight:normal;font-stretch:normal;font-size:32px;line-height:0%;font-family:'Proxima Nova';-inkscape-font-specification:'Proxima Nova';letter-spacing:0px;fill:#ffffff;fill-opacity:1"
       d="m 511.0132,536.55595 v -2.368 h -11.328 v -7.36 h 11.104 v -2.368 h -11.104 v -6.88 h 11.328 v -2.368 h -13.984 v 21.344 z" />
    <path
       id="path921"
       style="font-style:normal;font-variant:normal;font-weight:normal;font-stretch:normal;font-size:32px;line-height:0%;font-family:'Proxima Nova';-inkscape-font-specification:'Proxima Nova';letter-spacing:0px;fill:#ffffff;fill-opacity:1"
       d="m 532.8807,536.55595 v -21.344 h -2.656 v 16.672 l -12.288,-16.672 h -2.72 v 21.344 h 2.656 v -17.024 l 12.448,17.024 z" />
    <path
       id="path923"
       style="font-style:normal;font-variant:normal;font-weight:normal;font-stretch:normal;font-size:32px;line-height:0%;font-family:'Proxima Nova';-inkscape-font-specification:'Proxima Nova';letter-spacing:0px;fill:#ffffff;fill-opacity:1"
       d="m 551.8882,536.55595 v -2.368 h -11.328 v -7.36 h 11.104 v -2.368 h -11.104 v -6.88 h 11.328 v -2.368 h -13.984 v 21.344 z" />
    <path
       id="path925"
       style="font-style:normal;font-variant:normal;font-weight:normal;font-stretch:normal;font-size:32px;line-height:0%;font-family:'Proxima Nova';-inkscape-font-specification:'Proxima Nova';letter-spacing:0px;fill:#ffffff;fill-opacity:1"
       d="m 564.0277,536.55595 v -18.976 h 6.784 v -2.368 h -16.192 v 2.368 h 6.752 v 18.976 z" />
    <path
       id="path927"
       style="font-style:normal;font-variant:normal;font-weight:normal;font-stretch:normal;font-size:32px;line-height:0%;font-family:'Proxima Nova';-inkscape-font-specification:'Proxima Nova';letter-spacing:0px;fill:#ffffff;fill-opacity:1"
       d="m 576.9977,536.55595 v -21.344 h -2.656 v 21.344 z" />
    <path
       id="path929"
       style="font-style:normal;font-variant:normal;font-weight:normal;font-stretch:normal;font-size:32px;line-height:0%;font-family:'Proxima Nova';-inkscape-font-specification:'Proxima Nova';letter-spacing:0px;fill:#ffffff;fill-opacity:1"
       d="m 592.0787,536.93995 c 3.776,0 6.336,-1.792 8.128,-4.224 l -2.272,-1.248 c -1.216,1.824 -3.424,3.104 -5.856,3.104 -4.672,0 -8.224,-3.616 -8.224,-8.672 0,-5.088 3.552,-8.672 8.224,-8.672 2.432,0 4.64,1.312 5.856,3.104 l 2.24,-1.248 c -1.696,-2.4 -4.32,-4.224 -8.096,-4.224 -6.144,0 -10.976,4.48 -10.976,11.04 0,6.56 4.832,11.04 10.976,11.04 z" />
    <path
       id="path931"
       style="font-style:normal;font-variant:normal;font-weight:normal;font-stretch:normal;font-size:32px;line-height:0%;font-family:'Proxima Nova';-inkscape-font-specification:'Proxima Nova';letter-spacing:0px;fill:#ffffff;fill-opacity:1"
       d="m 610.5037,536.93995 c 5.76,0 7.872,-3.168 7.872,-6.272 0,-7.968 -12.64,-5.216 -12.64,-10.016 0,-2.016 1.824,-3.392 4.384,-3.392 2.336,0 4.576,0.8 6.176,2.56 l 1.6,-1.952 c -1.792,-1.888 -4.32,-2.976 -7.584,-2.976 -4.192,0 -7.328,2.4 -7.328,5.92 0,7.616 12.64,4.576 12.64,10.08 0,1.632 -1.216,3.68 -5.024,3.68 -3.008,0 -5.312,-1.472 -6.72,-3.04 l -1.568,2.016 c 1.76,1.984 4.48,3.392 8.192,3.392 z" />
  </g>
  <path
     style="fill:#ffffff;fill-opacity:1;fill-rule:nonzero;stroke:none;stroke-width:1"
     d="m 39.369708,28.132157 c -2.023437,3.48829 -4.003906,6.85547 -6.484374,6.85547 -0.707031,0 -1.968749,-0.67187 -1.480469,-2.52734 l 2.335939,-2.35938 c 0.160155,-0.17968 0.28125,-0.38671 0.167967,-0.65234 l -1.476563,-3.125 c -0.08594,-0.18359 -0.249999,-0.17578 -0.42578,0 l -3.124999,3.125 c -0.16797,0.17188 -0.24219,0.40625 -0.132813,0.66016 l 0.98828,2.30859 c -0.382811,1.52734 -1.374998,2.64063 -2.58203,2.55469 -2.238281,-0.14844 -4.054687,-4.40235 -1.359376,-10.41016 0.453126,-1.01172 0.624999,-1.85937 0.578124,-2.59375 5.109377,-2.32422 11.683594,-4.82422 14.183594,-1.66406 1.503906,1.89453 0.800781,4.39844 -1.1875,7.82812 z m -21.695309,6.83985 c -1.203125,0.0859 -2.195314,-1.02735 -2.578126,-2.55469 l 0.984375,-2.30859 c 0.113282,-0.25391 0.03906,-0.48828 -0.128907,-0.66016 l -3.128905,-3.125 c -0.175782,-0.17578 -0.335937,-0.18359 -0.421875,0 l -1.480469,3.125 c -0.113282,0.26563 0.01172,0.47266 0.167968,0.65234 l 2.335939,2.35938 c 0.484374,1.85547 -0.769533,2.52734 -1.480469,2.52734 -2.476563,0 -4.4570311,-3.36718 -6.4843751,-6.85547 -1.98828,-3.42968 -2.687499,-5.93359 -1.1875,-7.82812 2.503906,-3.16016 9.0781241,-0.66016 14.1835941,1.66406 -0.04687,0.73438 0.124999,1.58203 0.578125,2.59375 2.699218,6.00781 0.878905,10.26172 -1.359375,10.41016 z m 8.355466,-15.39844 c -0.371093,0.12109 -0.757811,0.0117 -1.093748,-0.25781 -0.289062,-0.24219 -0.593751,-0.44531 -0.894531,-0.625 0.933594,-0.55469 1.562499,-1.57031 1.562499,-2.73438 0,-1.59375 -1.167969,-2.91015 -2.695312,-3.14843 l 1.171876,-1.51172 c 0.117186,-0.14844 0.117186,-0.39453 0,-0.54297 l -1.453126,-1.875 c -0.05859,-0.0781 -0.132813,-0.10938 -0.214844,-0.10938 -0.07422,0 -0.152344,0.0312 -0.210937,0.10938 l -1.449219,1.875 c -0.117187,0.14844 -0.117187,0.39453 0,0.54297 l 1.167969,1.51172 c -1.527343,0.23828 -2.691406,1.55468 -2.691406,3.14843 0,1.16407 0.624999,2.17969 1.5625,2.73438 -0.300781,0.17969 -0.60547,0.38281 -0.898438,0.625 -0.335937,0.26953 -0.718749,0.3789 -1.093749,0.25781 -6.628907,-2.11719 -12.4804691,-4.16016 -15.8046871,-0.90234 -3.98046898,3.91015 0.652344,10.22656 2.11328,12.82422 1.019532,1.82421 1.746094,3.94921 1.746094,5.63671 H 37.975178 c 0,-1.6875 0.726561,-3.8125 1.746093,-5.63671 1.460937,-2.59766 6.097657,-8.91407 2.113281,-12.82422 -3.324219,-3.25782 -9.175781,-1.21485 -15.804687,0.90234 z M 6.8579919,41.905597 H 37.975178 v -2.5625 H 6.8579919 Z"
     id="path90-3-4" />
  <path
     style="fill:#ffffff;fill-opacity:1;fill-rule:nonzero;stroke:none;stroke-width:1"
     d="m 78.279865,35.315757 c -0.25781,0 -0.32422,0.12891 -0.42187,0.64844 -0.12891,0.58594 -0.55078,1.53125 -1.10156,2.14453 -1.30469,1.49609 -3.0586,1.82422 -5.95313,1.82422 -4.35547,0 -10.238281,-3.83985 -10.238281,-11.57422 0,-3.15234 0.617187,-6.23828 2.992187,-8.41797 1.429684,-1.30078 3.285154,-2.01562 6.109374,-2.01562 2.98828,0 5.52734,0.8789 6.59766,2.01562 0.8164,0.84375 1.23828,1.98438 1.26953,2.98828 0,0.45703 0.0664,0.71485 0.32422,0.71485 0.29297,0 0.35547,-0.25782 0.39062,-0.7461 0.0664,-0.64844 0.0312,-2.4375 0.0977,-3.51172 0.0625,-1.13672 0.16406,-1.52734 0.16406,-1.78515 0,-0.19532 -0.13281,-0.35547 -0.48828,-0.39453 -0.97656,-0.0937 -2.01562,-0.38672 -3.25,-0.55079 -1.49609,-0.19531 -2.69922,-0.32031 -4.71484,-0.32031 -4.84375,0 -7.929688,1.29688 -10.269532,3.44141 -3.121094,2.85937 -3.808594,6.69531 -3.808594,8.90625 0,3.15234 0.847656,6.79297 4.035156,9.58984 2.957032,2.56641 6.69531,3.54297 11.14844,3.54297 2.08203,0 4.55078,-0.22656 5.84765,-0.75 0.55469,-0.22656 0.6875,-0.38672 0.84766,-0.9375 0.32813,-1.10937 0.71875,-3.9375 0.71875,-4.32812 0,-0.25782 -0.0664,-0.48438 -0.29687,-0.48438"
     id="path90-0" />
</svg>
