<?xml version="1.0" encoding="UTF-8" standalone="no"?>
<svg
   xmlns:dc="http://purl.org/dc/elements/1.1/"
   xmlns:cc="http://creativecommons.org/ns#"
   xmlns:rdf="http://www.w3.org/1999/02/22-rdf-syntax-ns#"
   xmlns:svg="http://www.w3.org/2000/svg"
   xmlns="http://www.w3.org/2000/svg"
   width="159.42892mm"
   height="20.904837mm"
   viewBox="0 0 451.92453 59.25781"
   version="1.2"
   id="svg93">
  <metadata
     id="metadata97">
    <rdf:RDF>
      <cc:Work
         rdf:about="">
        <dc:format>image/svg+xml</dc:format>
        <dc:type
           rdf:resource="http://purl.org/dc/dcmitype/StillImage" />
        <dc:title></dc:title>
      </cc:Work>
    </rdf:RDF>
  </metadata>
  <defs
     id="defs8">
    <clipPath
       id="clip1">
      <path
         d="m 246,782.74219 h 2 V 842 h -2 z m 0,0"
         id="path2" />
    </clipPath>
    <clipPath
       id="clip2">
      <path
         d="m 465,817 h 10.83984 v 10 H 465 Z m 0,0"
         id="path5" />
    </clipPath>
  </defs>
  <path
     style="clip-rule:nonzero;fill:#ffffff;fill-opacity:1;fill-rule:nonzero;stroke:none"
     d="m 54.5618,0 0.004,59.25781 h 1.19531 V 0 h -1.19922"
     id="path10" />
  <g
     transform="translate(-190.49427,-2.83465)"
     id="g905">
    <path
       d="M 260.77417,40.444025 V 24.436023 h -1.992 v 16.008002 z"
       style="font-style:normal;font-variant:normal;font-weight:normal;font-stretch:normal;font-size:32px;line-height:0%;font-family:'Proxima Nova';-inkscape-font-specification:'Proxima Nova';letter-spacing:0px;word-spacing:0px;fill:#ffffff;fill-opacity:1;stroke:none;stroke-width:0.75000006px;stroke-linecap:butt;stroke-linejoin:miter;stroke-opacity:1"
       id="path1752" />
    <path
       d="M 277.74892,40.444025 V 24.436023 h -1.992 v 12.504001 l -9.216,-12.504001 h -2.04 v 16.008002 h 1.992 V 27.676024 l 9.336,12.768001 z"
       style="font-style:normal;font-variant:normal;font-weight:normal;font-stretch:normal;font-size:32px;line-height:0%;font-family:'Proxima Nova';-inkscape-font-specification:'Proxima Nova';letter-spacing:0px;word-spacing:0px;fill:#ffffff;fill-opacity:1;stroke:none;stroke-width:0.75000006px;stroke-linecap:butt;stroke-linejoin:miter;stroke-opacity:1"
       id="path1754" />
    <path
       d="m 286.70055,40.732025 c 4.32,0 5.904,-2.376 5.904,-4.704001 0,-5.976 -9.48,-3.912 -9.48,-7.512 0,-1.512 1.368,-2.544 3.288,-2.544 1.752,0 3.432,0.6 4.632,1.92 l 1.2,-1.464 c -1.344,-1.416001 -3.24,-2.232001 -5.688,-2.232001 -3.144,0 -5.496,1.800001 -5.496,4.440001 0,5.712 9.48,3.432 9.48,7.56 0,1.224 -0.912,2.760001 -3.768,2.760001 -2.256,0 -3.984,-1.104001 -5.04,-2.280001 l -1.176,1.512001 c 1.32,1.488 3.36,2.544 6.144,2.544 z"
       style="font-style:normal;font-variant:normal;font-weight:normal;font-stretch:normal;font-size:32px;line-height:0%;font-family:'Proxima Nova';-inkscape-font-specification:'Proxima Nova';letter-spacing:0px;word-spacing:0px;fill:#ffffff;fill-opacity:1;stroke:none;stroke-width:0.75000006px;stroke-linecap:butt;stroke-linejoin:miter;stroke-opacity:1"
       id="path1756" />
    <path
       d="M 301.39043,40.444025 V 26.212024 h 5.088 v -1.776001 h -12.14401 v 1.776001 h 5.064 v 14.232001 z"
       style="font-style:normal;font-variant:normal;font-weight:normal;font-stretch:normal;font-size:32px;line-height:0%;font-family:'Proxima Nova';-inkscape-font-specification:'Proxima Nova';letter-spacing:0px;word-spacing:0px;fill:#ffffff;fill-opacity:1;stroke:none;stroke-width:0.75000006px;stroke-linecap:butt;stroke-linejoin:miter;stroke-opacity:1"
       id="path1758" />
    <path
       d="M 311.11793,40.444025 V 24.436023 h -1.992 v 16.008002 z"
       style="font-style:normal;font-variant:normal;font-weight:normal;font-stretch:normal;font-size:32px;line-height:0%;font-family:'Proxima Nova';-inkscape-font-specification:'Proxima Nova';letter-spacing:0px;word-spacing:0px;fill:#ffffff;fill-opacity:1;stroke:none;stroke-width:0.75000006px;stroke-linecap:butt;stroke-linejoin:miter;stroke-opacity:1"
       id="path1760" />
    <path
       d="M 320.79668,40.444025 V 26.212024 h 5.088 v -1.776001 h -12.144 v 1.776001 h 5.064 v 14.232001 z"
       style="font-style:normal;font-variant:normal;font-weight:normal;font-stretch:normal;font-size:32px;line-height:0%;font-family:'Proxima Nova';-inkscape-font-specification:'Proxima Nova';letter-spacing:0px;word-spacing:0px;fill:#ffffff;fill-opacity:1;stroke:none;stroke-width:0.75000006px;stroke-linecap:butt;stroke-linejoin:miter;stroke-opacity:1"
       id="path1762" />
    <path
       d="m 335.06018,40.732025 c 4.344,0 6.528,-2.544 6.528,-6.528001 v -9.768001 h -1.992 v 9.744001 c 0,2.928 -1.584,4.776001 -4.536,4.776001 -2.952,0 -4.536,-1.848001 -4.536,-4.776001 v -9.744001 h -1.992 v 9.792001 c 0,3.936001 2.184,6.504001 6.528,6.504001 z"
       style="font-style:normal;font-variant:normal;font-weight:normal;font-stretch:normal;font-size:32px;line-height:0%;font-family:'Proxima Nova';-inkscape-font-specification:'Proxima Nova';letter-spacing:0px;word-spacing:0px;fill:#ffffff;fill-opacity:1;stroke:none;stroke-width:0.75000006px;stroke-linecap:butt;stroke-linejoin:miter;stroke-opacity:1"
       id="path1764" />
    <path
       d="M 351.26543,40.444025 V 26.212024 h 5.088 v -1.776001 h -12.144 v 1.776001 h 5.064 v 14.232001 z"
       style="font-style:normal;font-variant:normal;font-weight:normal;font-stretch:normal;font-size:32px;line-height:0%;font-family:'Proxima Nova';-inkscape-font-specification:'Proxima Nova';letter-spacing:0px;word-spacing:0px;fill:#ffffff;fill-opacity:1;stroke:none;stroke-width:0.75000006px;stroke-linecap:butt;stroke-linejoin:miter;stroke-opacity:1"
       id="path1766" />
    <path
       d="m 369.48893,40.444025 v -1.776 h -8.496 v -5.520001 h 8.328 v -1.776 h -8.328 v -5.16 h 8.496 v -1.776001 h -10.488 v 16.008002 z"
       style="font-style:normal;font-variant:normal;font-weight:normal;font-stretch:normal;font-size:32px;line-height:0%;font-family:'Proxima Nova';-inkscape-font-specification:'Proxima Nova';letter-spacing:0px;word-spacing:0px;fill:#ffffff;fill-opacity:1;stroke:none;stroke-width:0.75000006px;stroke-linecap:butt;stroke-linejoin:miter;stroke-opacity:1"
       id="path1768" />
    <path
       d="m 380.82106,40.444025 v -7.296001 h 8.328 v -1.776 h -8.328 v -5.16 h 8.496 v -1.776001 h -10.488 v 16.008002 z"
       style="font-style:normal;font-variant:normal;font-weight:normal;font-stretch:normal;font-size:32px;line-height:0%;font-family:'Proxima Nova';-inkscape-font-specification:'Proxima Nova';letter-spacing:0px;word-spacing:0px;fill:#ffffff;fill-opacity:1;stroke:none;stroke-width:0.75000006px;stroke-linecap:butt;stroke-linejoin:miter;stroke-opacity:1"
       id="path1770" />
    <path
       d="m 399.34381,40.732025 c 4.728,0 7.944,-3.552001 7.944,-8.280001 0,-4.728 -3.216,-8.280001 -7.944,-8.280001 -4.752,0 -7.944,3.552001 -7.944,8.280001 0,4.728 3.192,8.280001 7.944,8.280001 z m 0,-1.776 c -3.6,0 -5.88,-2.784001 -5.88,-6.504001 0,-3.744 2.28,-6.504 5.88,-6.504 3.576,0 5.88,2.76 5.88,6.504 0,3.72 -2.304,6.504001 -5.88,6.504001 z"
       style="font-style:normal;font-variant:normal;font-weight:normal;font-stretch:normal;font-size:32px;line-height:0%;font-family:'Proxima Nova';-inkscape-font-specification:'Proxima Nova';letter-spacing:0px;word-spacing:0px;fill:#ffffff;fill-opacity:1;stroke:none;stroke-width:0.75000006px;stroke-linecap:butt;stroke-linejoin:miter;stroke-opacity:1"
       id="path1772" />
    <path
       d="m 422.03881,40.444025 -4.32,-6.528001 c 2.184,-0.192 4.152,-1.776 4.152,-4.656 0,-2.952 -2.088,-4.824001 -5.016,-4.824001 h -6.432 v 16.008002 h 1.992 v -6.360001 h 3.192 l 4.08,6.360001 z m -5.424,-8.112001 h -4.2 v -6.12 h 4.2 c 1.896,0 3.192,1.248 3.192,3.048 0,1.8 -1.296,3.072 -3.192,3.072 z"
       style="font-style:normal;font-variant:normal;font-weight:normal;font-stretch:normal;font-size:32px;line-height:0%;font-family:'Proxima Nova';-inkscape-font-specification:'Proxima Nova';letter-spacing:0px;word-spacing:0px;fill:#ffffff;fill-opacity:1;stroke:none;stroke-width:0.75000006px;stroke-linecap:butt;stroke-linejoin:miter;stroke-opacity:1"
       id="path1774" />
    <path
       d="m 438.70044,40.732025 c 3.24,0 5.208,-1.68 6.432,-3.600001 l -2.4,-1.224 c -0.768,1.344 -2.304,2.328001 -4.032,2.328001 -3.168,0 -5.52,-2.424001 -5.52,-5.784001 0,-3.36 2.352,-5.784 5.52,-5.784 1.728,0 3.264,1.008 4.032,2.328 l 2.4,-1.224 c -1.2,-1.92 -3.192,-3.600001 -6.432,-3.600001 -4.728,0 -8.4,3.360001 -8.4,8.280001 0,4.92 3.672,8.280001 8.4,8.280001 z"
       style="font-style:normal;font-variant:normal;font-weight:600;font-stretch:normal;font-size:32px;line-height:125%;font-family:'Proxima Nova';-inkscape-font-specification:'Proxima Nova Semi-Bold';letter-spacing:0px;word-spacing:0px;fill:#ffffff;fill-opacity:1;stroke:none;stroke-width:0.75000006px;stroke-linecap:butt;stroke-linejoin:miter;stroke-opacity:1"
       id="path1776" />
    <path
       d="m 461.63919,40.444025 -6.288,-16.008002 h -3.504 l -6.288,16.008002 h 3.192 l 1.176,-3.072001 h 7.344 l 1.176,3.072001 z m -5.16,-5.544001 h -5.76 l 2.88,-7.632 z"
       style="font-style:normal;font-variant:normal;font-weight:600;font-stretch:normal;font-size:32px;line-height:125%;font-family:'Proxima Nova';-inkscape-font-specification:'Proxima Nova Semi-Bold';letter-spacing:0px;word-spacing:0px;fill:#ffffff;fill-opacity:1;stroke:none;stroke-width:0.75000006px;stroke-linecap:butt;stroke-linejoin:miter;stroke-opacity:1"
       id="path1778" />
    <path
       d="M 477.28306,40.444025 V 24.436023 h -2.808 v 11.112001 l -8.184,-11.112001 h -2.88 v 16.008002 h 2.808 V 29.020024 l 8.352,11.424001 z"
       style="font-style:normal;font-variant:normal;font-weight:600;font-stretch:normal;font-size:32px;line-height:125%;font-family:'Proxima Nova';-inkscape-font-specification:'Proxima Nova Semi-Bold';letter-spacing:0px;word-spacing:0px;fill:#ffffff;fill-opacity:1;stroke:none;stroke-width:0.75000006px;stroke-linecap:butt;stroke-linejoin:miter;stroke-opacity:1"
       id="path1780" />
    <path
       d="m 488.38794,40.732025 c 3.24,0 5.208,-1.68 6.432,-3.600001 l -2.4,-1.224 c -0.768,1.344 -2.304,2.328001 -4.032,2.328001 -3.168,0 -5.52,-2.424001 -5.52,-5.784001 0,-3.36 2.352,-5.784 5.52,-5.784 1.728,0 3.264,1.008 4.032,2.328 l 2.4,-1.224 c -1.2,-1.92 -3.192,-3.600001 -6.432,-3.600001 -4.728,0 -8.4,3.360001 -8.4,8.280001 0,4.92 3.672,8.280001 8.4,8.280001 z"
       style="font-style:normal;font-variant:normal;font-weight:600;font-stretch:normal;font-size:32px;line-height:125%;font-family:'Proxima Nova';-inkscape-font-specification:'Proxima Nova Semi-Bold';letter-spacing:0px;word-spacing:0px;fill:#ffffff;fill-opacity:1;stroke:none;stroke-width:0.75000006px;stroke-linecap:butt;stroke-linejoin:miter;stroke-opacity:1"
       id="path1782" />
    <path
       d="m 508.03532,40.444025 v -2.472001 h -8.16 v -4.44 h 7.992 v -2.472 h -7.992 v -4.152 h 8.16 v -2.472001 h -10.968 v 16.008002 z"
       style="font-style:normal;font-variant:normal;font-weight:600;font-stretch:normal;font-size:32px;line-height:125%;font-family:'Proxima Nova';-inkscape-font-specification:'Proxima Nova Semi-Bold';letter-spacing:0px;word-spacing:0px;fill:#ffffff;fill-opacity:1;stroke:none;stroke-width:0.75000006px;stroke-linecap:butt;stroke-linejoin:miter;stroke-opacity:1"
       id="path1784" />
    <path
       d="m 523.27944,40.444025 -3.912,-6.288001 c 1.92,-0.312 3.792,-1.848 3.792,-4.704 0,-2.952 -2.064,-5.016001 -5.232,-5.016001 h -7.032 v 16.008002 h 2.808 v -5.976001 h 2.784 l 3.552,5.976001 z m -5.736,-8.448001 h -3.84 v -5.088 h 3.84 c 1.584,0 2.736,1.008 2.736,2.544 0,1.536 -1.152,2.544 -2.736,2.544 z"
       style="font-style:normal;font-variant:normal;font-weight:600;font-stretch:normal;font-size:32px;line-height:125%;font-family:'Proxima Nova';-inkscape-font-specification:'Proxima Nova Semi-Bold';letter-spacing:0px;word-spacing:0px;fill:#ffffff;fill-opacity:1;stroke:none;stroke-width:0.75000006px;stroke-linecap:butt;stroke-linejoin:miter;stroke-opacity:1"
       id="path1786" />
    <path
       d="m 539.85669,40.756025 c 2.784,0 5.016,-1.152 6.6,-2.904001 v -6 h -7.584 v 2.472 h 4.776 v 2.496 c -0.72,0.672 -2.16,1.440001 -3.792,1.440001 -3.168,0 -5.52,-2.448001 -5.52,-5.808001 0,-3.36 2.352,-5.784 5.52,-5.784 1.8,0 3.312,0.936 4.152,2.136 l 2.304,-1.296 c -1.296,-1.848 -3.336,-3.336001 -6.456,-3.336001 -4.632,0 -8.4,3.264001 -8.4,8.280001 0,5.016 3.768,8.304001 8.4,8.304001 z"
       style="font-style:normal;font-variant:normal;font-weight:600;font-stretch:normal;font-size:32px;line-height:125%;font-family:'Proxima Nova';-inkscape-font-specification:'Proxima Nova Semi-Bold';letter-spacing:0px;word-spacing:0px;fill:#ffffff;fill-opacity:1;stroke:none;stroke-width:0.75000006px;stroke-linecap:butt;stroke-linejoin:miter;stroke-opacity:1"
       id="path1788" />
    <path
       d="m 560.34782,40.444025 v -2.472001 h -8.16 v -4.44 h 7.992 v -2.472 h -7.992 v -4.152 h 8.16 v -2.472001 h -10.968 v 16.008002 z"
       style="font-style:normal;font-variant:normal;font-weight:600;font-stretch:normal;font-size:32px;line-height:125%;font-family:'Proxima Nova';-inkscape-font-specification:'Proxima Nova Semi-Bold';letter-spacing:0px;word-spacing:0px;fill:#ffffff;fill-opacity:1;stroke:none;stroke-width:0.75000006px;stroke-linecap:butt;stroke-linejoin:miter;stroke-opacity:1"
       id="path1790" />
    <path
       d="M 577.07995,40.444025 V 24.436023 h -2.808 v 11.112001 l -8.184,-11.112001 h -2.88 v 16.008002 h 2.808 V 29.020024 l 8.352,11.424001 z"
       style="font-style:normal;font-variant:normal;font-weight:600;font-stretch:normal;font-size:32px;line-height:125%;font-family:'Proxima Nova';-inkscape-font-specification:'Proxima Nova Semi-Bold';letter-spacing:0px;word-spacing:0px;fill:#ffffff;fill-opacity:1;stroke:none;stroke-width:0.75000006px;stroke-linecap:butt;stroke-linejoin:miter;stroke-opacity:1"
       id="path1792" />
    <path
       d="m 591.47282,40.444025 v -2.472001 h -8.16 v -4.44 h 7.992 v -2.472 h -7.992 v -4.152 h 8.16 v -2.472001 h -10.968 v 16.008002 z"
       style="font-style:normal;font-variant:normal;font-weight:600;font-stretch:normal;font-size:32px;line-height:125%;font-family:'Proxima Nova';-inkscape-font-specification:'Proxima Nova Semi-Bold';letter-spacing:0px;word-spacing:0px;fill:#ffffff;fill-opacity:1;stroke:none;stroke-width:0.75000006px;stroke-linecap:butt;stroke-linejoin:miter;stroke-opacity:1"
       id="path1794" />
    <path
       d="M 600.95695,40.444025 V 26.908024 h 4.848 v -2.472001 h -12.504 v 2.472001 h 4.848 v 13.536001 z"
       style="font-style:normal;font-variant:normal;font-weight:600;font-stretch:normal;font-size:32px;line-height:125%;font-family:'Proxima Nova';-inkscape-font-specification:'Proxima Nova Semi-Bold';letter-spacing:0px;word-spacing:0px;fill:#ffffff;fill-opacity:1;stroke:none;stroke-width:0.75000006px;stroke-linecap:butt;stroke-linejoin:miter;stroke-opacity:1"
       id="path1796" />
    <path
       d="M 610.96907,40.444025 V 24.436023 h -2.808 v 16.008002 z"
       style="font-style:normal;font-variant:normal;font-weight:600;font-stretch:normal;font-size:32px;line-height:125%;font-family:'Proxima Nova';-inkscape-font-specification:'Proxima Nova Semi-Bold';letter-spacing:0px;word-spacing:0px;fill:#ffffff;fill-opacity:1;stroke:none;stroke-width:0.75000006px;stroke-linecap:butt;stroke-linejoin:miter;stroke-opacity:1"
       id="path1798" />
    <path
       d="m 622.07545,40.732025 c 3.24,0 5.208,-1.68 6.432,-3.600001 l -2.4,-1.224 c -0.768,1.344 -2.304,2.328001 -4.032,2.328001 -3.168,0 -5.52,-2.424001 -5.52,-5.784001 0,-3.36 2.352,-5.784 5.52,-5.784 1.728,0 3.264,1.008 4.032,2.328 l 2.4,-1.224 c -1.2,-1.92 -3.192,-3.600001 -6.432,-3.600001 -4.728,0 -8.4,3.360001 -8.4,8.280001 0,4.92 3.672,8.280001 8.4,8.280001 z"
       style="font-style:normal;font-variant:normal;font-weight:600;font-stretch:normal;font-size:32px;line-height:125%;font-family:'Proxima Nova';-inkscape-font-specification:'Proxima Nova Semi-Bold';letter-spacing:0px;word-spacing:0px;fill:#ffffff;fill-opacity:1;stroke:none;stroke-width:0.75000006px;stroke-linecap:butt;stroke-linejoin:miter;stroke-opacity:1"
       id="path1800" />
    <path
       d="m 636.22683,40.732025 c 4.32,0 6.192,-2.28 6.192,-4.944001 0,-5.976 -9.312,-4.128 -9.312,-7.104 0,-1.2 1.056,-1.992 2.712,-1.992 1.68,0 3.384,0.576 4.632,1.824 l 1.608,-2.088 c -1.488,-1.440001 -3.504,-2.232001 -6,-2.232001 -3.504,0 -5.832,2.040001 -5.832,4.680001 0,5.904 9.336,3.816 9.336,7.176 0,1.056 -0.912,2.184001 -3.216,2.184001 -2.232,0 -3.96,-1.032001 -5.064,-2.208001 l -1.56,2.160001 c 1.416,1.512 3.552,2.544 6.504,2.544 z"
       style="font-style:normal;font-variant:normal;font-weight:600;font-stretch:normal;font-size:32px;line-height:125%;font-family:'Proxima Nova';-inkscape-font-specification:'Proxima Nova Semi-Bold';letter-spacing:0px;word-spacing:0px;fill:#ffffff;fill-opacity:1;stroke:none;stroke-width:0.75000006px;stroke-linecap:butt;stroke-linejoin:miter;stroke-opacity:1"
       id="path1802" />
  </g>
  <path
     id="path90-3-4"
     d="m 37.952385,26.714838 c -2.023437,3.48829 -4.003906,6.85547 -6.484374,6.85547 -0.707031,0 -1.968749,-0.67187 -1.480469,-2.52734 l 2.335939,-2.35938 c 0.160155,-0.17968 0.28125,-0.38671 0.167967,-0.65234 l -1.476563,-3.125 c -0.08594,-0.18359 -0.249999,-0.17578 -0.42578,0 l -3.124999,3.125 c -0.16797,0.17188 -0.24219,0.40625 -0.132813,0.66016 l 0.98828,2.30859 c -0.382811,1.52734 -1.374998,2.64063 -2.58203,2.55469 -2.238281,-0.14844 -4.054687,-4.40235 -1.359376,-10.41016 0.453126,-1.01172 0.624999,-1.85937 0.578124,-2.59375 5.109377,-2.32422 11.683594,-4.82422 14.183594,-1.66406 1.503906,1.89453 0.800781,4.39844 -1.1875,7.82812 z m -21.695309,6.83985 c -1.203125,0.0859 -2.195314,-1.02735 -2.578126,-2.55469 l 0.984375,-2.30859 c 0.113282,-0.25391 0.03906,-0.48828 -0.128907,-0.66016 l -3.128905,-3.125 c -0.175782,-0.17578 -0.335937,-0.18359 -0.421875,0 l -1.4804688,3.125 c -0.113282,0.26563 0.01172,0.47266 0.167968,0.65234 l 2.3359388,2.35938 c 0.484374,1.85547 -0.769533,2.52734 -1.480469,2.52734 -2.4765628,0 -4.4570311,-3.36718 -6.4843751,-6.85547 -1.98828,-3.42968 -2.687499,-5.93359 -1.1875,-7.82812 2.503906,-3.16016 9.0781241,-0.66016 14.1835941,1.66406 -0.04687,0.73438 0.124999,1.58203 0.578125,2.59375 2.699218,6.00781 0.878905,10.26172 -1.359375,10.41016 z m 8.355466,-15.39844 c -0.371093,0.12109 -0.757811,0.0117 -1.093748,-0.25781 -0.289062,-0.24219 -0.593751,-0.44531 -0.894531,-0.625 0.933594,-0.55469 1.562499,-1.57031 1.562499,-2.73438 0,-1.59375 -1.167969,-2.91015 -2.695312,-3.14843 l 1.171876,-1.51172 c 0.117186,-0.14844 0.117186,-0.39453 0,-0.54297 l -1.453126,-1.875 c -0.05859,-0.0781 -0.132813,-0.10938 -0.214844,-0.10938 -0.07422,0 -0.152344,0.0312 -0.210937,0.10938 l -1.449219,1.875 c -0.117187,0.14844 -0.117187,0.39453 0,0.54297 l 1.167969,1.51172 c -1.527343,0.23828 -2.691406,1.55468 -2.691406,3.14843 0,1.16407 0.624999,2.17969 1.5625,2.73438 -0.300781,0.17969 -0.60547,0.38281 -0.898438,0.625 -0.335937,0.26953 -0.718749,0.3789 -1.093749,0.25781 -6.628907,-2.11719 -12.4804691,-4.16016 -15.8046871,-0.90234 -3.980469,3.91015 0.652344,10.22656 2.11328,12.82422 1.019532,1.82421 1.746094,3.94921 1.746094,5.63671 H 36.557855 c 0,-1.6875 0.726561,-3.8125 1.746093,-5.63671 1.460937,-2.59766 6.097657,-8.91407 2.113281,-12.82422 -3.324219,-3.25782 -9.175781,-1.21485 -15.804687,0.90234 z M 5.4406689,40.488278 H 36.557855 v -2.5625 H 5.4406689 Z"
     style="fill:#ffffff;fill-opacity:1;fill-rule:nonzero;stroke:none;stroke-width:1" />
</svg>
