<?xml version="1.0" encoding="UTF-8" standalone="no"?>
<svg
   xmlns:dc="http://purl.org/dc/elements/1.1/"
   xmlns:cc="http://creativecommons.org/ns#"
   xmlns:rdf="http://www.w3.org/1999/02/22-rdf-syntax-ns#"
   xmlns:svg="http://www.w3.org/2000/svg"
   xmlns="http://www.w3.org/2000/svg"
   width="225.74902mm"
   height="21.904837mm"
   viewBox="0 0 639.91852 62.092456"
   version="1.2"
   id="svg93">
  <metadata
     id="metadata97">
    <rdf:RDF>
      <cc:Work
         rdf:about="">
        <dc:format>image/svg+xml</dc:format>
        <dc:type
           rdf:resource="http://purl.org/dc/dcmitype/StillImage" />
        <dc:title></dc:title>
      </cc:Work>
    </rdf:RDF>
  </metadata>
  <defs
     id="defs8">
    <clipPath
       id="clip1">
      <path
         d="m 246,782.74219 h 2 V 842 h -2 z m 0,0"
         id="path2" />
    </clipPath>
    <clipPath
       id="clip2">
      <path
         d="m 465,817 h 10.83984 v 10 H 465 Z m 0,0"
         id="path5" />
    </clipPath>
  </defs>
  <g
     transform="translate(-3.0253164,-781.32487)"
     style="clip-rule:nonzero"
     id="g12"
     clip-path="url(#clip1)">
    <path
       id="path10"
       d="M 246.66406,782.74219 246.66797,842 h 1.19531 v -59.25781 h -1.19922"
       style="fill:#000d74;fill-opacity:1;fill-rule:nonzero;stroke:none" />
  </g>
  <path
     id="path90"
     d="m 222.75252,32.97591 h -5.00391 c -0.10937,0 -0.13672,-0.082 -0.10937,-0.1914 l 2.5039,-6.69141 c 0.0273,-0.10547 0.0781,-0.24219 0.16016,-0.24219 0.082,0 0.10937,0.13672 0.13672,0.24219 l 2.44922,6.71875 c 0.0234,0.082 0,0.16406 -0.13672,0.16406 z m 9.1914,7.96875 c -0.32422,0 -0.73437,-0.0273 -1.14062,-0.10937 -0.57031,-0.13281 -1.35938,-0.51563 -2.39453,-2.96485 -1.74219,-4.13281 -6.09375,-15.22656 -6.7461,-16.72265 -0.26953,-0.625 -0.43359,-0.8711 -0.67578,-0.8711 -0.27344,0 -0.4375,0.29688 -0.76562,1.08594 l -6.82422,17.08203 c -0.54297,1.35547 -1.0625,2.28125 -2.3125,2.44532 -0.21485,0.0273 -0.59766,0.0547 -0.84375,0.0547 -0.21875,0 -0.32813,0.0547 -0.32813,0.21875 0,0.21485 0.16797,0.27344 0.51953,0.27344 1.41407,0 2.91016,-0.082 3.20704,-0.082 0.84765,0 2.01562,0.082 2.88671,0.082 0.29688,0 0.46094,-0.0586 0.46094,-0.27344 0,-0.16406 -0.082,-0.21875 -0.41015,-0.21875 h -0.40625 c -0.84375,0 -1.08985,-0.35156 -1.08985,-0.84375 0,-0.32422 0.13672,-0.97656 0.41016,-1.65625 l 1.46875,-3.89062 c 0.0547,-0.16406 0.10937,-0.21485 0.24219,-0.21485 h 6.0664 c 0.13672,0 0.21875,0.0508 0.27344,0.1875 l 2.17578,5.76563 c 0.13672,0.32422 -0.0547,0.57031 -0.24609,0.625 -0.26953,0.0273 -0.37891,0.082 -0.37891,0.24609 0,0.19141 0.32422,0.19141 0.8125,0.21485 2.17578,0.0586 4.16406,0.0586 5.14063,0.0586 1.00781,0 1.2539,-0.0586 1.2539,-0.27344 0,-0.1914 -0.13672,-0.21875 -0.35547,-0.21875 z m -55.63672,0 c -0.35156,0 -0.89843,-0.0273 -1.6875,-0.27343 -0.8125,-0.24219 -1.08593,-1.03125 -1.33203,-2.7461 l -2.47265,-16.80469 c -0.082,-0.57421 -0.2461,-0.84375 -0.49219,-0.84375 -0.24219,0 -0.40625,0.21485 -0.59766,0.65235 l -7.39843,15.52734 -7.42188,-15.33594 c -0.35156,-0.70703 -0.51562,-0.84375 -0.73437,-0.84375 -0.21875,0 -0.38282,0.2461 -0.46094,0.70704 l -2.69141,17.73437 c -0.13672,0.92188 -0.35547,1.98438 -1.11719,2.14453 -0.40625,0.082 -0.59765,0.082 -0.8164,0.082 -0.27344,0 -0.4336,0.0547 -0.4336,0.19141 0,0.24219 0.21485,0.30078 0.48829,0.30078 0.87109,0 2.17578,-0.0859 2.6914,-0.0859 0.49219,0 1.71485,0.0859 2.85547,0.0859 0.41016,0 0.65234,-0.0586 0.65234,-0.30078 0,-0.13672 -0.1875,-0.19141 -0.40625,-0.19141 -0.27343,0 -0.65234,-0.0273 -1.14453,-0.13672 -0.46093,-0.10546 -0.8125,-0.35156 -0.8125,-0.87109 0,-0.43359 0.0273,-0.78516 0.082,-1.27344 l 1.41407,-10.82422 h 0.10547 c 0.95312,2.03516 2.58593,5.46485 2.83203,6.03516 0.32422,0.76172 2.47656,4.92188 3.125,6.17188 0.4375,0.8164 0.70703,1.36328 0.95312,1.36328 0.2461,0 0.37891,-0.2461 1.00391,-1.52735 l 5.93359,-12.34375 h 0.10547 l 1.63281,11.96485 c 0.10938,0.76172 0.0273,1.11328 -0.13672,1.16797 -0.1875,0.082 -0.30078,0.16406 -0.30078,0.30078 0,0.16406 0.16407,0.24609 0.79297,0.30078 1.08594,0.082 4.83985,0.16406 5.51953,0.16406 0.38282,0 0.70703,-0.082 0.70703,-0.30078 0,-0.16406 -0.1914,-0.19141 -0.4375,-0.19141 z m 11.98829,-0.65234 c -0.625,0 -1.25,-0.0273 -1.98438,-0.32422 -0.86719,-0.35547 -0.94922,-0.81641 -0.94922,-2.61328 v -6.44141 c 0,-0.13672 0.0508,-0.1914 0.16016,-0.1914 0.41015,0 0.68359,0 1.17187,0.0234 1.0586,0.0547 1.6875,0.24219 2.25782,0.65625 2.0664,1.4375 2.63671,3.72266 2.63671,5.40625 0,2.83204 -2.0664,3.48438 -3.29296,3.48438 z m -2.9336,-17.78906 c 0,-0.29688 0.0508,-0.40235 0.24219,-0.46094 0.27344,-0.0547 0.51562,-0.0547 0.89844,-0.0547 2.33984,0 3.40234,2.39453 3.40234,4.21875 0,1.33203 -0.41016,2.3125 -1.11719,2.88281 -0.46093,0.40625 -1.0625,0.51563 -1.96093,0.51563 -0.6211,0 -1.03125,-0.0273 -1.27735,-0.082 -0.10547,-0.0273 -0.1875,-0.082 -0.1875,-0.30078 z m 4.6211,7.21093 c 1.49609,-1.19531 2.77734,-2.53125 2.77734,-4.75781 0,-1.44531 -0.87109,-4.08203 -5.79688,-4.08203 -0.92578,0 -1.98437,0.0781 -3.3164,0.0781 -0.54297,0 -2.25781,-0.0781 -3.69922,-0.0781 -0.40625,0 -0.59766,0.0547 -0.59766,0.24609 0,0.1875 0.16407,0.24219 0.46094,0.24219 0.37891,0 0.84375,0.0274 1.05859,0.0781 0.89844,0.19531 1.11719,0.6289 1.17188,1.55468 0.0547,0.8711 0.0547,1.63282 0.0547,5.76563 v 4.78906 c 0,2.5 0,4.65235 -0.13672,5.78906 -0.10938,0.78907 -0.24219,1.38672 -0.78516,1.4961 -0.24609,0.0547 -0.57422,0.10937 -0.98437,0.10937 -0.32422,0 -0.4336,0.082 -0.4336,0.21875 0,0.19141 0.19141,0.27344 0.54297,0.27344 1.08985,0 2.80469,-0.082 3.42969,-0.082 0.81641,0 3.28906,0.16016 3.94141,0.16016 5.00781,0 7.26171,-3.01563 7.26171,-5.92969 0,-3.17969 -2.71875,-5.10938 -4.94921,-5.8711 z m -67.30078,7.47657 c -0.21875,0 -0.26954,0.16406 -0.30079,0.41015 -0.0547,0.51563 -0.3789,1.27735 -0.70312,1.62891 -0.68359,0.73828 -1.74609,0.76172 -3.1875,0.76172 -2.12109,0 -2.82422,-0.19141 -3.28906,-0.59766 -0.57032,-0.48828 -0.57032,-2.36328 -0.57032,-5.84765 v -4.78516 c 0,-4.13281 0,-4.89453 0.0547,-5.76563 0.0547,-0.95312 0.26953,-1.41406 1.00391,-1.55078 0.32812,-0.0508 0.76172,-0.0781 1.0625,-0.0781 0.32812,0 0.48828,-0.0586 0.48828,-0.2461 0,-0.1914 -0.1875,-0.24609 -0.57031,-0.24609 -1.0625,0 -3.04688,0.0859 -3.69922,0.0859 -0.73438,0 -2.44922,-0.0859 -3.72656,-0.0859 -0.40625,0 -0.59766,0.0547 -0.59766,0.24609 0,0.1875 0.16406,0.2461 0.46094,0.2461 0.35547,0 0.67968,0.0273 0.89843,0.0781 0.89844,0.1875 1.11719,0.625 1.17188,1.55078 0.0547,0.8711 0.0547,1.63282 0.0547,5.76563 v 4.78516 c 0,2.5039 0,4.65625 -0.13672,5.79296 -0.10938,0.78907 -0.2461,1.38672 -0.78906,1.4961 -0.2461,0.0547 -0.57422,0.10937 -0.98047,0.10937 -0.32422,0 -0.4336,0.082 -0.4336,0.21875 0,0.1875 0.19141,0.27344 0.54297,0.27344 1.08594,0 2.80078,-0.0859 3.42969,-0.0859 2.20312,0 3.99609,0.16407 7.91016,0.16407 1.41406,0 1.55078,-0.13672 1.71484,-0.73438 0.21875,-0.78906 0.40625,-2.82812 0.40625,-3.125 0,-0.32812 -0.0234,-0.46484 -0.21484,-0.46484 z m 84.55859,3.7539 c -0.41016,0 -1.00391,-0.0547 -1.38672,-0.10937 -0.81641,-0.10938 -1.00391,-0.59766 -1.08984,-1.33203 -0.10938,-1.16797 -0.10938,-3.32032 -0.10938,-5.95703 v -4.78516 c 0,-4.13281 0,-4.89453 0.0547,-5.76563 0.0547,-0.95312 0.27344,-1.41406 1.00781,-1.55468 0.32813,-0.0508 0.54297,-0.0781 0.81641,-0.0781 0.27343,0 0.43359,-0.0547 0.43359,-0.27344 0,-0.16015 -0.21484,-0.21484 -0.57031,-0.21484 -1.03516,0 -2.64063,0.082 -3.31641,0.082 -0.79297,0 -2.5039,-0.082 -3.53906,-0.082 -0.43359,0 -0.65234,0.0547 -0.65234,0.21484 0,0.21875 0.16406,0.27344 0.4375,0.27344 0.32421,0 0.67968,0.0274 0.97656,0.10938 0.60156,0.13672 0.87109,0.59765 0.92578,1.52343 0.0547,0.8711 0.0547,1.63282 0.0547,5.76563 v 4.78516 c 0,2.63671 0,4.78906 -0.13672,5.92968 -0.082,0.78907 -0.24219,1.25 -0.78906,1.35938 -0.24219,0.0547 -0.57032,0.10937 -0.97657,0.10937 -0.32812,0 -0.43359,0.082 -0.43359,0.21875 0,0.1875 0.1875,0.27344 0.54297,0.27344 1.08594,0 2.79687,-0.0859 3.42578,-0.0859 0.73437,0 2.44531,0.0859 4.24219,0.0859 0.29687,0 0.51953,-0.0859 0.51953,-0.27344 0,-0.13672 -0.14063,-0.21875 -0.4375,-0.21875 z M 146.60799,20.87435 c -1.0625,0 -2.77735,0.082 -3.10157,0.082 -0.0273,0 -1.73828,-0.082 -3.125,-0.082 -0.38281,0 -0.57031,0.0547 -0.57031,0.24609 0,0.1875 0.16016,0.24219 0.45703,0.24219 0.30078,0 0.76172,0.0274 0.98438,0.0781 0.89453,0.1914 1.11328,0.6289 1.16797,1.55468 0.0508,0.8711 0.0508,1.63282 0.0508,5.76563 v 3.39844 c 0,2.80468 -0.0781,5.2539 -1.57813,6.74609 -1.08203,1.08594 -2.55469,1.46875 -3.75,1.46875 -0.92578,0 -2.17578,-0.10937 -3.40234,-1.11719 -1.32813,-1.08593 -2.1211,-2.74609 -2.1211,-6.6875 v -3.80859 c 0,-4.13281 0,-4.89453 0.0547,-5.76563 0.0586,-0.95312 0.27344,-1.41406 1.00781,-1.55468 0.32813,-0.0508 0.49219,-0.0781 0.78907,-0.0781 0.26953,0 0.43359,-0.0547 0.43359,-0.24219 0,-0.1914 -0.1875,-0.24609 -0.59766,-0.24609 -0.97656,0 -2.6914,0.082 -3.34375,0.082 -0.8164,0 -2.53124,-0.082 -3.97265,-0.082 -0.40625,0 -0.59766,0.0547 -0.59766,0.24609 0,0.1875 0.16407,0.24219 0.46094,0.24219 0.38281,0 0.84766,0.0274 1.0625,0.0781 0.89844,0.1914 1.11719,0.6289 1.16797,1.55468 0.0547,0.8711 0.0547,1.63282 0.0547,5.76563 v 3.96875 c 0,3.94531 1.03515,5.95703 2.42187,7.20703 1.98438,1.79688 4.59375,1.87891 6.03906,1.87891 1.76563,0 3.72657,-0.30078 5.65625,-1.95703 2.28516,-1.96094 2.58594,-5.16797 2.58594,-8.1875 v -2.91016 c 0,-4.13281 0,-4.89453 0.0508,-5.76563 0.0547,-0.95312 0.27344,-1.41406 1.00781,-1.55468 0.32422,-0.0508 0.48829,-0.0781 0.78907,-0.0781 0.32422,0 0.48828,-0.0547 0.48828,-0.24219 0,-0.1914 -0.19141,-0.24609 -0.57031,-0.24609 z M 94.772047,40.45638 c -5.222665,0 -8.347665,-4.48828 -8.347665,-10.14453 0,-6.77344 3.5586,-8.51172 6.69141,-8.51172 4.457031,0 7.968758,3.78125 7.968758,9.8711 0,7.85937 -4.410163,8.78515 -6.312503,8.78515 z M 93.900952,20.49154 c -8.15625,0 -11.230474,6.01172 -11.230474,10.66406 0,4.8125 3.152344,10.66016 10.960934,10.66016 6.906258,0 11.257828,-4.92578 11.257828,-11.15235 0,-6.22656 -4.21485,-10.17187 -10.988288,-10.17187 z"
     style="fill:#1d4f91;fill-opacity:1;fill-rule:nonzero;stroke:none" />
  <g
     aria-label="INSTITUTE FOR CANCER GENETICS"
     transform="matrix(0.75000006,0,0,0.75000006,173.67107,-355.16865)"
     id="flowRoot817-5-3"
     style="font-style:normal;font-variant:normal;font-weight:normal;font-stretch:normal;font-size:26.6667px;line-height:125%;font-family:'Libre Baskerville';-inkscape-font-specification:'Libre Baskerville';letter-spacing:0px;word-spacing:0px;fill:#1d4f91;fill-opacity:1;stroke:none;stroke-width:1px;stroke-linecap:butt;stroke-linejoin:miter;stroke-opacity:1">
    <path
       d="m 111.8431,505.08334 q 0,-0.20833 0.42969,-0.20833 0.40365,0 1.04167,0.013 0.63802,0.013 1.13281,0.0391 0.49479,0.026 0.52084,0.026 0.026,0 0.50781,-0.026 0.49479,-0.026 1.11979,-0.0391 0.63802,-0.013 0.97657,-0.013 0.42968,0 0.42968,0.20833 0,0.15625 -0.20833,0.16927 -0.18229,0 -0.67708,0.0781 -0.53386,0.10416 -0.72917,0.45573 -0.19531,0.33854 -0.2474,1.05468 -0.0521,0.85938 -0.0521,5.76824 v 4.68751 q 0,4.66146 0.13021,5.79427 0.0781,0.66407 0.27344,1.02865 0.20833,0.35156 0.76823,0.42969 0.74218,0.10417 1.19791,0.10417 0.20834,0 0.20834,0.16927 0,0.20833 -0.42969,0.20833 -0.63802,0 -1.43229,-0.013 -0.78125,-0.013 -1.30209,-0.0391 -0.50781,-0.026 -0.53385,-0.026 -0.026,0 -0.52084,0.026 -0.49479,0.026 -1.13281,0.0391 -0.625,0.013 -0.96354,0.013 -0.42969,0 -0.42969,-0.20833 0,-0.15625 0.20833,-0.16927 0.32552,0 0.80729,-0.10417 0.58594,-0.10417 0.76823,-1.45834 0.13021,-1.11979 0.14323,-5.79427 v -4.68751 q 0,-4.90886 -0.0651,-5.76824 -0.0781,-1.30208 -0.89844,-1.48437 -0.40365,-0.10417 -0.83333,-0.10417 -0.20834,-0.013 -0.20834,-0.16927 z"
       style="font-style:normal;font-variant:normal;font-weight:normal;font-stretch:normal;font-size:26.6667px;line-height:0%;font-family:'Trajan Pro';-inkscape-font-specification:'Trajan Pro';letter-spacing:0px;fill:#1d4f91;fill-opacity:1"
       id="path80" />
    <path
       d="m 122.5853,524.82295 q 0,-0.15625 0.22136,-0.16927 0.61198,0 1.09375,-0.15625 0.48177,-0.13021 0.63802,-0.82032 0.15625,-0.70312 0.15625,-2.5651 l 0.026,-15.27346 q 0,-1.32813 0.29948,-1.34115 0.10417,0 0.2474,0.14323 0.14323,0.13021 0.3776,0.40365 0.2474,0.26041 0.29948,0.3125 0.98959,1.11979 8.47658,9.14063 1.38021,1.4974 3.6849,4.03647 2.31771,2.52604 2.72135,2.92969 l -0.29948,-13.55471 q -0.026,-1.32812 -0.22135,-1.84896 -0.19531,-0.52083 -0.80729,-0.67708 -0.58594,-0.13021 -1.31511,-0.13021 -0.20833,0 -0.20833,-0.18229 0,-0.19531 0.53385,-0.19531 0.71615,0 1.73178,0.0391 1.01562,0.0391 1.04166,0.0391 0.0521,0 0.83334,-0.0391 0.79427,-0.0391 1.43229,-0.0391 0.48177,0 0.48177,0.19531 0,0.18229 -0.29948,0.18229 -0.32552,0 -0.63802,0.0781 -0.63802,0.1302 -0.82031,0.61198 -0.16927,0.48177 -0.16927,1.75781 l -0.0521,15.62502 q 0,0.66406 -0.013,1.04167 -0.013,0.3776 -0.0391,0.55989 -0.026,0.1823 -0.0651,0.23438 -0.0391,0.0521 -0.11719,0.0521 -0.23438,0 -1.95313,-1.70573 -0.15625,-0.15625 -1.25,-1.26302 -1.09375,-1.10677 -2.76042,-2.83855 -1.66667,-1.73177 -2.94271,-3.125 -3.73699,-4.02344 -6.96616,-7.64324 l 0.35157,12.77346 q 0.026,1.6276 0.24739,2.27864 0.23438,0.65105 0.79427,0.8073 0.61198,0.15625 1.32813,0.15625 0.20833,0 0.20833,0.16927 0,0.20833 -0.46875,0.20833 -0.66406,0 -1.32812,-0.013 -0.65105,-0.013 -1.05469,-0.0391 -0.39063,-0.026 -0.44271,-0.026 l -0.91146,0.0521 q -0.9375,0.026 -1.65365,0.026 -0.42969,0 -0.42969,-0.20833 z"
       style="font-style:normal;font-variant:normal;font-weight:normal;font-stretch:normal;font-size:26.6667px;line-height:0%;font-family:'Trajan Pro';-inkscape-font-specification:'Trajan Pro';letter-spacing:0px;fill:#1d4f91;fill-opacity:1"
       id="path82" />
    <path
       d="m 148.71815,523.67711 q 0,-0.6901 0.13021,-2.82552 0.026,-0.42969 0.20833,-0.42969 0.19531,0 0.19531,0.28646 0,0.61198 0.0781,0.98958 0.29948,1.38021 1.38021,2.0573 1.09375,0.66406 2.56511,0.66406 1.80989,0 2.8125,-1.06771 1.00261,-1.06771 1.00261,-2.47396 0,-1.35417 -0.66407,-2.34375 -0.65104,-0.98959 -2.40885,-2.46094 l -1.19792,-0.98959 q -2.00521,-1.6276 -2.73438,-2.95573 -0.72917,-1.32813 -0.72917,-2.82553 0,-2.16146 1.48438,-3.47656 1.4974,-1.32813 4.03646,-1.32813 1.35417,0 2.47396,0.27344 0.63802,0.13021 0.9375,0.13021 0.26042,0 0.26042,0.18229 l -0.026,0.35156 q -0.026,0.35157 -0.0521,1.01563 -0.026,0.66406 -0.026,1.45833 0,0.61198 -0.18229,0.61198 -0.15625,0 -0.20833,-0.33854 -0.0781,-0.82031 -0.35156,-1.34115 -0.76823,-1.41927 -3.33334,-1.40625 -1.41927,0 -2.35678,0.84636 -0.92448,0.83333 -0.92448,2.23958 0,1.14584 0.66407,2.07032 0.66406,0.92448 2.59115,2.40886 l 0.74218,0.59896 q 2.26563,1.78385 3.07293,3.17708 0.82031,1.38021 0.82031,3.08594 0,1.06771 -0.52084,2.30469 -0.52083,1.23699 -1.74479,2.1224 -1.60156,1.1198 -4.02344,1.1198 -2.10938,0 -3.58074,-0.71615 -0.26041,-0.13021 -0.32552,-0.28646 -0.0651,-0.16927 -0.0651,-0.72917 z"
       style="font-style:normal;font-variant:normal;font-weight:normal;font-stretch:normal;font-size:26.6667px;line-height:0%;font-family:'Trajan Pro';-inkscape-font-specification:'Trajan Pro';letter-spacing:0px;fill:#1d4f91;fill-opacity:1"
       id="path84" />
    <path
       d="m 161.93431,507.77866 q 0,-0.42969 0.58594,-2.77345 0.15625,-0.50781 0.27344,-0.50781 0.0521,0 0.39062,0.15625 0.35157,0.14323 0.78125,0.16927 1.27605,0.13021 2.10938,0.13021 h 10.00001 q 1.17188,0 1.88803,-0.13021 0.15625,-0.026 0.32552,-0.0521 0.18229,-0.026 0.27344,-0.0521 0.0911,-0.026 0.14323,-0.026 0.1302,0 0.14323,0.3125 0,0.45573 -0.0521,1.65365 -0.0391,1.19792 -0.0391,1.27605 0,0.35156 -0.18229,0.35156 -0.18229,0 -0.20834,-0.45573 l -0.026,-0.28646 q -0.13021,-1.41927 -3.28125,-1.47136 l -3.35938,-0.0521 v 11.27606 q 0,4.66146 0.13021,5.79427 0.0781,0.66407 0.27344,1.02865 0.20833,0.35156 0.76823,0.42969 0.74218,0.10417 1.19791,0.10417 0.20834,0 0.20834,0.16927 0,0.20833 -0.41667,0.20833 -0.63802,0 -1.43229,-0.013 -0.78125,-0.013 -1.30209,-0.0391 -0.52083,-0.026 -0.54687,-0.026 -0.026,0 -0.52084,0.026 -0.49479,0.026 -1.11979,0.0391 -0.625,0.013 -0.97656,0.013 -0.42969,0 -0.42969,-0.20833 0,-0.15625 0.22135,-0.16927 0.32552,0 0.79427,-0.10417 0.58594,-0.10417 0.76823,-1.45834 0.13021,-1.11979 0.14323,-5.79427 v -11.27606 l -3.94531,0.0521 q -1.25001,0.026 -1.83594,0.20834 -0.57292,0.16927 -0.88542,0.65104 -0.29948,0.45573 -0.45573,0.82031 -0.10417,0.26042 -0.27344,0.27344 -0.13021,-0.013 -0.13021,-0.24739 z"
       style="font-style:normal;font-variant:normal;font-weight:normal;font-stretch:normal;font-size:26.6667px;line-height:0%;font-family:'Trajan Pro';-inkscape-font-specification:'Trajan Pro';letter-spacing:0px;fill:#1d4f91;fill-opacity:1"
       id="path86" />
    <path
       d="m 182.44215,505.08334 q 0,-0.20833 0.42969,-0.20833 0.40364,0 1.04166,0.013 0.63802,0.013 1.13282,0.0391 0.49479,0.026 0.52083,0.026 0.026,0 0.50781,-0.026 0.4948,-0.026 1.1198,-0.0391 0.63802,-0.013 0.97656,-0.013 0.42969,0 0.42969,0.20833 0,0.15625 -0.20833,0.16927 -0.1823,0 -0.67709,0.0781 -0.53385,0.10416 -0.72917,0.45573 -0.19531,0.33854 -0.24739,1.05468 -0.0521,0.85938 -0.0521,5.76824 v 4.68751 q 0,4.66146 0.13021,5.79427 0.0781,0.66407 0.27344,1.02865 0.20833,0.35156 0.76823,0.42969 0.74219,0.10417 1.19792,0.10417 0.20833,0 0.20833,0.16927 0,0.20833 -0.42969,0.20833 -0.63802,0 -1.43229,-0.013 -0.78125,-0.013 -1.30208,-0.0391 -0.50782,-0.026 -0.53386,-0.026 -0.026,0 -0.52083,0.026 -0.4948,0.026 -1.13282,0.0391 -0.625,0.013 -0.96354,0.013 -0.42969,0 -0.42969,-0.20833 0,-0.15625 0.20834,-0.16927 0.32552,0 0.80729,-0.10417 0.58594,-0.10417 0.76823,-1.45834 0.13021,-1.11979 0.14323,-5.79427 v -4.68751 q 0,-4.90886 -0.0651,-5.76824 -0.0781,-1.30208 -0.89843,-1.48437 -0.40365,-0.10417 -0.83334,-0.10417 -0.20833,-0.013 -0.20833,-0.16927 z"
       style="font-style:normal;font-variant:normal;font-weight:normal;font-stretch:normal;font-size:26.6667px;line-height:0%;font-family:'Trajan Pro';-inkscape-font-specification:'Trajan Pro';letter-spacing:0px;fill:#1d4f91;fill-opacity:1"
       id="path88" />
    <path
       d="m 192.0906,507.77866 q 0,-0.42969 0.58594,-2.77345 0.15625,-0.50781 0.27344,-0.50781 0.0521,0 0.39062,0.15625 0.35156,0.14323 0.78125,0.16927 1.27605,0.13021 2.10938,0.13021 h 10.00001 q 1.17188,0 1.88803,-0.13021 0.15625,-0.026 0.32552,-0.0521 0.18229,-0.026 0.27344,-0.0521 0.0911,-0.026 0.14322,-0.026 0.13021,0 0.14323,0.3125 0,0.45573 -0.0521,1.65365 -0.0391,1.19792 -0.0391,1.27605 0,0.35156 -0.18229,0.35156 -0.1823,0 -0.20834,-0.45573 l -0.026,-0.28646 q -0.13021,-1.41927 -3.28125,-1.47136 l -3.35938,-0.0521 v 11.27606 q 0,4.66146 0.13021,5.79427 0.0781,0.66407 0.27343,1.02865 0.20834,0.35156 0.76823,0.42969 0.74219,0.10417 1.19792,0.10417 0.20834,0 0.20834,0.16927 0,0.20833 -0.41667,0.20833 -0.63802,0 -1.4323,-0.013 -0.78125,-0.013 -1.30208,-0.0391 -0.52083,-0.026 -0.54688,-0.026 -0.026,0 -0.52083,0.026 -0.49479,0.026 -1.11979,0.0391 -0.625,0.013 -0.97657,0.013 -0.42968,0 -0.42968,-0.20833 0,-0.15625 0.22135,-0.16927 0.32552,0 0.79427,-0.10417 0.58594,-0.10417 0.76823,-1.45834 0.13021,-1.11979 0.14323,-5.79427 v -11.27606 l -3.94532,0.0521 q -1.25,0.026 -1.83594,0.20834 -0.57291,0.16927 -0.88541,0.65104 -0.29948,0.45573 -0.45573,0.82031 -0.10417,0.26042 -0.27344,0.27344 -0.13021,-0.013 -0.13021,-0.24739 z"
       style="font-style:normal;font-variant:normal;font-weight:normal;font-stretch:normal;font-size:26.6667px;line-height:0%;font-family:'Trajan Pro';-inkscape-font-specification:'Trajan Pro';letter-spacing:0px;fill:#1d4f91;fill-opacity:1"
       id="path91" />
    <path
       d="m 210.73646,505.08334 q 0,-0.20833 0.41667,-0.20833 0.71615,0 1.90104,0.026 l 1.17188,0.0521 q 0.0521,0 1.10677,-0.0391 1.05469,-0.0391 1.53646,-0.0391 0.42969,0 0.41667,0.20833 0,0.15625 -0.20833,0.16927 -0.1823,0 -0.66407,0.0781 -0.50781,0.0781 -0.72917,0.42968 -0.20833,0.33855 -0.26041,1.08073 -0.0521,0.85938 -0.0521,5.76824 v 3.72396 q 0,2.66928 0.52084,4.1797 0.52083,1.51041 1.48437,2.40885 0.91146,0.85938 1.83594,1.17188 0.93751,0.29948 2.18751,0.29948 1.19792,0 2.33073,-0.52083 1.13281,-0.52084 1.84896,-1.39324 1.54948,-1.91406 1.54948,-6.53646 v -3.33334 q 0,-4.90886 -0.0521,-5.76824 -0.0521,-0.71614 -0.28646,-1.04166 -0.22136,-0.33855 -0.85938,-0.46875 -0.32552,-0.0781 -0.91146,-0.0781 -0.20833,0 -0.20833,-0.16927 0,-0.20833 0.42969,-0.20833 0.53385,0 1.19792,0.013 0.66406,0.013 1.13281,0.0391 0.46875,0.026 0.49479,0.026 0.026,0 0.88542,-0.0391 0.8724,-0.0391 1.35417,-0.0391 0.42969,0 0.42969,0.20833 0,0.15625 -0.22136,0.16927 -0.18229,0 -0.66406,0.0781 -0.53386,0.10416 -0.74219,0.45573 -0.19531,0.33854 -0.2474,1.05468 -0.0521,0.85938 -0.0521,5.76824 v 2.85157 q 0,2.64323 -0.50781,4.67448 -0.50782,2.01823 -1.94011,3.29428 -2.21354,1.97917 -5.4948,1.97917 -3.48959,0 -5.4948,-1.90105 -2.31771,-2.21354 -2.31771,-7.00522 v -3.89323 q 0,-4.90886 -0.0521,-5.76824 -0.0521,-0.71614 -0.28646,-1.04166 -0.22135,-0.33855 -0.85938,-0.46875 -0.32552,-0.0781 -0.91145,-0.0781 -0.20834,-0.013 -0.20834,-0.16927 z"
       style="font-style:normal;font-variant:normal;font-weight:normal;font-stretch:normal;font-size:26.6667px;line-height:0%;font-family:'Trajan Pro';-inkscape-font-specification:'Trajan Pro';letter-spacing:0px;fill:#1d4f91;fill-opacity:1"
       id="path93" />
    <path
       d="m 232.63753,507.77866 q 0,-0.42969 0.58594,-2.77345 0.15625,-0.50781 0.27343,-0.50781 0.0521,0 0.39063,0.15625 0.35156,0.14323 0.78125,0.16927 1.27604,0.13021 2.10938,0.13021 h 10.00001 q 1.17188,0 1.88802,-0.13021 0.15625,-0.026 0.32553,-0.0521 0.18229,-0.026 0.27343,-0.0521 0.0911,-0.026 0.14323,-0.026 0.13021,0 0.14323,0.3125 0,0.45573 -0.0521,1.65365 -0.0391,1.19792 -0.0391,1.27605 0,0.35156 -0.1823,0.35156 -0.18229,0 -0.20833,-0.45573 l -0.026,-0.28646 q -0.13021,-1.41927 -3.28126,-1.47136 l -3.35937,-0.0521 v 11.27606 q 0,4.66146 0.1302,5.79427 0.0781,0.66407 0.27344,1.02865 0.20834,0.35156 0.76823,0.42969 0.74219,0.10417 1.19792,0.10417 0.20833,0 0.20833,0.16927 0,0.20833 -0.41666,0.20833 -0.63802,0 -1.4323,-0.013 -0.78125,-0.013 -1.30208,-0.0391 -0.52084,-0.026 -0.54688,-0.026 -0.026,0 -0.52083,0.026 -0.49479,0.026 -1.11979,0.0391 -0.62501,0.013 -0.97657,0.013 -0.42969,0 -0.42969,-0.20833 0,-0.15625 0.22136,-0.16927 0.32552,0 0.79427,-0.10417 0.58594,-0.10417 0.76823,-1.45834 0.13021,-1.11979 0.14323,-5.79427 v -11.27606 l -3.94532,0.0521 q -1.25,0.026 -1.83594,0.20834 -0.57292,0.16927 -0.88542,0.65104 -0.29948,0.45573 -0.45573,0.82031 -0.10416,0.26042 -0.27343,0.27344 -0.13021,-0.013 -0.13021,-0.24739 z"
       style="font-style:normal;font-variant:normal;font-weight:normal;font-stretch:normal;font-size:26.6667px;line-height:0%;font-family:'Trajan Pro';-inkscape-font-specification:'Trajan Pro';letter-spacing:0px;fill:#1d4f91;fill-opacity:1"
       id="path95" />
    <path
       d="m 252.81984,505.08334 q 0,-0.20833 0.42969,-0.20833 1.32813,0 1.92709,0.026 l 1.09375,0.0521 q 5.4948,0 6.10678,-0.026 0.76823,-0.0521 1.14583,-0.13021 0.0521,0 0.16927,-0.0651 0.11719,-0.0781 0.19531,-0.0781 0.10417,0 0.10417,0.2474 0,0.0781 -0.0391,0.23437 -0.0391,0.14323 -0.0912,0.42969 -0.0521,0.27344 -0.0781,0.58594 0,0.0521 -0.0521,0.82031 -0.0521,0.75521 -0.0781,0.9375 -0.0521,0.29948 -0.18229,0.29948 -0.20834,0 -0.22136,-0.35156 0,-0.58594 -0.15625,-0.95052 -0.15625,-0.37761 -0.53385,-0.58594 -0.37761,-0.22135 -1.36719,-0.32552 -0.66406,-0.0781 -3.64584,-0.0781 -0.15625,0 -0.15625,0.26042 v 7.35678 q 0,0.26042 0.15625,0.27344 3.63282,0 4.23178,-0.0521 0.98958,-0.0781 1.26302,-0.37761 0.29948,-0.35156 0.39063,-0.33854 0.1302,0 0.14322,0.20833 0,0.0521 -0.0391,0.2474 -0.0391,0.18229 -0.10416,0.53385 -0.0521,0.33855 -0.0781,0.71615 -0.10417,1.06771 -0.10417,1.70573 0,0.50781 -0.19531,0.50781 -0.18229,0 -0.18229,-0.24739 0,-0.53386 -0.10417,-0.8724 -0.23437,-0.82031 -1.38021,-0.9375 -1.19792,-0.13021 -3.81511,-0.13021 -0.18229,0 -0.18229,0.18229 v 2.34376 4.55729 q 0.0521,1.38021 0.59896,1.78386 0.54688,0.40365 2.48698,0.40365 1.86198,0 2.56511,-0.28646 0.9375,-0.40365 1.19792,-1.92709 0.0781,-0.40364 0.23437,-0.39062 0.16927,0 0.16927,0.39062 0,0.18229 -0.14323,1.19792 -0.1302,1.01563 -0.20833,1.39323 -0.13021,0.50781 -0.3776,0.59896 -0.23438,0.0911 -1.06771,0.0911 -1.38021,0 -4.50522,-0.0781 -1.54948,-0.0781 -2.07031,-0.0781 -0.50782,0 -1.06771,0.026 -0.29948,0 -0.83334,0.026 -0.53385,0.026 -0.71614,0.026 -0.42969,0 -0.42969,-0.20833 0,-0.15625 0.20833,-0.16927 0.32552,0 0.8073,-0.10417 0.58593,-0.10417 0.76823,-1.45834 0.1302,-1.11979 0.14322,-5.79427 v -4.68751 q 0,-4.90886 -0.0651,-5.76824 -0.0521,-0.71614 -0.27344,-1.04166 -0.22135,-0.33855 -0.87239,-0.46875 -0.32553,-0.0781 -0.89844,-0.0781 -0.22136,-0.013 -0.22136,-0.16927 z"
       style="font-style:normal;font-variant:normal;font-weight:normal;font-stretch:normal;font-size:26.6667px;line-height:0%;font-family:'Trajan Pro';-inkscape-font-specification:'Trajan Pro';letter-spacing:0px;fill:#1d4f91;fill-opacity:1"
       id="path97" />
    <path
       d="m 277.74175,505.08334 q 0,-0.20833 0.42969,-0.20833 1.32812,0 1.92708,0.026 l 1.09375,0.0521 q 0.28646,0.013 1.62761,0.013 0.67708,0 1.61458,0 2.82553,-0.013 3.3073,-0.0391 1.01563,-0.0521 1.17188,-0.10417 l 0.19531,-0.0911 q 0.13021,-0.0651 0.18229,-0.0781 0.15625,0 0.15625,0.2474 0,0.0781 -0.0391,0.23437 -0.0391,0.14323 -0.0912,0.42969 -0.0521,0.27344 -0.0781,0.58594 0,0.0521 -0.0521,0.82031 -0.0521,0.75521 -0.0781,0.9375 -0.0521,0.29948 -0.22135,0.29948 -0.1823,0 -0.1823,-0.32552 0,-0.48177 -0.23437,-1.01562 -0.13021,-0.32553 -0.61198,-0.57292 -0.48177,-0.2474 -1.21094,-0.27344 l -4.10157,-0.0781 q -0.23437,0 -0.23437,0.28645 v 7.36981 q 0,0.23437 0.18229,0.23437 l 3.41146,-0.026 q 0.82031,0 1.19792,-0.026 0.96354,-0.0781 1.22396,-0.48177 0.20833,-0.26042 0.29948,-0.26042 0.13021,0 0.13021,0.20833 0,0.0521 -0.0391,0.2474 -0.0391,0.18229 -0.0911,0.53385 -0.0521,0.33855 -0.0781,0.71615 -0.10416,1.06771 -0.10416,1.78386 0,0.50781 -0.19532,0.50781 -0.18229,0 -0.18229,-0.2474 -0.0781,-0.6901 -0.15625,-0.95052 -0.29948,-0.82031 -1.39323,-0.96354 -0.66406,-0.0781 -4.02344,-0.0781 -0.18229,0 -0.18229,0.23438 v 2.26563 q 0,4.66146 0.1302,5.79427 0.0781,0.66407 0.27344,1.02865 0.20834,0.35156 0.76823,0.42969 0.74219,0.10417 1.19792,0.10417 0.20833,0 0.20833,0.16927 0,0.20833 -0.42968,0.20833 -0.63803,0 -1.4323,-0.013 -0.78125,-0.013 -1.30208,-0.0391 -0.50782,-0.026 -0.53386,-0.026 -0.026,0 -0.52083,0.026 -0.49479,0.026 -1.13281,0.0391 -0.62501,0.013 -0.96355,0.013 -0.42969,0 -0.42969,-0.20833 0,-0.15625 0.20834,-0.16927 0.32552,0 0.80729,-0.10417 0.58594,-0.10417 0.76823,-1.45834 0.13021,-1.11979 0.14323,-5.79427 v -4.68751 q 0,-4.90886 -0.0651,-5.76824 -0.0521,-0.71614 -0.27344,-1.04166 -0.22136,-0.33855 -0.8724,-0.46875 -0.32552,-0.0781 -0.89844,-0.0781 -0.22135,-0.013 -0.22135,-0.16927 z"
       style="font-style:normal;font-variant:normal;font-weight:normal;font-stretch:normal;font-size:26.6667px;line-height:0%;font-family:'Trajan Pro';-inkscape-font-specification:'Trajan Pro';letter-spacing:0px;fill:#1d4f91;fill-opacity:1"
       id="path99" />
    <path
       d="m 292.80687,514.9271 q 0,-1.70573 0.625,-3.46354 0.625,-1.75782 1.83594,-3.34636 1.22396,-1.58855 3.32031,-2.60417 2.10938,-1.01563 4.72657,-1.01563 4.58334,0 7.52605,2.70834 2.95574,2.70833 2.95574,7.29167 0,4.58334 -2.96876,7.74741 -2.95573,3.16407 -7.66928,3.16407 -2.10938,0 -3.86719,-0.625 -1.75781,-0.62501 -2.94271,-1.66667 -1.17188,-1.04167 -2.00521,-2.42188 -0.82032,-1.39323 -1.1849,-2.82553 -0.35156,-1.44531 -0.35156,-2.94271 z m 2.53906,-0.74219 q 0,4.58334 2.42188,7.39585 2.42188,2.8125 6.10678,2.8125 0.82031,0 1.69271,-0.19531 0.8724,-0.20834 1.91406,-0.8073 1.05469,-0.59895 1.84896,-1.54948 0.8073,-0.96354 1.35417,-2.66927 0.54688,-1.70573 0.54688,-3.91928 0,-4.58334 -2.3698,-7.21355 -2.36979,-2.63021 -5.72917,-2.63021 -3.46355,0 -5.62501,2.26563 -2.16146,2.26563 -2.16146,6.51042 z"
       style="font-style:normal;font-variant:normal;font-weight:normal;font-stretch:normal;font-size:26.6667px;line-height:0%;font-family:'Trajan Pro';-inkscape-font-specification:'Trajan Pro';letter-spacing:0px;fill:#1d4f91;fill-opacity:1"
       id="path101" />
    <path
       d="m 317.11679,505.08334 q 0,-0.20833 0.42969,-0.20833 0.53386,0 1.25,0.013 0.72917,0.013 1.23698,0.0391 0.50782,0.026 0.53386,0.026 0.0781,0 1.36719,-0.0391 1.28906,-0.0391 1.77083,-0.0391 3.25522,0 4.88282,1.17187 0.66407,0.48177 1.25,1.44532 0.58594,0.95052 0.58594,2.17448 0,3.17709 -3.21615,6.17188 4.2448,5.44272 5.53386,6.82293 1.57553,1.65364 3.25522,1.91406 0.50781,0.0781 1.04166,0.0781 0.23438,0 0.2474,0.16927 0,0.20833 -0.63802,0.20833 h -1.90105 q -1.91406,0 -2.85156,-0.50781 -0.53386,-0.29948 -1.1849,-0.96354 -0.65104,-0.66407 -0.97656,-1.06771 -0.32552,-0.41667 -1.44532,-1.88803 -0.61198,-0.82031 -1.65364,-2.23958 -1.02865,-1.4323 -1.25001,-1.70574 -0.15625,-0.15625 -0.33854,-0.15625 l -3.28125,-0.0521 q -0.18229,0 -0.19532,0.20833 v 0.63803 q 0,4.66146 0.14323,5.79427 0.0781,0.66407 0.27344,1.02865 0.19531,0.35156 0.75521,0.42969 0.74219,0.10417 1.21094,0.10417 0.20833,0 0.20833,0.16927 0,0.20833 -0.42968,0.20833 -0.63803,0 -1.4323,-0.013 -0.78125,-0.013 -1.30208,-0.0391 -0.52084,-0.026 -0.54688,-0.026 h -0.18229 q -0.18229,0.026 -0.48177,0.026 -0.28646,0 -0.61198,0.013 -0.32552,0.013 -0.67709,0.026 -0.33854,0.013 -0.54687,0.013 -0.42969,0 -0.42969,-0.20833 0,-0.15625 0.20833,-0.16927 0.32553,0 0.8073,-0.10417 0.58593,-0.10417 0.76823,-1.45834 0.13021,-1.11979 0.14323,-5.79427 v -4.68751 q 0,-4.90886 -0.0651,-5.76824 -0.0521,-0.71614 -0.27344,-1.04166 -0.22135,-0.33855 -0.87239,-0.46875 -0.32552,-0.0781 -0.89844,-0.0781 -0.22136,-0.013 -0.22136,-0.16927 z m 4.45313,9.84376 q 0,0.20834 0.19532,0.32552 0.71614,0.42969 2.79948,0.41667 1.27604,0 1.99219,-0.50781 1.62761,-1.1198 1.62761,-4.10157 0,-2.51302 -1.23698,-3.91928 -1.23699,-1.41927 -3.3724,-1.41927 -1.25001,0 -1.78386,0.16927 -0.20833,0.0781 -0.22136,0.3125 z"
       style="font-style:normal;font-variant:normal;font-weight:normal;font-stretch:normal;font-size:26.6667px;line-height:0%;font-family:'Trajan Pro';-inkscape-font-specification:'Trajan Pro';letter-spacing:0px;fill:#1d4f91;fill-opacity:1"
       id="path103" />
    <path
       d="m 345.16371,514.62762 q 0,-1.67969 0.6901,-3.67188 0.70313,-2.00521 2.29167,-3.60677 2.85157,-2.85157 8.13803,-2.85157 2.13542,0 3.8672,0.32552 1.88802,0.35157 2.72135,0.39063 0.35157,0.026 0.35157,0.29948 0,0.0781 -0.0391,0.26041 -0.026,0.16928 -0.0521,0.50782 -0.026,0.32552 -0.0521,0.72917 -0.026,0.48177 -0.0521,1.53646 -0.026,1.04166 -0.026,1.21093 -0.026,0.5599 -0.24739,0.5599 -0.20834,0 -0.20834,-0.5599 0,-1.75781 -1.11979,-2.72135 -0.74219,-0.63802 -2.20052,-1.08073 -1.44532,-0.44271 -3.12501,-0.44271 -4.12761,0 -6.13282,1.95312 -1.35417,1.30209 -1.88802,2.9948 -0.52084,1.69271 -0.52084,3.95834 0,3.94532 2.73438,6.86199 2.73438,2.90365 6.90105,2.90365 3.33334,0 4.63543,-1.34115 0.74218,-0.76823 0.98958,-2.23959 0.0781,-0.40364 0.26042,-0.40364 0.19531,0 0.19531,0.40364 0,0.20834 -0.20833,1.52344 -0.19532,1.30209 -0.37761,1.88803 -0.10416,0.3776 -0.22135,0.49479 -0.10417,0.11718 -0.48177,0.28646 -1.52344,0.61198 -4.79168,0.61198 -5.59896,0 -8.80209,-2.87761 -3.22917,-2.91667 -3.22917,-7.90366 z"
       style="font-style:normal;font-variant:normal;font-weight:normal;font-stretch:normal;font-size:26.6667px;line-height:0%;font-family:'Trajan Pro';-inkscape-font-specification:'Trajan Pro';letter-spacing:0px;fill:#1d4f91;fill-opacity:1"
       id="path105" />
    <path
       d="m 364.20019,524.82295 q 0,-0.15625 0.23437,-0.16927 0.35157,0 0.78126,-0.0521 0.85937,-0.10416 1.32812,-0.72916 0.48177,-0.62501 0.91146,-1.77084 l 6.04168,-16.56252 q 0.3776,-1.04167 0.58593,-1.04167 0.22136,0 0.59896,0.96354 0.10417,0.26042 1.34115,3.51563 1.23698,3.25522 2.6823,7.01824 1.45833,3.76303 2.1875,5.54688 1.06771,2.61719 2.29167,2.95574 0.48177,0.15625 1.06771,0.15625 0.26041,0 0.26041,0.16927 0,0.20833 -0.53385,0.20833 -2.34375,0 -4.17969,-0.0521 -0.79427,-0.0521 -0.8073,-0.18229 0,-0.14323 0.19532,-0.19532 0.23437,-0.0911 0.23437,-0.35156 0,-0.15625 -0.0781,-0.36458 l -2.47396,-6.56251 q -0.0781,-0.15625 -0.2474,-0.15625 h -5.72917 q -0.1823,0 -0.27344,0.20833 l -1.60157,4.72657 q -0.3776,1.04167 -0.36458,1.78386 0,0.3776 0.29948,0.57291 0.3125,0.19532 0.71615,0.19532 h 0.26041 q 0.26042,0 0.27344,0.16927 0,0.20833 -0.40365,0.20833 -0.3776,0 -1.18489,-0.0391 -0.79427,-0.0391 -0.89844,-0.0391 -0.026,0 -1.14584,0.0391 -1.11979,0.0391 -1.86198,0.0391 -0.50781,0 -0.50781,-0.20833 z m 6.90105,-8.8021 q -0.026,0.0651 -0.026,0.10417 0,0.0781 0.10416,0.0781 h 5.09116 q 0.15625,0 0.11718,-0.1823 l -2.53906,-7.20053 q -0.0911,-0.3125 -0.19531,-0.3125 -0.0911,0 -0.20834,0.3125 z"
       style="font-style:normal;font-variant:normal;font-weight:normal;font-stretch:normal;font-size:26.6667px;line-height:0%;font-family:'Trajan Pro';-inkscape-font-specification:'Trajan Pro';letter-spacing:0px;fill:#1d4f91;fill-opacity:1"
       id="path107" />
    <path
       d="m 385.33304,524.82295 q 0,-0.15625 0.22135,-0.16927 0.61198,0 1.09376,-0.15625 0.48177,-0.13021 0.63802,-0.82032 0.15625,-0.70312 0.15625,-2.5651 l 0.026,-15.27346 q 0,-1.32813 0.29948,-1.34115 0.10417,0 0.2474,0.14323 0.14322,0.13021 0.3776,0.40365 0.2474,0.26041 0.29948,0.3125 0.98958,1.11979 8.47657,9.14063 1.38021,1.4974 3.6849,4.03647 2.31771,2.52604 2.72136,2.92969 l -0.29948,-13.55471 q -0.026,-1.32812 -0.22135,-1.84896 -0.19532,-0.52083 -0.8073,-0.67708 -0.58593,-0.13021 -1.3151,-0.13021 -0.20834,0 -0.20834,-0.18229 0,-0.19531 0.53386,-0.19531 0.71615,0 1.73177,0.0391 1.01563,0.0391 1.04167,0.0391 0.0521,0 0.83334,-0.0391 0.79427,-0.0391 1.43229,-0.0391 0.48177,0 0.48177,0.19531 0,0.18229 -0.29948,0.18229 -0.32552,0 -0.63802,0.0781 -0.63802,0.1302 -0.82031,0.61198 -0.16928,0.48177 -0.16928,1.75781 l -0.0521,15.62502 q 0,0.66406 -0.013,1.04167 -0.013,0.3776 -0.0391,0.55989 -0.026,0.1823 -0.0651,0.23438 -0.0391,0.0521 -0.11718,0.0521 -0.23438,0 -1.95313,-1.70573 -0.15625,-0.15625 -1.25,-1.26302 -1.09375,-1.10677 -2.76042,-2.83855 -1.66667,-1.73177 -2.94272,-3.125 -3.73698,-4.02344 -6.96615,-7.64324 l 0.35156,12.77346 q 0.026,1.6276 0.2474,2.27864 0.23437,0.65105 0.79427,0.8073 0.61198,0.15625 1.32813,0.15625 0.20833,0 0.20833,0.16927 0,0.20833 -0.46875,0.20833 -0.66406,0 -1.32813,-0.013 -0.65104,-0.013 -1.05469,-0.0391 -0.39062,-0.026 -0.4427,-0.026 l -0.91146,0.0521 q -0.9375,0.026 -1.65365,0.026 -0.42969,0 -0.42969,-0.20833 z"
       style="font-style:normal;font-variant:normal;font-weight:normal;font-stretch:normal;font-size:26.6667px;line-height:0%;font-family:'Trajan Pro';-inkscape-font-specification:'Trajan Pro';letter-spacing:0px;fill:#1d4f91;fill-opacity:1"
       id="path109" />
    <path
       d="m 410.12474,514.62762 q 0,-1.67969 0.6901,-3.67188 0.70313,-2.00521 2.29167,-3.60677 2.85157,-2.85157 8.13803,-2.85157 2.13542,0 3.8672,0.32552 1.88802,0.35157 2.72135,0.39063 0.35157,0.026 0.35157,0.29948 0,0.0781 -0.0391,0.26041 -0.026,0.16928 -0.0521,0.50782 -0.026,0.32552 -0.0521,0.72917 -0.026,0.48177 -0.0521,1.53646 -0.026,1.04166 -0.026,1.21093 -0.026,0.5599 -0.24739,0.5599 -0.20834,0 -0.20834,-0.5599 0,-1.75781 -1.11979,-2.72135 -0.74219,-0.63802 -2.20052,-1.08073 -1.44532,-0.44271 -3.12501,-0.44271 -4.12761,0 -6.13282,1.95312 -1.35417,1.30209 -1.88802,2.9948 -0.52084,1.69271 -0.52084,3.95834 0,3.94532 2.73438,6.86199 2.73438,2.90365 6.90105,2.90365 3.33334,0 4.63543,-1.34115 0.74218,-0.76823 0.98958,-2.23959 0.0781,-0.40364 0.26042,-0.40364 0.19531,0 0.19531,0.40364 0,0.20834 -0.20833,1.52344 -0.19532,1.30209 -0.37761,1.88803 -0.10417,0.3776 -0.22135,0.49479 -0.10417,0.11718 -0.48177,0.28646 -1.52344,0.61198 -4.79168,0.61198 -5.59896,0 -8.80209,-2.87761 -3.22917,-2.91667 -3.22917,-7.90366 z"
       style="font-style:normal;font-variant:normal;font-weight:normal;font-stretch:normal;font-size:26.6667px;line-height:0%;font-family:'Trajan Pro';-inkscape-font-specification:'Trajan Pro';letter-spacing:0px;fill:#1d4f91;fill-opacity:1"
       id="path111" />
    <path
       d="m 432.29923,505.08334 q 0,-0.20833 0.42969,-0.20833 1.32812,0 1.92708,0.026 l 1.09375,0.0521 q 5.4948,0 6.10678,-0.026 0.76823,-0.0521 1.14584,-0.13021 0.0521,0 0.16927,-0.0651 0.11719,-0.0781 0.19531,-0.0781 0.10417,0 0.10417,0.2474 0,0.0781 -0.0391,0.23437 -0.0391,0.14323 -0.0911,0.42969 -0.0521,0.27344 -0.0781,0.58594 0,0.0521 -0.0521,0.82031 -0.0521,0.75521 -0.0781,0.9375 -0.0521,0.29948 -0.18229,0.29948 -0.20833,0 -0.22135,-0.35156 0,-0.58594 -0.15625,-0.95052 -0.15625,-0.37761 -0.53386,-0.58594 -0.3776,-0.22135 -1.36719,-0.32552 -0.66406,-0.0781 -3.64583,-0.0781 -0.15625,0 -0.15625,0.26042 v 7.35678 q 0,0.26042 0.15625,0.27344 3.63281,0 4.23177,-0.0521 0.98959,-0.0781 1.26302,-0.37761 0.29948,-0.35156 0.39063,-0.33854 0.13021,0 0.14323,0.20833 0,0.0521 -0.0391,0.2474 -0.0391,0.18229 -0.10417,0.53385 -0.0521,0.33855 -0.0781,0.71615 -0.10417,1.06771 -0.10417,1.70573 0,0.50781 -0.19531,0.50781 -0.1823,0 -0.1823,-0.24739 0,-0.53386 -0.10416,-0.8724 -0.23438,-0.82031 -1.38021,-0.9375 -1.19792,-0.13021 -3.81511,-0.13021 -0.18229,0 -0.18229,0.18229 v 2.34376 4.55729 q 0.0521,1.38021 0.59896,1.78386 0.54687,0.40365 2.48698,0.40365 1.86198,0 2.5651,-0.28646 0.93751,-0.40365 1.19792,-1.92709 0.0781,-0.40364 0.23438,-0.39062 0.16927,0 0.16927,0.39062 0,0.18229 -0.14323,1.19792 -0.13021,1.01563 -0.20833,1.39323 -0.13021,0.50781 -0.37761,0.59896 -0.23437,0.0911 -1.06771,0.0911 -1.38021,0 -4.50521,-0.0781 -1.54948,-0.0781 -2.07032,-0.0781 -0.50781,0 -1.06771,0.026 -0.29948,0 -0.83333,0.026 -0.53386,0.026 -0.71615,0.026 -0.42969,0 -0.42969,-0.20833 0,-0.15625 0.20834,-0.16927 0.32552,0 0.80729,-0.10417 0.58594,-0.10417 0.76823,-1.45834 0.13021,-1.11979 0.14323,-5.79427 v -4.68751 q 0,-4.90886 -0.0651,-5.76824 -0.0521,-0.71614 -0.27344,-1.04166 -0.22136,-0.33855 -0.8724,-0.46875 -0.32552,-0.0781 -0.89844,-0.0781 -0.22135,-0.013 -0.22135,-0.16927 z"
       style="font-style:normal;font-variant:normal;font-weight:normal;font-stretch:normal;font-size:26.6667px;line-height:0%;font-family:'Trajan Pro';-inkscape-font-specification:'Trajan Pro';letter-spacing:0px;fill:#1d4f91;fill-opacity:1"
       id="path113" />
    <path
       d="m 448.56229,505.08334 q 0,-0.20833 0.42969,-0.20833 0.53385,0 1.25,0.013 0.72917,0.013 1.23698,0.0391 0.50781,0.026 0.53385,0.026 0.0781,0 1.36719,-0.0391 1.28907,-0.0391 1.77084,-0.0391 3.25521,0 4.88282,1.17187 0.66406,0.48177 1.25,1.44532 0.58594,0.95052 0.58594,2.17448 0,3.17709 -3.21615,6.17188 4.2448,5.44272 5.53386,6.82293 1.57552,1.65364 3.25521,1.91406 0.50781,0.0781 1.04167,0.0781 0.23437,0 0.2474,0.16927 0,0.20833 -0.63803,0.20833 h -1.90104 q -1.91406,0 -2.85157,-0.50781 -0.53385,-0.29948 -1.18489,-0.96354 -0.65105,-0.66407 -0.97657,-1.06771 -0.32552,-0.41667 -1.44531,-1.88803 -0.61198,-0.82031 -1.65365,-2.23958 -1.02865,-1.4323 -1.25,-1.70574 -0.15625,-0.15625 -0.33854,-0.15625 l -3.28126,-0.0521 q -0.18229,0 -0.19531,0.20833 v 0.63803 q 0,4.66146 0.14323,5.79427 0.0781,0.66407 0.27344,1.02865 0.19531,0.35156 0.75521,0.42969 0.74218,0.10417 1.21094,0.10417 0.20833,0 0.20833,0.16927 0,0.20833 -0.42969,0.20833 -0.63802,0 -1.43229,-0.013 -0.78125,-0.013 -1.30209,-0.0391 -0.52083,-0.026 -0.54687,-0.026 h -0.18229 q -0.1823,0.026 -0.48178,0.026 -0.28646,0 -0.61198,0.013 -0.32552,0.013 -0.67708,0.026 -0.33854,0.013 -0.54688,0.013 -0.42968,0 -0.42968,-0.20833 0,-0.15625 0.20833,-0.16927 0.32552,0 0.80729,-0.10417 0.58594,-0.10417 0.76823,-1.45834 0.13021,-1.11979 0.14323,-5.79427 v -4.68751 q 0,-4.90886 -0.0651,-5.76824 -0.0521,-0.71614 -0.27344,-1.04166 -0.22135,-0.33855 -0.8724,-0.46875 -0.32552,-0.0781 -0.89844,-0.0781 -0.22135,-0.013 -0.22135,-0.16927 z m 4.45313,9.84376 q 0,0.20834 0.19531,0.32552 0.71615,0.42969 2.79949,0.41667 1.27604,0 1.99219,-0.50781 1.6276,-1.1198 1.6276,-4.10157 0,-2.51302 -1.23698,-3.91928 -1.23698,-1.41927 -3.3724,-1.41927 -1.25,0 -1.78386,0.16927 -0.20833,0.0781 -0.22135,0.3125 z"
       style="font-style:normal;font-variant:normal;font-weight:normal;font-stretch:normal;font-size:26.6667px;line-height:0%;font-family:'Trajan Pro';-inkscape-font-specification:'Trajan Pro';letter-spacing:0px;fill:#1d4f91;fill-opacity:1"
       id="path115" />
    <path
       d="m 476.6092,514.95314 q 0,-3.00781 1.25001,-5.27344 1.26302,-2.27865 3.20312,-3.50261 2.69532,-1.67969 7.09637,-1.67969 1.91406,0 4.07552,0.45573 0.91146,0.20833 2.16147,0.26042 0.32552,0.026 0.32552,0.24739 0,0.0781 -0.0391,0.4948 -0.0391,0.41666 -0.10416,1.27604 -0.0521,0.84635 -0.0521,2.01823 0,0.5599 -0.23437,0.5599 -0.13021,0 -0.18229,-0.40365 -0.0781,-0.98958 -0.5599,-1.75781 -0.5599,-0.85938 -2.21354,-1.51042 -1.65365,-0.65104 -4.06251,-0.65104 -3.46355,0 -5.70313,1.75781 -1.19792,0.96354 -1.92709,2.73438 -0.71614,1.77083 -0.71614,4.03646 0,2.47396 0.92448,4.45313 0.92448,1.97917 1.90104,2.94272 2.92969,2.85156 6.9922,2.85156 2.08333,0 3.03385,-0.5599 0.53386,-0.29947 0.53386,-0.9375 v -4.53125 q 0,-1.62761 -0.19531,-2.08334 -0.19532,-0.45573 -1.00261,-0.66406 -0.32552,-0.0781 -0.89844,-0.0781 -0.20833,0 -0.22135,-0.15625 0,-0.20833 0.42969,-0.22135 0.53385,0 1.25,0.026 0.71614,0.026 1.22396,0.0391 0.50781,0.013 0.53385,0.013 0.026,0 0.52084,-0.013 0.49479,-0.013 1.11979,-0.0391 0.625,-0.026 0.97656,-0.026 0.42969,0 0.42969,0.22135 0,0.15625 -0.22135,0.15625 -0.1823,0 -0.66407,0.0781 -0.53385,0.10417 -0.72916,0.45573 -0.19532,0.33854 -0.26042,1.06771 -0.0521,0.85937 -0.0521,2.77344 v 2.98177 q 0,0.88542 -0.0521,1.09375 -0.0521,0.20834 -0.28646,0.35157 -2.26562,1.19792 -5.65105,1.19792 -5.52084,0 -8.77605,-2.85157 -1.32813,-1.14583 -2.25261,-3.20313 -0.92448,-2.05729 -0.92448,-4.40105 z"
       style="font-style:normal;font-variant:normal;font-weight:normal;font-stretch:normal;font-size:26.6667px;line-height:0%;font-family:'Trajan Pro';-inkscape-font-specification:'Trajan Pro';letter-spacing:0px;fill:#1d4f91;fill-opacity:1"
       id="path117" />
    <path
       d="m 500.30713,505.08334 q 0,-0.20833 0.42969,-0.20833 1.32813,0 1.92709,0.026 l 1.09375,0.0521 q 5.4948,0 6.10678,-0.026 0.76823,-0.0521 1.14583,-0.13021 0.0521,0 0.16927,-0.0651 0.11719,-0.0781 0.19531,-0.0781 0.10417,0 0.10417,0.2474 0,0.0781 -0.0391,0.23437 -0.0391,0.14323 -0.0911,0.42969 -0.0521,0.27344 -0.0781,0.58594 0,0.0521 -0.0521,0.82031 -0.0521,0.75521 -0.0781,0.9375 -0.0521,0.29948 -0.18229,0.29948 -0.20834,0 -0.22136,-0.35156 0,-0.58594 -0.15625,-0.95052 -0.15625,-0.37761 -0.53385,-0.58594 -0.37761,-0.22135 -1.36719,-0.32552 -0.66406,-0.0781 -3.64584,-0.0781 -0.15625,0 -0.15625,0.26042 v 7.35678 q 0,0.26042 0.15625,0.27344 3.63282,0 4.23178,-0.0521 0.98958,-0.0781 1.26302,-0.37761 0.29948,-0.35156 0.39062,-0.33854 0.13021,0 0.14323,0.20833 0,0.0521 -0.0391,0.2474 -0.0391,0.18229 -0.10417,0.53385 -0.0521,0.33855 -0.0781,0.71615 -0.10417,1.06771 -0.10417,1.70573 0,0.50781 -0.19531,0.50781 -0.18229,0 -0.18229,-0.24739 0,-0.53386 -0.10417,-0.8724 -0.23437,-0.82031 -1.38021,-0.9375 -1.19792,-0.13021 -3.81511,-0.13021 -0.18229,0 -0.18229,0.18229 v 2.34376 4.55729 q 0.0521,1.38021 0.59896,1.78386 0.54688,0.40365 2.48698,0.40365 1.86198,0 2.56511,-0.28646 0.9375,-0.40365 1.19792,-1.92709 0.0781,-0.40364 0.23437,-0.39062 0.16927,0 0.16927,0.39062 0,0.18229 -0.14323,1.19792 -0.1302,1.01563 -0.20833,1.39323 -0.13021,0.50781 -0.3776,0.59896 -0.23438,0.0911 -1.06771,0.0911 -1.38021,0 -4.50522,-0.0781 -1.54948,-0.0781 -2.07031,-0.0781 -0.50782,0 -1.06771,0.026 -0.29948,0 -0.83334,0.026 -0.53385,0.026 -0.71614,0.026 -0.42969,0 -0.42969,-0.20833 0,-0.15625 0.20833,-0.16927 0.32552,0 0.80729,-0.10417 0.58594,-0.10417 0.76823,-1.45834 0.13021,-1.11979 0.14323,-5.79427 v -4.68751 q 0,-4.90886 -0.0651,-5.76824 -0.0521,-0.71614 -0.27344,-1.04166 -0.22135,-0.33855 -0.87239,-0.46875 -0.32553,-0.0781 -0.89844,-0.0781 -0.22136,-0.013 -0.22136,-0.16927 z"
       style="font-style:normal;font-variant:normal;font-weight:normal;font-stretch:normal;font-size:26.6667px;line-height:0%;font-family:'Trajan Pro';-inkscape-font-specification:'Trajan Pro';letter-spacing:0px;fill:#1d4f91;fill-opacity:1"
       id="path119" />
    <path
       d="m 515.9061,524.82295 q 0,-0.15625 0.22135,-0.16927 0.61198,0 1.09376,-0.15625 0.48177,-0.13021 0.63802,-0.82032 0.15625,-0.70312 0.15625,-2.5651 l 0.026,-15.27346 q 0,-1.32813 0.29948,-1.34115 0.10417,0 0.24739,0.14323 0.14323,0.13021 0.37761,0.40365 0.2474,0.26041 0.29948,0.3125 0.98958,1.11979 8.47657,9.14063 1.38021,1.4974 3.6849,4.03647 2.31771,2.52604 2.72136,2.92969 l -0.29948,-13.55471 q -0.026,-1.32812 -0.22135,-1.84896 -0.19532,-0.52083 -0.8073,-0.67708 -0.58593,-0.13021 -1.3151,-0.13021 -0.20834,0 -0.20834,-0.18229 0,-0.19531 0.53386,-0.19531 0.71615,0 1.73177,0.0391 1.01563,0.0391 1.04167,0.0391 0.0521,0 0.83333,-0.0391 0.79428,-0.0391 1.4323,-0.0391 0.48177,0 0.48177,0.19531 0,0.18229 -0.29948,0.18229 -0.32552,0 -0.63802,0.0781 -0.63802,0.1302 -0.82032,0.61198 -0.16927,0.48177 -0.16927,1.75781 l -0.0521,15.62502 q 0,0.66406 -0.013,1.04167 -0.013,0.3776 -0.0391,0.55989 -0.0261,0.1823 -0.0651,0.23438 -0.0391,0.0521 -0.11719,0.0521 -0.23437,0 -1.95312,-1.70573 -0.15625,-0.15625 -1.25,-1.26302 -1.09376,-1.10677 -2.76042,-2.83855 -1.66667,-1.73177 -2.94272,-3.125 -3.73698,-4.02344 -6.96615,-7.64324 l 0.35156,12.77346 q 0.026,1.6276 0.2474,2.27864 0.23437,0.65105 0.79427,0.8073 0.61198,0.15625 1.32813,0.15625 0.20833,0 0.20833,0.16927 0,0.20833 -0.46875,0.20833 -0.66406,0 -1.32813,-0.013 -0.65104,-0.013 -1.05469,-0.0391 -0.39062,-0.026 -0.4427,-0.026 l -0.91146,0.0521 q -0.93751,0.026 -1.65365,0.026 -0.42969,0 -0.42969,-0.20833 z"
       style="font-style:normal;font-variant:normal;font-weight:normal;font-stretch:normal;font-size:26.6667px;line-height:0%;font-family:'Trajan Pro';-inkscape-font-specification:'Trajan Pro';letter-spacing:0px;fill:#1d4f91;fill-opacity:1"
       id="path121" />
    <path
       d="m 541.8176,505.08334 q 0,-0.20833 0.42969,-0.20833 1.32812,0 1.92708,0.026 l 1.09375,0.0521 q 5.4948,0 6.10678,-0.026 0.76823,-0.0521 1.14584,-0.13021 0.0521,0 0.16927,-0.0651 0.11719,-0.0781 0.19531,-0.0781 0.10417,0 0.10417,0.2474 0,0.0781 -0.0391,0.23437 -0.0391,0.14323 -0.0911,0.42969 -0.0521,0.27344 -0.0781,0.58594 0,0.0521 -0.0521,0.82031 -0.0521,0.75521 -0.0781,0.9375 -0.0521,0.29948 -0.1823,0.29948 -0.20833,0 -0.22135,-0.35156 0,-0.58594 -0.15625,-0.95052 -0.15625,-0.37761 -0.53385,-0.58594 -0.37761,-0.22135 -1.36719,-0.32552 -0.66407,-0.0781 -3.64584,-0.0781 -0.15625,0 -0.15625,0.26042 v 7.35678 q 0,0.26042 0.15625,0.27344 3.63282,0 4.23177,-0.0521 0.98959,-0.0781 1.26303,-0.37761 0.29948,-0.35156 0.39062,-0.33854 0.13021,0 0.14323,0.20833 0,0.0521 -0.0391,0.2474 -0.0391,0.18229 -0.10417,0.53385 -0.0521,0.33855 -0.0781,0.71615 -0.10417,1.06771 -0.10417,1.70573 0,0.50781 -0.19531,0.50781 -0.18229,0 -0.18229,-0.24739 0,-0.53386 -0.10417,-0.8724 -0.23438,-0.82031 -1.38021,-0.9375 -1.19792,-0.13021 -3.81511,-0.13021 -0.18229,0 -0.18229,0.18229 v 2.34376 4.55729 q 0.0521,1.38021 0.59896,1.78386 0.54687,0.40365 2.48698,0.40365 1.86198,0 2.56511,-0.28646 0.9375,-0.40365 1.19791,-1.92709 0.0781,-0.40364 0.23438,-0.39062 0.16927,0 0.16927,0.39062 0,0.18229 -0.14323,1.19792 -0.13021,1.01563 -0.20833,1.39323 -0.13021,0.50781 -0.37761,0.59896 -0.23437,0.0911 -1.06771,0.0911 -1.38021,0 -4.50521,-0.0781 -1.54948,-0.0781 -2.07032,-0.0781 -0.50781,0 -1.0677,0.026 -0.29948,0 -0.83334,0.026 -0.53385,0.026 -0.71615,0.026 -0.42968,0 -0.42968,-0.20833 0,-0.15625 0.20833,-0.16927 0.32552,0 0.80729,-0.10417 0.58594,-0.10417 0.76823,-1.45834 0.13021,-1.11979 0.14323,-5.79427 v -4.68751 q 0,-4.90886 -0.0651,-5.76824 -0.0521,-0.71614 -0.27344,-1.04166 -0.22135,-0.33855 -0.8724,-0.46875 -0.32552,-0.0781 -0.89844,-0.0781 -0.22135,-0.013 -0.22135,-0.16927 z"
       style="font-style:normal;font-variant:normal;font-weight:normal;font-stretch:normal;font-size:26.6667px;line-height:0%;font-family:'Trajan Pro';-inkscape-font-specification:'Trajan Pro';letter-spacing:0px;fill:#1d4f91;fill-opacity:1"
       id="path123" />
    <path
       d="m 556.32282,507.77866 q 0,-0.42969 0.58593,-2.77345 0.15625,-0.50781 0.27344,-0.50781 0.0521,0 0.39063,0.15625 0.35156,0.14323 0.78125,0.16927 1.27604,0.13021 2.10938,0.13021 h 10.00001 q 1.17188,0 1.88802,-0.13021 0.15625,-0.026 0.32552,-0.0521 0.1823,-0.026 0.27344,-0.0521 0.0912,-0.026 0.14323,-0.026 0.13021,0 0.14323,0.3125 0,0.45573 -0.0521,1.65365 -0.0391,1.19792 -0.0391,1.27605 0,0.35156 -0.18229,0.35156 -0.18229,0 -0.20833,-0.45573 l -0.026,-0.28646 q -0.13021,-1.41927 -3.28126,-1.47136 l -3.35938,-0.0521 v 11.27606 q 0,4.66146 0.13021,5.79427 0.0781,0.66407 0.27344,1.02865 0.20833,0.35156 0.76823,0.42969 0.74219,0.10417 1.19792,0.10417 0.20833,0 0.20833,0.16927 0,0.20833 -0.41667,0.20833 -0.63802,0 -1.43229,-0.013 -0.78125,-0.013 -1.30208,-0.0391 -0.52084,-0.026 -0.54688,-0.026 -0.026,0 -0.52083,0.026 -0.4948,0.026 -1.1198,0.0391 -0.625,0.013 -0.97656,0.013 -0.42969,0 -0.42969,-0.20833 0,-0.15625 0.22136,-0.16927 0.32552,0 0.79427,-0.10417 0.58594,-0.10417 0.76823,-1.45834 0.13021,-1.11979 0.14323,-5.79427 v -11.27606 l -3.94532,0.0521 q -1.25,0.026 -1.83594,0.20834 -0.57292,0.16927 -0.88542,0.65104 -0.29948,0.45573 -0.45573,0.82031 -0.10416,0.26042 -0.27344,0.27344 -0.1302,-0.013 -0.1302,-0.24739 z"
       style="font-style:normal;font-variant:normal;font-weight:normal;font-stretch:normal;font-size:26.6667px;line-height:0%;font-family:'Trajan Pro';-inkscape-font-specification:'Trajan Pro';letter-spacing:0px;fill:#1d4f91;fill-opacity:1"
       id="path125" />
    <path
       d="m 576.83068,505.08334 q 0,-0.20833 0.42969,-0.20833 0.40365,0 1.04167,0.013 0.63802,0.013 1.13281,0.0391 0.49479,0.026 0.52084,0.026 0.026,0 0.50781,-0.026 0.49479,-0.026 1.11979,-0.0391 0.63802,-0.013 0.97657,-0.013 0.42968,0 0.42968,0.20833 0,0.15625 -0.20833,0.16927 -0.18229,0 -0.67708,0.0781 -0.53386,0.10416 -0.72917,0.45573 -0.19531,0.33854 -0.2474,1.05468 -0.0521,0.85938 -0.0521,5.76824 v 4.68751 q 0,4.66146 0.13021,5.79427 0.0781,0.66407 0.27344,1.02865 0.20833,0.35156 0.76823,0.42969 0.74218,0.10417 1.19791,0.10417 0.20834,0 0.20834,0.16927 0,0.20833 -0.42969,0.20833 -0.63802,0 -1.43229,-0.013 -0.78126,-0.013 -1.30209,-0.0391 -0.50781,-0.026 -0.53385,-0.026 -0.0261,0 -0.52084,0.026 -0.49479,0.026 -1.13281,0.0391 -0.625,0.013 -0.96355,0.013 -0.42968,0 -0.42968,-0.20833 0,-0.15625 0.20833,-0.16927 0.32552,0 0.80729,-0.10417 0.58594,-0.10417 0.76823,-1.45834 0.13021,-1.11979 0.14323,-5.79427 v -4.68751 q 0,-4.90886 -0.0651,-5.76824 -0.0781,-1.30208 -0.89844,-1.48437 -0.40365,-0.10417 -0.83333,-0.10417 -0.20834,-0.013 -0.20834,-0.16927 z"
       style="font-style:normal;font-variant:normal;font-weight:normal;font-stretch:normal;font-size:26.6667px;line-height:0%;font-family:'Trajan Pro';-inkscape-font-specification:'Trajan Pro';letter-spacing:0px;fill:#1d4f91;fill-opacity:1"
       id="path127" />
    <path
       d="m 587.11714,514.62762 q 0,-1.67969 0.6901,-3.67188 0.70313,-2.00521 2.29167,-3.60677 2.85157,-2.85157 8.13803,-2.85157 2.13542,0 3.8672,0.32552 1.88802,0.35157 2.72135,0.39063 0.35157,0.026 0.35157,0.29948 0,0.0781 -0.0391,0.26041 -0.026,0.16928 -0.0521,0.50782 -0.026,0.32552 -0.0521,0.72917 -0.026,0.48177 -0.0521,1.53646 -0.026,1.04166 -0.026,1.21093 -0.026,0.5599 -0.24739,0.5599 -0.20834,0 -0.20834,-0.5599 0,-1.75781 -1.11979,-2.72135 -0.74219,-0.63802 -2.20052,-1.08073 -1.44532,-0.44271 -3.12501,-0.44271 -4.12761,0 -6.13282,1.95312 -1.35417,1.30209 -1.88802,2.9948 -0.52083,1.69271 -0.52083,3.95834 0,3.94532 2.73437,6.86199 2.73438,2.90365 6.90105,2.90365 3.33334,0 4.63543,-1.34115 0.74218,-0.76823 0.98958,-2.23959 0.0781,-0.40364 0.26042,-0.40364 0.19531,0 0.19531,0.40364 0,0.20834 -0.20833,1.52344 -0.19532,1.30209 -0.37761,1.88803 -0.10416,0.3776 -0.22135,0.49479 -0.10417,0.11718 -0.48177,0.28646 -1.52344,0.61198 -4.79168,0.61198 -5.59896,0 -8.80209,-2.87761 -3.22917,-2.91667 -3.22917,-7.90366 z"
       style="font-style:normal;font-variant:normal;font-weight:normal;font-stretch:normal;font-size:26.6667px;line-height:0%;font-family:'Trajan Pro';-inkscape-font-specification:'Trajan Pro';letter-spacing:0px;fill:#1d4f91;fill-opacity:1"
       id="path129" />
    <path
       d="m 609.51301,523.67711 q 0,-0.6901 0.13021,-2.82552 0.026,-0.42969 0.20834,-0.42969 0.19531,0 0.19531,0.28646 0,0.61198 0.0781,0.98958 0.29948,1.38021 1.38021,2.0573 1.09376,0.66406 2.56511,0.66406 1.8099,0 2.8125,-1.06771 1.00261,-1.06771 1.00261,-2.47396 0,-1.35417 -0.66406,-2.34375 -0.65105,-0.98959 -2.40886,-2.46094 l -1.19792,-0.98959 q -2.00521,-1.6276 -2.73438,-2.95573 -0.72916,-1.32813 -0.72916,-2.82553 0,-2.16146 1.48437,-3.47656 1.4974,-1.32813 4.03647,-1.32813 1.35416,0 2.47396,0.27344 0.63802,0.13021 0.9375,0.13021 0.26042,0 0.26042,0.18229 l -0.026,0.35156 q -0.026,0.35157 -0.0521,1.01563 -0.026,0.66406 -0.026,1.45833 0,0.61198 -0.18229,0.61198 -0.15625,0 -0.20834,-0.33854 -0.0781,-0.82031 -0.35156,-1.34115 -0.76823,-1.41927 -3.33334,-1.40625 -1.41927,0 -2.35677,0.84636 -0.92448,0.83333 -0.92448,2.23958 0,1.14584 0.66406,2.07032 0.66407,0.92448 2.59115,2.40886 l 0.74219,0.59896 q 2.26563,1.78385 3.07292,3.17708 0.82031,1.38021 0.82031,3.08594 0,1.06771 -0.52083,2.30469 -0.52083,1.23699 -1.74479,2.1224 -1.60157,1.1198 -4.02345,1.1198 -2.10937,0 -3.58073,-0.71615 -0.26042,-0.13021 -0.32552,-0.28646 -0.0651,-0.16927 -0.0651,-0.72917 z"
       style="font-style:normal;font-variant:normal;font-weight:normal;font-stretch:normal;font-size:26.6667px;line-height:0%;font-family:'Trajan Pro';-inkscape-font-specification:'Trajan Pro';letter-spacing:0px;fill:#1d4f91;fill-opacity:1"
       id="path131" />
  </g>
  <path
     id="path90-3-4"
     d="m 39.369708,28.13216 c -2.023437,3.48829 -4.003906,6.85547 -6.484374,6.85547 -0.707031,0 -1.968749,-0.67187 -1.480469,-2.52734 l 2.335939,-2.35938 c 0.160155,-0.17968 0.28125,-0.38671 0.167967,-0.65234 l -1.476563,-3.125 c -0.08594,-0.18359 -0.249999,-0.17578 -0.42578,0 l -3.124999,3.125 c -0.16797,0.17188 -0.24219,0.40625 -0.132813,0.66016 l 0.98828,2.30859 c -0.382811,1.52734 -1.374998,2.64063 -2.58203,2.55469 -2.238281,-0.14844 -4.054687,-4.40235 -1.359376,-10.41016 0.453126,-1.01172 0.624999,-1.85937 0.578124,-2.59375 5.109377,-2.32422 11.683594,-4.82422 14.183594,-1.66406 1.503906,1.89453 0.800781,4.39844 -1.1875,7.82812 z m -21.695309,6.83985 c -1.203125,0.0859 -2.195314,-1.02735 -2.578126,-2.55469 l 0.984375,-2.30859 c 0.113282,-0.25391 0.03906,-0.48828 -0.128907,-0.66016 l -3.128905,-3.125 c -0.175782,-0.17578 -0.335937,-0.18359 -0.421875,0 l -1.480469,3.125 c -0.113282,0.26563 0.01172,0.47266 0.167968,0.65234 l 2.335939,2.35938 c 0.484374,1.85547 -0.769533,2.52734 -1.480469,2.52734 -2.476563,0 -4.4570311,-3.36718 -6.4843751,-6.85547 -1.98828,-3.42968 -2.687499,-5.93359 -1.1875,-7.82812 2.503906,-3.16016 9.0781241,-0.66016 14.1835941,1.66406 -0.04687,0.73438 0.124999,1.58203 0.578125,2.59375 2.699218,6.00781 0.878905,10.26172 -1.359375,10.41016 z m 8.355466,-15.39844 c -0.371093,0.12109 -0.757811,0.0117 -1.093748,-0.25781 -0.289062,-0.24219 -0.593751,-0.44531 -0.894531,-0.625 0.933594,-0.55469 1.562499,-1.57031 1.562499,-2.73438 0,-1.59375 -1.167969,-2.91015 -2.695312,-3.14843 l 1.171876,-1.51172 c 0.117186,-0.14844 0.117186,-0.39453 0,-0.54297 L 22.627523,8.8782599 c -0.05859,-0.0781 -0.132813,-0.10938 -0.214844,-0.10938 -0.07422,0 -0.152344,0.0312 -0.210937,0.10938 L 20.752523,10.75326 c -0.117187,0.14844 -0.117187,0.39453 0,0.54297 l 1.167969,1.51172 c -1.527343,0.23828 -2.691406,1.55468 -2.691406,3.14843 0,1.16407 0.624999,2.17969 1.5625,2.73438 -0.300781,0.17969 -0.60547,0.38281 -0.898438,0.625 -0.335937,0.26953 -0.718749,0.3789 -1.093749,0.25781 -6.628907,-2.11719 -12.4804691,-4.16016 -15.8046871,-0.90234 -3.98046905,3.91015 0.652344,10.22656 2.11328,12.82422 1.019532,1.82421 1.746094,3.94921 1.746094,5.63671 H 37.975178 c 0,-1.6875 0.726561,-3.8125 1.746093,-5.63671 1.460937,-2.59766 6.097657,-8.91407 2.113281,-12.82422 -3.324219,-3.25782 -9.175781,-1.21485 -15.804687,0.90234 z M 6.8579919,41.9056 H 37.975178 V 39.3431 H 6.8579919 Z"
     style="fill:#1d4f91;fill-opacity:1;fill-rule:nonzero;stroke:none;stroke-width:1" />
  <path
     id="path90-0"
     d="m 78.279865,35.31576 c -0.25781,0 -0.32422,0.12891 -0.42187,0.64844 -0.12891,0.58594 -0.55078,1.53125 -1.10156,2.14453 -1.30469,1.49609 -3.0586,1.82422 -5.95313,1.82422 -4.35547,0 -10.238281,-3.83985 -10.238281,-11.57422 0,-3.15234 0.617187,-6.23828 2.992187,-8.41797 1.429684,-1.30078 3.285154,-2.01562 6.109374,-2.01562 2.98828,0 5.52734,0.8789 6.59766,2.01562 0.8164,0.84375 1.23828,1.98438 1.26953,2.98828 0,0.45703 0.0664,0.71485 0.32422,0.71485 0.29297,0 0.35547,-0.25782 0.39062,-0.7461 0.0664,-0.64844 0.0312,-2.4375 0.0977,-3.51172 0.0625,-1.13672 0.16406,-1.52734 0.16406,-1.78515 0,-0.19532 -0.13281,-0.35547 -0.48828,-0.39453 -0.97656,-0.0937 -2.01562,-0.38672 -3.25,-0.55079 -1.49609,-0.19531 -2.69922,-0.32031 -4.71484,-0.32031 -4.84375,0 -7.929688,1.29688 -10.269532,3.44141 -3.121094,2.85937 -3.808594,6.69531 -3.808594,8.90625 0,3.15234 0.847656,6.79297 4.035156,9.58984 2.957032,2.56641 6.69531,3.54297 11.14844,3.54297 2.08203,0 4.55078,-0.22656 5.84765,-0.75 0.55469,-0.22656 0.6875,-0.38672 0.84766,-0.9375 0.32813,-1.10937 0.71875,-3.9375 0.71875,-4.32812 0,-0.25782 -0.0664,-0.48438 -0.29687,-0.48438"
     style="fill:#1d4f91;fill-opacity:1;fill-rule:nonzero;stroke:none;stroke-width:1" />
</svg>
