<?xml version="1.0" encoding="UTF-8" standalone="no"?>
<svg
   xmlns:dc="http://purl.org/dc/elements/1.1/"
   xmlns:cc="http://creativecommons.org/ns#"
   xmlns:rdf="http://www.w3.org/1999/02/22-rdf-syntax-ns#"
   xmlns:svg="http://www.w3.org/2000/svg"
   xmlns="http://www.w3.org/2000/svg"
   width="137.96896mm"
   height="17mm"
   viewBox="0 0 391.09314 48.188981"
   version="1.2"
   id="svg93">
  <metadata
     id="metadata97">
    <rdf:RDF>
      <cc:Work
         rdf:about="">
        <dc:format>image/svg+xml</dc:format>
        <dc:type
           rdf:resource="http://purl.org/dc/dcmitype/StillImage" />
        <dc:title></dc:title>
      </cc:Work>
    </rdf:RDF>
  </metadata>
  <defs
     id="defs8">
    <clipPath
       id="clip1">
      <path
         d="m 246,782.74219 h 2 V 842 h -2 z m 0,0"
         id="path2" />
    </clipPath>
    <clipPath
       id="clip2">
      <path
         d="m 465,817 h 10.83984 v 10 H 465 Z m 0,0"
         id="path5" />
    </clipPath>
  </defs>
  <g
     transform="matrix(1,0,0,0.76537311,-3.0253164,-597.6725)"
     style="clip-rule:nonzero;fill:#1d4f91;fill-opacity:1"
     id="g12"
     clip-path="url(#clip1)">
    <path
       id="path10"
       d="M 246.66406,782.74219 246.66797,842 h 1.19531 v -59.25781 h -1.19922"
       style="fill:#1d4f91;fill-opacity:1;fill-rule:nonzero;stroke:none" />
  </g>
  <path
     id="path90"
     d="m 222.75252,29.452899 h -5.00391 c -0.10937,0 -0.13672,-0.082 -0.10937,-0.1914 l 2.5039,-6.69141 c 0.0273,-0.10547 0.0781,-0.24219 0.16016,-0.24219 0.082,0 0.10937,0.13672 0.13672,0.24219 l 2.44922,6.71875 c 0.0234,0.082 0,0.16406 -0.13672,0.16406 z m 9.1914,7.96875 c -0.32422,0 -0.73437,-0.0273 -1.14062,-0.10937 -0.57031,-0.13281 -1.35938,-0.51563 -2.39453,-2.96485 -1.74219,-4.13281 -6.09375,-15.22656 -6.7461,-16.72265 -0.26953,-0.625 -0.43359,-0.8711 -0.67578,-0.8711 -0.27344,0 -0.4375,0.29688 -0.76562,1.08594 l -6.82422,17.08203 c -0.54297,1.35547 -1.0625,2.28125 -2.3125,2.44532 -0.21485,0.0273 -0.59766,0.0547 -0.84375,0.0547 -0.21875,0 -0.32813,0.0547 -0.32813,0.21875 0,0.21485 0.16797,0.27344 0.51953,0.27344 1.41407,0 2.91016,-0.082 3.20704,-0.082 0.84765,0 2.01562,0.082 2.88671,0.082 0.29688,0 0.46094,-0.0586 0.46094,-0.27344 0,-0.16406 -0.082,-0.21875 -0.41015,-0.21875 h -0.40625 c -0.84375,0 -1.08985,-0.35156 -1.08985,-0.84375 0,-0.32422 0.13672,-0.97656 0.41016,-1.65625 l 1.46875,-3.89062 c 0.0547,-0.16406 0.10937,-0.21485 0.24219,-0.21485 h 6.0664 c 0.13672,0 0.21875,0.0508 0.27344,0.1875 l 2.17578,5.76563 c 0.13672,0.32422 -0.0547,0.57031 -0.24609,0.625 -0.26953,0.0273 -0.37891,0.082 -0.37891,0.24609 0,0.19141 0.32422,0.19141 0.8125,0.21485 2.17578,0.0586 4.16406,0.0586 5.14063,0.0586 1.00781,0 1.2539,-0.0586 1.2539,-0.27344 0,-0.1914 -0.13672,-0.21875 -0.35547,-0.21875 z m -55.63672,0 c -0.35156,0 -0.89843,-0.0273 -1.6875,-0.27343 -0.8125,-0.24219 -1.08593,-1.03125 -1.33203,-2.7461 l -2.47265,-16.80469 c -0.082,-0.57421 -0.2461,-0.84375 -0.49219,-0.84375 -0.24219,0 -0.40625,0.21485 -0.59766,0.65235 l -7.39843,15.52734 -7.42188,-15.33594 c -0.35156,-0.70703 -0.51562,-0.84375 -0.73437,-0.84375 -0.21875,0 -0.38282,0.2461 -0.46094,0.70704 l -2.69141,17.73437 c -0.13672,0.92188 -0.35547,1.98438 -1.11719,2.14453 -0.40625,0.082 -0.59765,0.082 -0.8164,0.082 -0.27344,0 -0.4336,0.0547 -0.4336,0.19141 0,0.24219 0.21485,0.30078 0.48829,0.30078 0.87109,0 2.17578,-0.0859 2.6914,-0.0859 0.49219,0 1.71485,0.0859 2.85547,0.0859 0.41016,0 0.65234,-0.0586 0.65234,-0.30078 0,-0.13672 -0.1875,-0.19141 -0.40625,-0.19141 -0.27343,0 -0.65234,-0.0273 -1.14453,-0.13672 -0.46093,-0.10546 -0.8125,-0.35156 -0.8125,-0.87109 0,-0.43359 0.0273,-0.78516 0.082,-1.27344 l 1.41407,-10.82422 h 0.10547 c 0.95312,2.03516 2.58593,5.46485 2.83203,6.03516 0.32422,0.76172 2.47656,4.92188 3.125,6.17188 0.4375,0.8164 0.70703,1.36328 0.95312,1.36328 0.2461,0 0.37891,-0.2461 1.00391,-1.52735 l 5.93359,-12.34375 h 0.10547 l 1.63281,11.96485 c 0.10938,0.76172 0.0273,1.11328 -0.13672,1.16797 -0.1875,0.082 -0.30078,0.16406 -0.30078,0.30078 0,0.16406 0.16407,0.24609 0.79297,0.30078 1.08594,0.082 4.83985,0.16406 5.51953,0.16406 0.38282,0 0.70703,-0.082 0.70703,-0.30078 0,-0.16406 -0.1914,-0.19141 -0.4375,-0.19141 z m 11.98829,-0.65234 c -0.625,0 -1.25,-0.0273 -1.98438,-0.32422 -0.86719,-0.35547 -0.94922,-0.81641 -0.94922,-2.61328 v -6.44141 c 0,-0.13672 0.0508,-0.1914 0.16016,-0.1914 0.41015,0 0.68359,0 1.17187,0.0234 1.0586,0.0547 1.6875,0.24219 2.25782,0.65625 2.0664,1.4375 2.63671,3.72266 2.63671,5.40625 0,2.83204 -2.0664,3.48438 -3.29296,3.48438 z m -2.9336,-17.78906 c 0,-0.29688 0.0508,-0.40235 0.24219,-0.46094 0.27344,-0.0547 0.51562,-0.0547 0.89844,-0.0547 2.33984,0 3.40234,2.39453 3.40234,4.21875 0,1.33203 -0.41016,2.3125 -1.11719,2.88281 -0.46093,0.40625 -1.0625,0.51563 -1.96093,0.51563 -0.6211,0 -1.03125,-0.0273 -1.27735,-0.082 -0.10547,-0.0273 -0.1875,-0.082 -0.1875,-0.30078 z m 4.6211,7.21093 c 1.49609,-1.19531 2.77734,-2.53125 2.77734,-4.75781 0,-1.44531 -0.87109,-4.08203 -5.79688,-4.08203 -0.92578,0 -1.98437,0.0781 -3.3164,0.0781 -0.54297,0 -2.25781,-0.0781 -3.69922,-0.0781 -0.40625,0 -0.59766,0.0547 -0.59766,0.24609 0,0.1875 0.16407,0.24219 0.46094,0.24219 0.37891,0 0.84375,0.0274 1.05859,0.0781 0.89844,0.19531 1.11719,0.6289 1.17188,1.55468 0.0547,0.8711 0.0547,1.63282 0.0547,5.76563 v 4.78906 c 0,2.5 0,4.65235 -0.13672,5.78906 -0.10938,0.78907 -0.24219,1.38672 -0.78516,1.4961 -0.24609,0.0547 -0.57422,0.10937 -0.98437,0.10937 -0.32422,0 -0.4336,0.082 -0.4336,0.21875 0,0.19141 0.19141,0.27344 0.54297,0.27344 1.08985,0 2.80469,-0.082 3.42969,-0.082 0.81641,0 3.28906,0.16016 3.94141,0.16016 5.00781,0 7.26171,-3.01563 7.26171,-5.92969 0,-3.17969 -2.71875,-5.10938 -4.94921,-5.8711 z m -67.30078,7.47657 c -0.21875,0 -0.26954,0.16406 -0.30079,0.41015 -0.0547,0.51563 -0.3789,1.27735 -0.70312,1.62891 -0.68359,0.73828 -1.74609,0.76172 -3.1875,0.76172 -2.12109,0 -2.82422,-0.19141 -3.28906,-0.59766 -0.57032,-0.48828 -0.57032,-2.36328 -0.57032,-5.84765 v -4.78516 c 0,-4.13281 0,-4.89453 0.0547,-5.76563 0.0547,-0.95312 0.26953,-1.41406 1.00391,-1.55078 0.32812,-0.0508 0.76172,-0.0781 1.0625,-0.0781 0.32812,0 0.48828,-0.0586 0.48828,-0.2461 0,-0.1914 -0.1875,-0.24609 -0.57031,-0.24609 -1.0625,0 -3.04688,0.0859 -3.69922,0.0859 -0.73438,0 -2.44922,-0.0859 -3.72656,-0.0859 -0.40625,0 -0.59766,0.0547 -0.59766,0.24609 0,0.1875 0.16406,0.2461 0.46094,0.2461 0.35547,0 0.67968,0.0273 0.89843,0.0781 0.89844,0.1875 1.11719,0.625 1.17188,1.55078 0.0547,0.8711 0.0547,1.63282 0.0547,5.76563 v 4.78516 c 0,2.5039 0,4.65625 -0.13672,5.79296 -0.10938,0.78907 -0.2461,1.38672 -0.78906,1.4961 -0.2461,0.0547 -0.57422,0.10937 -0.98047,0.10937 -0.32422,0 -0.4336,0.082 -0.4336,0.21875 0,0.1875 0.19141,0.27344 0.54297,0.27344 1.08594,0 2.80078,-0.0859 3.42969,-0.0859 2.20312,0 3.99609,0.16407 7.91016,0.16407 1.41406,0 1.55078,-0.13672 1.71484,-0.73438 0.21875,-0.78906 0.40625,-2.82812 0.40625,-3.125 0,-0.32812 -0.0234,-0.46484 -0.21484,-0.46484 z m 84.55859,3.7539 c -0.41016,0 -1.00391,-0.0547 -1.38672,-0.10937 -0.81641,-0.10938 -1.00391,-0.59766 -1.08984,-1.33203 -0.10938,-1.16797 -0.10938,-3.32032 -0.10938,-5.95703 v -4.78516 c 0,-4.13281 0,-4.89453 0.0547,-5.76563 0.0547,-0.95312 0.27344,-1.41406 1.00781,-1.55468 0.32813,-0.0508 0.54297,-0.0781 0.81641,-0.0781 0.27343,0 0.43359,-0.0547 0.43359,-0.27344 0,-0.16015 -0.21484,-0.21484 -0.57031,-0.21484 -1.03516,0 -2.64063,0.082 -3.31641,0.082 -0.79297,0 -2.5039,-0.082 -3.53906,-0.082 -0.43359,0 -0.65234,0.0547 -0.65234,0.21484 0,0.21875 0.16406,0.27344 0.4375,0.27344 0.32421,0 0.67968,0.0274 0.97656,0.10938 0.60156,0.13672 0.87109,0.59765 0.92578,1.52343 0.0547,0.8711 0.0547,1.63282 0.0547,5.76563 v 4.78516 c 0,2.63671 0,4.78906 -0.13672,5.92968 -0.082,0.78907 -0.24219,1.25 -0.78906,1.35938 -0.24219,0.0547 -0.57032,0.10937 -0.97657,0.10937 -0.32812,0 -0.43359,0.082 -0.43359,0.21875 0,0.1875 0.1875,0.27344 0.54297,0.27344 1.08594,0 2.79687,-0.0859 3.42578,-0.0859 0.73437,0 2.44531,0.0859 4.24219,0.0859 0.29687,0 0.51953,-0.0859 0.51953,-0.27344 0,-0.13672 -0.14063,-0.21875 -0.4375,-0.21875 z m -60.63281,-20.07031 c -1.0625,0 -2.77735,0.082 -3.10157,0.082 -0.0273,0 -1.73828,-0.082 -3.125,-0.082 -0.38281,0 -0.57031,0.0547 -0.57031,0.24609 0,0.1875 0.16016,0.24219 0.45703,0.24219 0.30078,0 0.76172,0.0274 0.98438,0.0781 0.89453,0.1914 1.11328,0.6289 1.16797,1.55468 0.0508,0.8711 0.0508,1.63282 0.0508,5.76563 v 3.39844 c 0,2.80468 -0.0781,5.2539 -1.57813,6.74609 -1.08203,1.08594 -2.55469,1.46875 -3.75,1.46875 -0.92578,0 -2.17578,-0.10937 -3.40234,-1.11719 -1.32813,-1.08593 -2.1211,-2.74609 -2.1211,-6.6875 v -3.80859 c 0,-4.13281 0,-4.89453 0.0547,-5.76563 0.0586,-0.95312 0.27344,-1.41406 1.00781,-1.55468 0.32813,-0.0508 0.49219,-0.0781 0.78907,-0.0781 0.26953,0 0.43359,-0.0547 0.43359,-0.24219 0,-0.1914 -0.1875,-0.24609 -0.59766,-0.24609 -0.97656,0 -2.6914,0.082 -3.34375,0.082 -0.8164,0 -2.53124,-0.082 -3.97265,-0.082 -0.40625,0 -0.59766,0.0547 -0.59766,0.24609 0,0.1875 0.16407,0.24219 0.46094,0.24219 0.38281,0 0.84766,0.0274 1.0625,0.0781 0.89844,0.1914 1.11719,0.6289 1.16797,1.55468 0.0547,0.8711 0.0547,1.63282 0.0547,5.76563 v 3.96875 c 0,3.94531 1.03515,5.95703 2.42187,7.20703 1.98438,1.79688 4.59375,1.87891 6.03906,1.87891 1.76563,0 3.72657,-0.30078 5.65625,-1.95703 2.28516,-1.96094 2.58594,-5.16797 2.58594,-8.1875 v -2.91016 c 0,-4.13281 0,-4.89453 0.0508,-5.76563 0.0547,-0.95312 0.27344,-1.41406 1.00781,-1.55468 0.32422,-0.0508 0.48829,-0.0781 0.78907,-0.0781 0.32422,0 0.48828,-0.0547 0.48828,-0.24219 0,-0.1914 -0.19141,-0.24609 -0.57031,-0.24609 z m -51.835943,19.58203 c -5.222665,0 -8.347665,-4.48828 -8.347665,-10.14453 0,-6.77344 3.5586,-8.51172 6.69141,-8.51172 4.457031,0 7.968758,3.78125 7.968758,9.8711 0,7.85937 -4.410163,8.78515 -6.312503,8.78515 z m -0.871095,-19.96484 c -8.15625,0 -11.230474,6.01172 -11.230474,10.66406 0,4.8125 3.152344,10.66016 10.960934,10.66016 6.906258,0 11.257828,-4.92578 11.257828,-11.15235 0,-6.22656 -4.21485,-10.17187 -10.988288,-10.17187 z"
     style="fill:#1d4f91;fill-opacity:1;fill-rule:nonzero;stroke:none" />
  <g
     aria-label="Institute For Cancer Genetics"
     transform="matrix(0.75000006,0,0,0.75000006,173.67107,-367.60668)"
     id="flowRoot817-5-3"
     style="font-style:normal;font-variant:normal;font-weight:normal;font-stretch:normal;font-size:18.6667px;line-height:125%;font-family:'Libre Baskerville';-inkscape-font-specification:'Libre Baskerville';letter-spacing:0px;word-spacing:0px;fill:#1d4f91;fill-opacity:1;stroke:none;stroke-width:1px;stroke-linecap:butt;stroke-linejoin:miter;stroke-opacity:1">
    <path
       d="m 112.15821,512.18752 v -3.28125 q 0,-3.36329 -0.0365,-3.95574 -0.0547,-0.92058 -0.63802,-1.04818 -0.26433,-0.0729 -0.67448,-0.0729 -0.29167,0 -0.29167,-0.1914 0,-0.14584 0.44662,-0.14584 0.37369,0 1.27604,0.0274 0.90235,0.0273 1.14844,0.0273 0.20052,0 1.04818,-0.0273 0.84766,-0.0274 1.23047,-0.0274 0.39193,0 0.39193,0.14584 0,0.1914 -0.30078,0.1914 -0.22787,0 -0.556,0.0547 -0.37369,0.0638 -0.51953,0.3099 -0.14583,0.24609 -0.17317,0.75651 -0.0365,0.59245 -0.0365,3.95574 v 3.28125 q 0,3.29037 0.0729,4.09246 0.0456,0.41927 0.20052,0.63802 0.15495,0.21875 0.54688,0.27344 0.52865,0.0729 0.94792,0.0729 0.30078,0 0.30078,0.15495 0,0.18229 -0.35547,0.18229 -0.71094,0 -1.73177,-0.0273 -1.01172,-0.0273 -1.17579,-0.0273 -0.17317,0 -1.05729,0.0273 -0.88412,0.0273 -1.29427,0.0273 -0.3737,0 -0.3737,-0.18229 0,-0.15495 0.30078,-0.15495 0.33724,0 0.66537,-0.0729 0.26432,-0.0547 0.3737,-0.27344 0.11849,-0.21875 0.17317,-0.65625 0.0911,-0.78386 0.0911,-4.07423 z"
       style="font-style:normal;font-variant:normal;font-weight:bold;font-stretch:normal;font-size:18.6667px;line-height:0%;font-family:'Trajan Pro';-inkscape-font-specification:'Trajan Pro Bold';letter-spacing:0px;fill:#1d4f91;fill-opacity:1"
       id="path77" />
    <path
       d="m 120.68036,508.96095 0.19141,6.48048 q 0.0273,0.87501 0.16406,1.2487 0.13672,0.3737 0.39193,0.46485 0.33724,0.10937 0.85677,0.10937 0.28255,0 0.28255,0.17318 0,0.16406 -0.3737,0.16406 -0.6289,0 -1.35807,-0.0273 -0.72006,-0.0273 -0.77474,-0.0273 -0.0456,0 -0.31901,0.009 -0.26433,0.0182 -0.67448,0.0273 -0.41016,0.0182 -0.77475,0.0182 -0.37369,0 -0.37369,-0.16406 0,-0.17318 0.26432,-0.17318 0.44661,0 0.7474,-0.0729 0.30989,-0.082 0.39192,-0.45573 0.0911,-0.3737 0.10938,-1.46745 l 0.14583,-9.40627 q 0,-0.23698 0.0729,-0.38281 0.082,-0.15495 0.20964,-0.15495 0.0911,0 0.21875,0.0911 0.13671,0.082 0.20963,0.15495 0.082,0.0729 0.28255,0.27344 l 5.05861,5.0586 q 0.46484,0.46485 1.3125,1.33073 0.85677,0.85678 1.49479,1.50391 0.63803,0.63803 0.73829,0.72917 h 0.0729 l -0.16406,-7.0547 q -0.009,-0.71094 -0.13672,-0.99349 -0.1276,-0.29167 -0.42838,-0.41016 -0.23698,-0.0911 -0.85678,-0.0911 -0.26432,0 -0.26432,-0.16407 0,-0.15494 0.41016,-0.15494 0.5013,0 1.23958,0.0182 0.73828,0.0182 0.85677,0.0182 0.009,0 0.56511,-0.0182 0.55599,-0.0182 1.03906,-0.0182 0.3737,0 0.3737,0.15494 0,0.16407 -0.28255,0.16407 -0.30078,0 -0.5013,0.0547 -0.33724,0.10027 -0.46485,0.3737 -0.1276,0.26433 -0.13672,0.93881 l -0.18229,9.99871 q 0,0.25521 -0.082,0.38282 -0.0729,0.1276 -0.18229,0.1276 -0.31901,0 -0.67448,-0.33724 l -4.79428,-4.57553 q -0.78386,-0.7474 -1.67709,-1.66797 -0.89323,-0.92058 -1.47656,-1.53125 -0.58334,-0.6198 -0.69271,-0.72006 z"
       style="font-style:normal;font-variant:normal;font-weight:bold;font-stretch:normal;font-size:18.6667px;line-height:0%;font-family:'Trajan Pro';-inkscape-font-specification:'Trajan Pro Bold';letter-spacing:0px;fill:#1d4f91;fill-opacity:1"
       id="path79" />
    <path
       d="m 137.30539,517.81123 q -1.73177,0 -2.66146,-0.41016 -0.20052,-0.0911 -0.26433,-0.18229 -0.0547,-0.10026 -0.0547,-0.36458 0,-0.82943 0.0911,-2.10548 0,-0.41015 0.20964,-0.41015 0.16406,0 0.16406,0.25521 0,0.37369 0.14583,0.82942 0.2461,0.8112 0.98438,1.19402 0.7474,0.3737 1.63151,0.3737 1.03907,0 1.65886,-0.57422 0.61979,-0.58334 0.61979,-1.44923 0,-0.40104 -0.0911,-0.70182 -0.0911,-0.30078 -0.46485,-0.71094 -0.3737,-0.41927 -1.0664,-0.82031 l -0.95704,-0.56511 q -1.41276,-0.82943 -1.9961,-1.66797 -0.57421,-0.84766 -0.57421,-1.93229 0,-1.42188 1.19401,-2.306 1.19401,-0.88411 2.94401,-0.88411 1.33073,0 2.33334,0.2552 0.22787,0.0547 0.22787,0.20964 0,0.0547 -0.0182,0.28255 -0.009,0.21875 -0.0274,0.64714 -0.009,0.42839 -0.009,0.97526 0,0.5013 -0.20964,0.5013 -0.16406,0 -0.16406,-0.28255 0,-0.17318 -0.10026,-0.47396 -0.10026,-0.30078 -0.32813,-0.5651 -0.61067,-0.7474 -1.83203,-0.7474 -0.92969,0 -1.58594,0.45573 -0.65625,0.45573 -0.65625,1.23959 0,0.58333 0.34635,1.04817 0.35547,0.46485 1.39454,1.04818 l 0.66536,0.36459 q 1.5586,0.86588 2.19662,1.79557 0.64714,0.92058 0.64714,2.05079 0,0.91146 -0.38282,1.64063 -0.38281,0.72005 -1.25781,1.33073 -0.92969,0.65625 -2.75261,0.65625 z"
       style="font-style:normal;font-variant:normal;font-weight:bold;font-stretch:normal;font-size:18.6667px;line-height:0%;font-family:'Trajan Pro';-inkscape-font-specification:'Trajan Pro Bold';letter-spacing:0px;fill:#1d4f91;fill-opacity:1"
       id="path81" />
    <path
       d="m 147.79629,512.98961 v -6.41668 l -2.45182,0.0547 q -0.72006,0.0182 -1.06641,0.11849 -0.33724,0.10026 -0.51953,0.36458 -0.15495,0.21875 -0.28256,0.54688 -0.0547,0.20052 -0.18229,0.20052 -0.14583,0 -0.14583,-0.26433 0,-0.16406 0.14583,-0.95703 0.15495,-0.80208 0.20052,-0.96615 0.0638,-0.29166 0.19141,-0.29166 0.0456,0 0.26432,0.082 0.21875,0.0729 0.44662,0.10026 0.64713,0.0729 1.64063,0.0729 h 6.66277 q 0.62891,0 1.12109,-0.0729 0.10938,-0.0182 0.20964,-0.0365 0.10938,-0.0182 0.16406,-0.0273 0.0547,-0.009 0.0729,-0.009 0.13672,0 0.13672,0.33724 0,0.16406 -0.0274,0.9388 -0.0182,0.77475 -0.0182,0.98438 -0.0274,0.25521 -0.14584,0.25521 -0.0911,0 -0.1276,-0.0638 -0.0365,-0.0638 -0.0547,-0.2461 l -0.0182,-0.17317 q -0.0456,-0.3737 -0.49219,-0.63803 -0.44661,-0.26432 -1.44922,-0.27343 l -2.07813,-0.0365 v 6.41668 q 0,2.53386 0.0911,3.39974 0.0547,0.38282 0.17318,0.57422 0.1276,0.19141 0.46484,0.2461 0.33724,0.0547 0.83854,0.0547 0.12761,0 0.19141,0.0547 0.0729,0.0547 0.0729,0.11849 0,0.16406 -0.31901,0.16406 -0.6198,0 -1.5586,-0.0273 -0.9388,-0.0273 -1.09375,-0.0273 -0.15495,0 -0.97526,0.0273 -0.8112,0.0273 -1.16667,0.0273 -0.31901,0 -0.31901,-0.16406 0,-0.17318 0.26432,-0.17318 0.38281,0 0.57422,-0.0547 0.23698,-0.0547 0.33724,-0.2461 0.10026,-0.20052 0.14583,-0.59245 0.082,-0.67448 0.082,-3.38151 z"
       style="font-style:normal;font-variant:normal;font-weight:bold;font-stretch:normal;font-size:18.6667px;line-height:0%;font-family:'Trajan Pro';-inkscape-font-specification:'Trajan Pro Bold';letter-spacing:0px;fill:#1d4f91;fill-opacity:1"
       id="path83" />
    <path
       d="m 157.42131,512.98961 v -2.79819 q 0,-2.85287 -0.0182,-3.36328 -0.0273,-0.39193 -0.15494,-0.56511 -0.12761,-0.18229 -0.41016,-0.27344 -0.2461,-0.0729 -0.59245,-0.0729 -0.26432,0 -0.26432,-0.1823 0,-0.13671 0.39192,-0.13671 0.32813,0 1.15756,0.0182 0.83854,0.0182 1.04818,0.0182 0.18229,0 0.97526,-0.0182 0.79297,-0.0182 1.13021,-0.0182 0.33724,0 0.33724,0.13671 0,0.1823 -0.25521,0.1823 -0.20052,0 -0.49219,0.0547 -0.32812,0.0547 -0.45573,0.2461 -0.1276,0.18229 -0.15495,0.61068 -0.0365,0.51041 -0.0365,3.36328 v 2.79819 q 0,2.79818 0.0729,3.47266 0.0456,0.35547 0.17318,0.52865 0.13672,0.16406 0.47396,0.21875 0.34635,0.0547 0.84766,0.0547 0.1276,0 0.1914,0.0547 0.0638,0.0547 0.0638,0.11849 0,0.16406 -0.31902,0.16406 -0.61979,0 -1.55859,-0.0273 -0.93881,-0.0273 -1.08464,-0.0273 -0.15495,0 -0.97526,0.0273 -0.8112,0.0273 -1.17578,0.0273 -0.31902,0 -0.31902,-0.16406 0,-0.17318 0.26433,-0.17318 0.35547,0 0.57422,-0.0547 0.24609,-0.0547 0.34635,-0.22787 0.10026,-0.17318 0.14584,-0.53776 0.0729,-0.65625 0.0729,-3.45443 z"
       style="font-style:normal;font-variant:normal;font-weight:bold;font-stretch:normal;font-size:18.6667px;line-height:0%;font-family:'Trajan Pro';-inkscape-font-specification:'Trajan Pro Bold';letter-spacing:0px;fill:#1d4f91;fill-opacity:1"
       id="path85" />
    <path
       d="m 167.20128,512.98961 v -6.41668 l -2.45183,0.0547 q -0.72005,0.0182 -1.06641,0.11849 -0.33724,0.10026 -0.51953,0.36458 -0.15495,0.21875 -0.28255,0.54688 -0.0547,0.20052 -0.18229,0.20052 -0.14584,0 -0.14584,-0.26433 0,-0.16406 0.14584,-0.95703 0.15494,-0.80208 0.20052,-0.96615 0.0638,-0.29166 0.1914,-0.29166 0.0456,0 0.26433,0.082 0.21875,0.0729 0.44661,0.10026 0.64714,0.0729 1.64063,0.0729 h 6.66277 q 0.62891,0 1.1211,-0.0729 0.10937,-0.0182 0.20963,-0.0365 0.10938,-0.0182 0.16407,-0.0273 0.0547,-0.009 0.0729,-0.009 0.13672,0 0.13672,0.33724 0,0.16406 -0.0273,0.9388 -0.0182,0.77475 -0.0182,0.98438 -0.0273,0.25521 -0.14583,0.25521 -0.0911,0 -0.12761,-0.0638 -0.0365,-0.0638 -0.0547,-0.2461 l -0.0182,-0.17317 q -0.0456,-0.3737 -0.49218,-0.63803 -0.44662,-0.26432 -1.44923,-0.27343 l -2.07812,-0.0365 v 6.41668 q 0,2.53386 0.0911,3.39974 0.0547,0.38282 0.17318,0.57422 0.1276,0.19141 0.46484,0.2461 0.33724,0.0547 0.83855,0.0547 0.1276,0 0.1914,0.0547 0.0729,0.0547 0.0729,0.11849 0,0.16406 -0.31901,0.16406 -0.61979,0 -1.5586,-0.0273 -0.9388,-0.0273 -1.09375,-0.0273 -0.15495,0 -0.97526,0.0273 -0.8112,0.0273 -1.16667,0.0273 -0.31901,0 -0.31901,-0.16406 0,-0.17318 0.26432,-0.17318 0.38282,0 0.57422,-0.0547 0.23698,-0.0547 0.33724,-0.2461 0.10026,-0.20052 0.14584,-0.59245 0.082,-0.67448 0.082,-3.38151 z"
       style="font-style:normal;font-variant:normal;font-weight:bold;font-stretch:normal;font-size:18.6667px;line-height:0%;font-family:'Trajan Pro';-inkscape-font-specification:'Trajan Pro Bold';letter-spacing:0px;fill:#1d4f91;fill-opacity:1"
       id="path87" />
    <path
       d="m 176.11536,512.52476 v -2.33334 q 0,-3.10807 -0.0182,-3.36328 -0.0273,-0.41016 -0.17318,-0.57422 -0.13672,-0.16407 -0.53776,-0.28256 -0.19141,-0.0547 -0.62891,-0.0547 -0.28255,0 -0.28255,-0.16407 0,-0.15494 0.35547,-0.15494 0.48307,0 1.3763,0.0182 0.89323,0.0182 1.08464,0.0182 0.18229,0 0.98438,-0.0182 0.80208,-0.0182 1.13021,-0.0182 0.34635,0 0.34635,0.15494 0,0.16407 -0.25521,0.16407 -0.18229,0 -0.48307,0.0547 -0.31901,0.0547 -0.44662,0.2461 -0.1276,0.18229 -0.15494,0.61068 -0.0365,0.51041 -0.0365,3.36328 v 2.22397 q 0,1.64974 0.30078,2.4974 0.30078,0.83854 0.94792,1.34896 0.80208,0.62891 2.06901,0.62891 1.33985,0 2.20574,-0.83855 0.32812,-0.30989 0.52864,-0.71094 0.20964,-0.41015 0.29167,-0.95703 0.0911,-0.55599 0.10937,-1.00261 0.0273,-0.45573 0.0273,-1.19401 v -1.9961 q 0,-2.51563 -0.0456,-3.36328 -0.0273,-0.40105 -0.16407,-0.56511 -0.1276,-0.17318 -0.51953,-0.29167 -0.20052,-0.0547 -0.60156,-0.0547 -0.28256,0 -0.28256,-0.16407 0,-0.15494 0.33724,-0.15494 0.23698,0 0.51954,0.009 0.29166,0 0.52864,0.009 0.2461,0 0.44662,0.009 0.20963,0 0.33724,0 l 0.1276,0.009 q 0.0456,0 0.80209,-0.0182 0.75651,-0.0182 1.12109,-0.0182 0.33724,0 0.33724,0.15494 0,0.16407 -0.28255,0.16407 -0.16406,0 -0.48307,0.0547 -0.32813,0.0547 -0.44662,0.23698 -0.11849,0.1823 -0.14583,0.6198 -0.0365,1.02083 -0.0365,3.36328 v 1.69532 q 0,0.75651 -0.0547,1.35808 -0.0547,0.59244 -0.20963,1.25781 -0.15495,0.65625 -0.48308,1.21224 -0.32812,0.54688 -0.82031,0.95703 -1.36719,1.13933 -3.47266,1.13933 -2.51563,0 -3.75522,-1.08464 -1.49479,-1.30339 -1.49479,-4.20183 z"
       style="font-style:normal;font-variant:normal;font-weight:bold;font-stretch:normal;font-size:18.6667px;line-height:0%;font-family:'Trajan Pro';-inkscape-font-specification:'Trajan Pro Bold';letter-spacing:0px;fill:#1d4f91;fill-opacity:1"
       id="path89" />
    <path
       d="m 193.19611,512.98961 v -6.41668 l -2.45183,0.0547 q -0.72005,0.0182 -1.0664,0.11849 -0.33724,0.10026 -0.51954,0.36458 -0.15494,0.21875 -0.28255,0.54688 -0.0547,0.20052 -0.18229,0.20052 -0.14583,0 -0.14583,-0.26433 0,-0.16406 0.14583,-0.95703 0.15495,-0.80208 0.20052,-0.96615 0.0638,-0.29166 0.19141,-0.29166 0.0456,0 0.26432,0.082 0.21875,0.0729 0.44662,0.10026 0.64713,0.0729 1.64062,0.0729 h 6.66278 q 0.6289,0 1.12109,-0.0729 0.10938,-0.0182 0.20964,-0.0365 0.10937,-0.0182 0.16406,-0.0273 0.0547,-0.009 0.0729,-0.009 0.13672,0 0.13672,0.33724 0,0.16406 -0.0274,0.9388 -0.0182,0.77475 -0.0182,0.98438 -0.0273,0.25521 -0.14583,0.25521 -0.0911,0 -0.1276,-0.0638 -0.0365,-0.0638 -0.0547,-0.2461 l -0.0182,-0.17317 q -0.0456,-0.3737 -0.49219,-0.63803 -0.44661,-0.26432 -1.44922,-0.27343 l -2.07813,-0.0365 v 6.41668 q 0,2.53386 0.0911,3.39974 0.0547,0.38282 0.17317,0.57422 0.12761,0.19141 0.46485,0.2461 0.33724,0.0547 0.83854,0.0547 0.12761,0 0.19141,0.0547 0.0729,0.0547 0.0729,0.11849 0,0.16406 -0.31902,0.16406 -0.61979,0 -1.55859,-0.0273 -0.93881,-0.0273 -1.09375,-0.0273 -0.15495,0 -0.97527,0.0273 -0.8112,0.0273 -1.16667,0.0273 -0.31901,0 -0.31901,-0.16406 0,-0.17318 0.26433,-0.17318 0.38281,0 0.57422,-0.0547 0.23698,-0.0547 0.33724,-0.2461 0.10026,-0.20052 0.14583,-0.59245 0.082,-0.67448 0.082,-3.38151 z"
       style="font-style:normal;font-variant:normal;font-weight:bold;font-stretch:normal;font-size:18.6667px;line-height:0%;font-family:'Trajan Pro';-inkscape-font-specification:'Trajan Pro Bold';letter-spacing:0px;fill:#1d4f91;fill-opacity:1"
       id="path91" />
    <path
       d="m 202.82113,512.98961 v -2.79819 q 0,-2.85287 -0.0182,-3.36328 -0.0273,-0.40105 -0.17318,-0.56511 -0.14583,-0.17318 -0.53776,-0.29167 -0.1914,-0.0547 -0.65625,-0.0547 -0.27344,0 -0.27344,-0.16407 0,-0.15494 0.3737,-0.15494 0.47396,0 1.32162,0.0182 0.85677,0.0182 1.04818,0.0182 h 4.47527 q 0.0911,-0.009 0.69271,-0.0911 0.0365,-0.009 0.1276,-0.0365 0.0911,-0.0365 0.13672,-0.0365 0.10938,0 0.10938,0.14584 0,0.0365 -0.0274,0.14583 -0.0182,0.10026 -0.0547,0.33724 -0.0273,0.22786 -0.0456,0.54687 0,0.009 -0.0456,0.47396 -0.0365,0.45573 -0.0547,0.57422 -0.0638,0.25521 -0.18229,0.25521 -0.12761,0 -0.12761,-0.20052 0,-0.35547 -0.11849,-0.58333 -0.082,-0.17318 -0.15494,-0.26433 -0.0729,-0.0911 -0.3099,-0.18229 -0.22787,-0.0911 -0.61979,-0.1276 -0.54688,-0.0729 -2.57032,-0.0729 -0.10938,0 -0.10938,0.14583 v 3.91928 q 0,0.17318 0.10938,0.17318 2.4974,0 2.8711,-0.0456 0.62891,-0.0547 0.78385,-0.23698 0.0547,-0.0365 0.10938,-0.0911 0.0547,-0.0638 0.082,-0.0912 0.0365,-0.0273 0.0729,-0.0273 0.1276,0 0.1276,0.17318 0,0.0365 -0.1276,1.15755 -0.0729,0.63802 -0.0729,1.0573 0,0.35547 -0.17318,0.35547 -0.14583,0 -0.14583,-0.12761 0,-0.0365 -0.0182,-0.24609 -0.0182,-0.20964 -0.0365,-0.32813 -0.15495,-0.55599 -0.92057,-0.61979 -0.58334,-0.0729 -2.57032,-0.0729 -0.0911,0 -0.0911,0.16406 v 1.26693 q 0,0.15495 -0.009,0.71094 0,0.54688 0,0.99349 0,0.4375 0.009,0.64714 0.0274,0.80209 0.48308,1.06641 0.45573,0.26432 1.73177,0.26432 1.08464,0 1.54948,-0.20963 0.30079,-0.13672 0.46485,-0.40105 0.16406,-0.27343 0.24609,-0.77474 0.0274,-0.1276 0.0638,-0.18229 0.0456,-0.0547 0.12761,-0.0547 0.14583,0 0.14583,0.3737 0,0.28255 -0.082,0.90235 -0.0729,0.61979 -0.14583,0.84766 -0.082,0.29166 -0.22787,0.34635 -0.14583,0.0638 -0.64713,0.0638 -1.82292,0 -3.02605,-0.0547 -1.60417,-0.0364 -1.90495,-0.0364 -0.0638,0 -0.39193,0.009 -0.31901,0.009 -0.53776,0.009 -0.78386,0.0364 -1.13933,0.0364 -0.31901,0 -0.31901,-0.16406 0,-0.17318 0.26433,-0.17318 0.35547,0 0.57422,-0.0547 0.23698,-0.0547 0.33724,-0.25521 0.10937,-0.20052 0.15494,-0.58334 0.0729,-0.67448 0.0729,-3.38151 z"
       style="font-style:normal;font-variant:normal;font-weight:bold;font-stretch:normal;font-size:18.6667px;line-height:0%;font-family:'Trajan Pro';-inkscape-font-specification:'Trajan Pro Bold';letter-spacing:0px;fill:#1d4f91;fill-opacity:1"
       id="path93" />
    <path
       d="m 221.88887,510.6745 v 1.51302 q 0,3.19011 0.0911,3.97397 0.0456,0.47396 0.1914,0.72917 0.15495,0.24609 0.53777,0.30078 0.52864,0.0729 0.92969,0.0729 0.31901,0 0.31901,0.15495 0,0.18229 -0.41016,0.18229 -0.67448,0 -1.67709,-0.0273 -1.0026,-0.0273 -1.15755,-0.0273 -0.20964,0 -1.10287,0.0273 -0.88411,0.0273 -1.26693,0.0273 -0.39192,0 -0.39192,-0.18229 0,-0.15495 0.28255,-0.15495 0.33724,0 0.66536,-0.0729 0.25521,-0.0456 0.36459,-0.29167 0.10937,-0.25521 0.18229,-0.73828 0.0911,-0.78386 0.0911,-3.97397 v -3.28125 q 0,-3.36329 -0.0365,-3.95574 -0.0274,-0.5013 -0.20052,-0.73828 -0.16407,-0.23698 -0.60157,-0.32813 -0.23698,-0.0547 -0.72917,-0.0547 -0.31901,0 -0.31901,-0.15494 0,-0.1823 0.42839,-0.1823 0.23698,0 0.75651,0.009 0.51953,0.009 0.75651,0.009 0.96615,0.0365 1.17579,0.0365 4.50261,0 4.931,-0.0182 0.61979,-0.0365 0.76562,-0.0729 0.0365,-0.009 0.13672,-0.0638 0.10026,-0.0547 0.15495,-0.0547 0.13672,0 0.13672,0.17317 0,0.0547 -0.0273,0.15495 -0.0182,0.10026 -0.0638,0.29167 -0.0365,0.1914 -0.0638,0.39193 -0.009,0.0547 -0.0456,0.72005 -0.0274,0.65625 -0.0456,0.79297 -0.0365,0.26432 -0.18229,0.26432 -0.16406,0 -0.19141,-0.30078 0,-0.44661 -0.10937,-0.71094 -0.10938,-0.21875 -0.42839,-0.38281 -0.30989,-0.16406 -0.80208,-0.17318 l -2.88021,-0.0638 q -0.16407,0 -0.16407,0.26432 v 4.66668 q 0,0.17318 0.12761,0.17318 l 2.38802,-0.0182 q 0.58334,0 0.84766,-0.0274 0.5651,-0.0273 0.80208,-0.32812 0.12761,-0.16407 0.1823,-0.1823 0.0273,-0.009 0.0547,-0.009 0.11849,0 0.11849,0.17318 0,0.0456 -0.0273,0.20963 -0.0273,0.15495 -0.0638,0.42839 -0.0365,0.27344 -0.0638,0.51953 -0.0729,0.72917 -0.0729,1.35808 0,0.35547 -0.19141,0.35547 -0.14583,0 -0.14583,-0.26433 0,-0.24609 -0.10938,-0.57422 -0.082,-0.23698 -0.31901,-0.42838 -0.23698,-0.20052 -0.63802,-0.2461 -0.46484,-0.0547 -2.76172,-0.0547 -0.12761,0 -0.12761,0.16406 z"
       style="font-style:normal;font-variant:normal;font-weight:bold;font-stretch:normal;font-size:18.6667px;line-height:0%;font-family:'Trajan Pro';-inkscape-font-specification:'Trajan Pro Bold';letter-spacing:0px;fill:#1d4f91;fill-opacity:1"
       id="path95" />
    <path
       d="m 235.6975,517.81123 q -1.38542,0 -2.53386,-0.3737 -1.14844,-0.38281 -1.91407,-1.0026 -0.75651,-0.6198 -1.28516,-1.431 -0.52864,-0.82031 -0.76562,-1.67708 -0.22787,-0.85678 -0.22787,-1.73178 0,-0.84766 0.22787,-1.6862 0.23698,-0.84766 0.76562,-1.66797 0.53776,-0.82943 1.3125,-1.45834 0.77475,-0.6289 1.95964,-1.01172 1.1849,-0.39192 2.62501,-0.39192 3.10808,0 4.91277,1.60417 1.80469,1.59505 1.80469,4.32943 0,1.35808 -0.49219,2.55209 -0.48307,1.1849 -1.35808,2.0599 -0.875,0.875 -2.17838,1.38542 -1.30339,0.5013 -2.85287,0.5013 z m 0.66536,-0.86589 q 0.29167,0 0.57422,-0.0365 0.29167,-0.0456 0.67448,-0.17317 0.39193,-0.13672 0.72005,-0.35547 0.33725,-0.21875 0.67449,-0.60157 0.34635,-0.39192 0.58333,-0.90234 0.24609,-0.51953 0.39193,-1.28516 0.15495,-0.77474 0.15495,-1.70443 0,-1.28516 -0.3737,-2.36068 -0.36459,-1.07552 -1.01172,-1.79558 -0.63803,-0.72005 -1.51303,-1.11198 -0.86588,-0.40104 -1.85938,-0.40104 -0.59244,0 -1.12109,0.1276 -0.52865,0.12761 -1.06641,0.47396 -0.53776,0.33724 -0.92057,0.86589 -0.38282,0.52865 -0.62891,1.41276 -0.23698,0.875 -0.23698,2.00521 0,1.23048 0.33724,2.29688 0.34635,1.06641 0.97526,1.85938 0.62891,0.78386 1.56771,1.23959 0.93881,0.44661 2.07813,0.44661 z"
       style="font-style:normal;font-variant:normal;font-weight:bold;font-stretch:normal;font-size:18.6667px;line-height:0%;font-family:'Trajan Pro';-inkscape-font-specification:'Trajan Pro Bold';letter-spacing:0px;fill:#1d4f91;fill-opacity:1"
       id="path97" />
    <path
       d="m 245.64152,512.98961 v -2.79819 q 0,-2.85287 -0.0182,-3.36328 -0.0273,-0.40105 -0.17318,-0.56511 -0.14583,-0.17318 -0.53776,-0.29167 -0.1914,-0.0547 -0.65625,-0.0547 -0.27344,0 -0.27344,-0.16407 0,-0.15494 0.3737,-0.15494 0.49219,0 1.3125,0.0182 0.82032,0.0182 0.92058,0.0182 0.29167,0 1.30339,-0.0182 1.01172,-0.0182 1.25781,-0.0182 2.08724,0 3.11719,0.67448 0.4375,0.30078 0.79297,0.88411 0.36459,0.58334 0.36459,1.30339 0,0.88412 -0.53776,1.71354 -0.53776,0.82943 -1.74089,1.79558 0.0911,0.10938 0.46484,0.57422 0.38282,0.45573 0.47396,0.57422 0.0911,0.11849 0.41016,0.51042 0.31901,0.38281 0.4375,0.51953 0.11849,0.13672 0.3737,0.44662 0.26432,0.30989 0.40104,0.46484 0.13672,0.15495 0.33724,0.39193 0.20964,0.22786 0.3737,0.40104 0.16406,0.16406 0.32813,0.32813 0.41927,0.41927 0.82031,0.67448 0.41016,0.24609 0.54688,0.28255 0.14583,0.0365 0.39192,0.0911 0.16407,0.0365 0.39193,0.0365 0.0911,0 0.14583,0.0547 0.0547,0.0547 0.0547,0.11849 0,0.16406 -0.30989,0.16406 H 255.221 q -1.19401,0 -1.79557,-0.31901 -0.49219,-0.24609 -0.98438,-0.76562 -0.48307,-0.52865 -1.25781,-1.56771 -0.35547,-0.45573 -0.91146,-1.2487 -0.54688,-0.80209 -0.63803,-0.91146 -0.11849,-0.11849 -0.30078,-0.11849 l -1.46745,-0.0365 q -0.13672,0 -0.13672,0.13672 v 0.21875 q 0,2.5612 0.10026,3.38151 0.0456,0.40105 0.16407,0.59245 0.11849,0.19141 0.46484,0.2461 0.36459,0.0547 0.80209,0.0547 0.0911,0 0.14583,0.0547 0.0638,0.0547 0.0638,0.11849 0,0.16406 -0.33724,0.16406 -0.5651,0 -1.54948,-0.0273 -0.97526,-0.0273 -1.01172,-0.0273 -0.11849,0 -0.88412,0.0273 -0.75651,0.0273 -1.13021,0.0273 -0.31901,0 -0.31901,-0.16406 0,-0.17318 0.26432,-0.17318 0.35547,0 0.57422,-0.0547 0.23698,-0.0547 0.33724,-0.25521 0.10938,-0.20052 0.15495,-0.58334 0.0729,-0.67448 0.0729,-3.38151 z m 2.08724,-6.28908 v 4.72137 q 0,0.20963 0.15495,0.28255 0.47396,0.14583 1.2487,0.14583 0.48308,0 0.71094,-0.0456 0.22787,-0.0547 0.44662,-0.20964 1.0664,-0.75651 1.0664,-2.35156 0,-0.64714 -0.17317,-1.14844 -0.16407,-0.51042 -0.42839,-0.8112 -0.25521,-0.3099 -0.60156,-0.51042 -0.34636,-0.20052 -0.66537,-0.27344 -0.31901,-0.082 -0.63802,-0.082 -0.73828,0 -0.96615,0.0638 -0.15495,0.0456 -0.15495,0.21875 z"
       style="font-style:normal;font-variant:normal;font-weight:bold;font-stretch:normal;font-size:18.6667px;line-height:0%;font-family:'Trajan Pro';-inkscape-font-specification:'Trajan Pro Bold';letter-spacing:0px;fill:#1d4f91;fill-opacity:1"
       id="path99" />
    <path
       d="m 118.83921,541.19929 q -4.04688,0 -6.39845,-2.03255 -2.31511,-2.04167 -2.31511,-5.51434 0,-0.53776 0.0912,-1.12109 0.10026,-0.58334 0.31901,-1.27605 0.22786,-0.70182 0.67448,-1.41276 0.45573,-0.72005 1.09375,-1.30339 1.06641,-0.97526 2.47917,-1.47656 1.41277,-0.50131 3.41798,-0.50131 1.32162,0 2.70703,0.19141 0.34636,0.0456 0.96615,0.16406 0.61979,0.11849 0.90235,0.14584 0.28255,0.0365 0.28255,0.22786 0,0.0547 -0.0182,0.17318 -0.009,0.11849 -0.0365,0.34635 -0.0182,0.22787 -0.0365,0.51042 -0.0182,0.30078 -0.0273,1.06641 -0.009,0.75651 -0.0273,0.94792 -0.0182,0.23698 -0.0638,0.33724 -0.0456,0.0911 -0.16406,0.0911 -0.19141,0 -0.19141,-0.41015 -0.0273,-0.99349 -0.72005,-1.71355 -0.47396,-0.51041 -1.51302,-0.82943 -1.02995,-0.32812 -2.27865,-0.32812 -2.24219,0 -3.50912,1.15755 -1.72266,1.57683 -1.72266,4.83074 0,1.27604 0.3737,2.38803 0.37369,1.11198 0.97526,1.8776 0.61068,0.76563 1.38542,1.31251 0.77474,0.54687 1.57682,0.8112 0.8112,0.2552 1.57683,0.2552 1.33073,0 2.10547,-0.20963 0.77474,-0.21875 1.30339,-0.83855 0.22786,-0.2552 0.40104,-0.60156 0.18229,-0.35547 0.23698,-0.62891 0.0456,-0.22786 0.0911,-0.30078 0.0456,-0.0729 0.15495,-0.0729 0.16406,0 0.16406,0.28255 0,0.20963 -0.14584,1.13021 -0.13671,0.92057 -0.26432,1.34896 -0.0729,0.24609 -0.16406,0.34635 -0.082,0.10026 -0.31901,0.20053 -1.09375,0.42838 -3.36329,0.42838 z"
       style="font-style:normal;font-variant:normal;font-weight:bold;font-stretch:normal;font-size:18.6667px;line-height:0%;font-family:'Trajan Pro';-inkscape-font-specification:'Trajan Pro Bold';letter-spacing:0px;fill:#1d4f91;fill-opacity:1"
       id="path101" />
    <path
       d="m 131.84574,536.94277 h -3.86459 q -0.10937,0 -0.15494,0.10938 l -0.87501,2.13281 q -0.24609,0.58334 -0.24609,0.96615 0,0.22787 0.14583,0.33724 0.14584,0.10938 0.51042,0.10938 h 0.2461 q 0.23698,0 0.23698,0.17318 0,0.16406 -0.25521,0.16406 -0.27344,0 -0.92969,-0.0274 -0.64714,-0.0273 -0.90235,-0.0273 -0.0456,0 -0.35547,0.009 -0.30078,0.0182 -0.73828,0.0273 -0.4375,0.0182 -0.8112,0.0182 -0.30078,0 -0.30078,-0.16406 0,-0.17318 0.19141,-0.17318 0.0729,0 0.24609,-0.009 0.16406,-0.009 0.23698,-0.009 0.51953,-0.0729 0.80208,-0.39193 0.28256,-0.32812 0.56511,-1.00261 l 4.29298,-9.9896 q 0.13671,-0.34635 0.24609,-0.49219 0.10937,-0.14583 0.23698,-0.14583 0.17318,0 0.25521,0.10938 0.0911,0.10026 0.22786,0.40104 l 4.1836,9.77996 q 0.29167,0.66537 0.58334,1.0573 0.29167,0.39193 0.45573,0.5013 0.17318,0.10026 0.35547,0.13672 0.36458,0.0547 0.61979,0.0547 0.22787,0 0.22787,0.17318 0,0.10026 -0.13672,0.1276 -0.12761,0.0365 -0.57422,0.0365 -1.77735,0 -3.15365,-0.0365 -0.43751,-0.0273 -0.48308,-0.082 -0.009,-0.0182 -0.009,-0.0456 0,-0.14584 0.20963,-0.17318 0.0911,-0.0182 0.14584,-0.11849 0.0547,-0.10026 0,-0.23698 l -1.26693,-3.19011 q -0.0456,-0.10938 -0.16407,-0.10938 z m -3.52735,-0.875 h 3.17189 q 0.10026,0 0.0729,-0.10026 l -1.54948,-4.02865 q -0.0456,-0.14584 -0.0729,-0.14584 -0.0456,0 -0.0911,0.14584 l -1.59506,4.01042 q -0.0547,0.11849 0.0638,0.11849 z"
       style="font-style:normal;font-variant:normal;font-weight:bold;font-stretch:normal;font-size:18.6667px;line-height:0%;font-family:'Trajan Pro';-inkscape-font-specification:'Trajan Pro Bold';letter-spacing:0px;fill:#1d4f91;fill-opacity:1"
       id="path103" />
    <path
       d="m 139.90305,532.29433 0.19141,6.48048 q 0.0273,0.875 0.16406,1.2487 0.13672,0.3737 0.39193,0.46484 0.33724,0.10938 0.85677,0.10938 0.28255,0 0.28255,0.17318 0,0.16406 -0.37369,0.16406 -0.62891,0 -1.35808,-0.0274 -0.72005,-0.0273 -0.77474,-0.0273 -0.0456,0 -0.31901,0.009 -0.26433,0.0182 -0.67448,0.0273 -0.41016,0.0182 -0.77474,0.0182 -0.3737,0 -0.3737,-0.16406 0,-0.17318 0.26432,-0.17318 0.44662,0 0.7474,-0.0729 0.3099,-0.082 0.39193,-0.45573 0.0911,-0.3737 0.10937,-1.46745 l 0.14584,-9.40627 q 0,-0.23698 0.0729,-0.38281 0.082,-0.15495 0.20964,-0.15495 0.0911,0 0.21875,0.0911 0.13672,0.082 0.20963,0.15495 0.082,0.0729 0.28256,0.27343 l 5.0586,5.05861 q 0.46484,0.46484 1.3125,1.33073 0.85677,0.85677 1.4948,1.50391 0.63802,0.63802 0.73828,0.72917 h 0.0729 l -0.16407,-7.0547 q -0.009,-0.71094 -0.13672,-0.9935 -0.1276,-0.29166 -0.42838,-0.41015 -0.23698,-0.0911 -0.85677,-0.0911 -0.26433,0 -0.26433,-0.16406 0,-0.15495 0.41016,-0.15495 0.5013,0 1.23958,0.0182 0.73829,0.0182 0.85678,0.0182 0.009,0 0.5651,-0.0182 0.55599,-0.0182 1.03907,-0.0182 0.3737,0 0.3737,0.15495 0,0.16406 -0.28256,0.16406 -0.30078,0 -0.5013,0.0547 -0.33724,0.10026 -0.46485,0.3737 -0.1276,0.26432 -0.13671,0.9388 l -0.1823,9.99872 q 0,0.25521 -0.082,0.38281 -0.0729,0.1276 -0.18229,0.1276 -0.31901,0 -0.67448,-0.33724 l -4.79428,-4.57552 q -0.78385,-0.7474 -1.67709,-1.66798 -0.89323,-0.92057 -1.47656,-1.53125 -0.58334,-0.61979 -0.69271,-0.72005 z"
       style="font-style:normal;font-variant:normal;font-weight:bold;font-stretch:normal;font-size:18.6667px;line-height:0%;font-family:'Trajan Pro';-inkscape-font-specification:'Trajan Pro Bold';letter-spacing:0px;fill:#1d4f91;fill-opacity:1"
       id="path105" />
    <path
       d="m 160.4747,541.1446 q -3.58204,0 -5.63282,-1.72266 -2.0599,-1.71354 -2.0599,-4.6849 0,-0.45573 0.082,-0.94792 0.0911,-0.5013 0.28255,-1.09375 0.20052,-0.59245 0.60157,-1.19401 0.40104,-0.61068 0.95703,-1.11198 0.9388,-0.82943 2.1875,-1.2487 1.25782,-0.42839 3.02605,-0.42839 1.03906,0 2.38803,0.16406 0.23698,0.0365 0.80208,0.13672 0.56511,0.10026 0.83854,0.12761 0.2461,0.0273 0.2461,0.18229 0,0.0547 -0.009,0.15495 -0.009,0.0911 -0.0365,0.29166 -0.0182,0.20052 -0.0364,0.4375 -0.0182,0.29167 -0.0365,0.94792 -0.009,0.65625 -0.0182,0.76563 -0.0273,0.39193 -0.21875,0.39193 -0.17318,0 -0.17318,-0.33724 -0.0365,-0.88412 -0.62891,-1.47657 -0.44661,-0.41927 -1.26693,-0.67448 -0.82031,-0.25521 -1.91406,-0.25521 -1.07552,0 -1.80469,0.20964 -0.72917,0.20963 -1.28516,0.68359 -1.51302,1.29428 -1.51302,4.12892 0,1.08463 0.31901,2.02344 0.31901,0.92969 0.83854,1.56771 0.52865,0.63802 1.20313,1.09375 0.67448,0.45573 1.3763,0.66537 0.70183,0.20963 1.37631,0.20963 1.18489,0 1.8138,-0.15495 0.63802,-0.16406 1.09375,-0.68359 0.46485,-0.52865 0.56511,-1.06641 0.0273,-0.18229 0.0638,-0.24609 0.0456,-0.0729 0.13672,-0.0729 0.082,0 0.13672,0.0911 0.0547,0.0911 0.0547,0.1914 0,0.18229 -0.12761,0.96615 -0.11849,0.78386 -0.22786,1.14844 -0.0547,0.20052 -0.13672,0.29167 -0.082,0.082 -0.29167,0.17317 -0.91146,0.35547 -2.97136,0.35547 z"
       style="font-style:normal;font-variant:normal;font-weight:bold;font-stretch:normal;font-size:18.6667px;line-height:0%;font-family:'Trajan Pro';-inkscape-font-specification:'Trajan Pro Bold';letter-spacing:0px;fill:#1d4f91;fill-opacity:1"
       id="path107" />
    <path
       d="m 167.72993,536.32298 v -2.79818 q 0,-2.85287 -0.0182,-3.36329 -0.0274,-0.40104 -0.17318,-0.5651 -0.14583,-0.17318 -0.53776,-0.29167 -0.19141,-0.0547 -0.65625,-0.0547 -0.27344,0 -0.27344,-0.16406 0,-0.15495 0.3737,-0.15495 0.47396,0 1.32161,0.0182 0.85678,0.0182 1.04818,0.0182 h 4.47527 q 0.0911,-0.009 0.69271,-0.0911 0.0365,-0.009 0.12761,-0.0365 0.0911,-0.0364 0.13671,-0.0364 0.10938,0 0.10938,0.14583 0,0.0365 -0.0273,0.14583 -0.0182,0.10026 -0.0547,0.33724 -0.0274,0.22787 -0.0456,0.54688 0,0.009 -0.0456,0.47396 -0.0365,0.45573 -0.0547,0.57422 -0.0638,0.25521 -0.18229,0.25521 -0.1276,0 -0.1276,-0.20052 0,-0.35547 -0.11849,-0.58334 -0.082,-0.17318 -0.15495,-0.26432 -0.0729,-0.0911 -0.3099,-0.18229 -0.22786,-0.0911 -0.61979,-0.12761 -0.54687,-0.0729 -2.57032,-0.0729 -0.10937,0 -0.10937,0.14584 v 3.91928 q 0,0.17317 0.10937,0.17317 2.4974,0 2.8711,-0.0456 0.62891,-0.0547 0.78386,-0.23698 0.0547,-0.0365 0.10937,-0.0912 0.0547,-0.0638 0.082,-0.0911 0.0365,-0.0273 0.0729,-0.0273 0.12761,0 0.12761,0.17318 0,0.0365 -0.12761,1.15756 -0.0729,0.63802 -0.0729,1.05729 0,0.35547 -0.17318,0.35547 -0.14584,0 -0.14584,-0.1276 0,-0.0365 -0.0182,-0.2461 -0.0182,-0.20963 -0.0365,-0.32812 -0.15495,-0.556 -0.92058,-0.6198 -0.58333,-0.0729 -2.57032,-0.0729 -0.0911,0 -0.0911,0.16406 v 1.26693 q 0,0.15495 -0.009,0.71094 0,0.54687 0,0.99349 0,0.4375 0.009,0.64713 0.0273,0.80209 0.48307,1.06641 0.45573,0.26433 1.73178,0.26433 1.08463,0 1.54948,-0.20964 0.30078,-0.13672 0.46484,-0.40104 0.16407,-0.27344 0.2461,-0.77474 0.0273,-0.12761 0.0638,-0.18229 0.0456,-0.0547 0.1276,-0.0547 0.14584,0 0.14584,0.3737 0,0.28255 -0.082,0.90234 -0.0729,0.61979 -0.14584,0.84766 -0.082,0.29167 -0.22786,0.34635 -0.14584,0.0638 -0.64714,0.0638 -1.82292,0 -3.02605,-0.0547 -1.60417,-0.0365 -1.90495,-0.0365 -0.0638,0 -0.39193,0.009 -0.31901,0.009 -0.53776,0.009 -0.78385,0.0365 -1.13932,0.0365 -0.31901,0 -0.31901,-0.16406 0,-0.17318 0.26432,-0.17318 0.35547,0 0.57422,-0.0547 0.23698,-0.0547 0.33724,-0.25521 0.10938,-0.20052 0.15495,-0.58333 0.0729,-0.67448 0.0729,-3.38152 z"
       style="font-style:normal;font-variant:normal;font-weight:bold;font-stretch:normal;font-size:18.6667px;line-height:0%;font-family:'Trajan Pro';-inkscape-font-specification:'Trajan Pro Bold';letter-spacing:0px;fill:#1d4f91;fill-opacity:1"
       id="path109" />
    <path
       d="m 178.10234,536.32298 v -2.79818 q 0,-2.85287 -0.0182,-3.36329 -0.0274,-0.40104 -0.17318,-0.5651 -0.14583,-0.17318 -0.53776,-0.29167 -0.19141,-0.0547 -0.65625,-0.0547 -0.27344,0 -0.27344,-0.16406 0,-0.15495 0.3737,-0.15495 0.49219,0 1.3125,0.0182 0.82031,0.0182 0.92057,0.0182 0.29167,0 1.30339,-0.0182 1.01172,-0.0182 1.25782,-0.0182 2.08724,0 3.11719,0.67448 0.4375,0.30078 0.79297,0.88412 0.36458,0.58333 0.36458,1.30338 0,0.88412 -0.53776,1.71355 -0.53776,0.82943 -1.74089,1.79558 0.0911,0.10937 0.46485,0.57421 0.38281,0.45573 0.47396,0.57422 0.0911,0.11849 0.41015,0.51042 0.31902,0.38282 0.43751,0.51953 0.11849,0.13672 0.37369,0.44662 0.26433,0.3099 0.40105,0.46484 0.13672,0.15495 0.33724,0.39193 0.20963,0.22787 0.37369,0.40104 0.16407,0.16407 0.32813,0.32813 0.41927,0.41927 0.82031,0.67448 0.41016,0.24609 0.54688,0.28255 0.14583,0.0365 0.39193,0.0912 0.16406,0.0365 0.39193,0.0365 0.0911,0 0.14583,0.0547 0.0547,0.0547 0.0547,0.11849 0,0.16406 -0.3099,0.16406 h -1.56771 q -1.19401,0 -1.79558,-0.31901 -0.49218,-0.2461 -0.98437,-0.76563 -0.48308,-0.52865 -1.25782,-1.56771 -0.35547,-0.45573 -0.91146,-1.2487 -0.54687,-0.80209 -0.63802,-0.91146 -0.11849,-0.11849 -0.30078,-0.11849 l -1.46745,-0.0365 q -0.13672,0 -0.13672,0.13672 v 0.21875 q 0,2.5612 0.10026,3.38152 0.0456,0.40104 0.16406,0.59245 0.11849,0.1914 0.46485,0.24609 0.36458,0.0547 0.80208,0.0547 0.0911,0 0.14584,0.0547 0.0638,0.0547 0.0638,0.11849 0,0.16406 -0.33724,0.16406 -0.56511,0 -1.54948,-0.0274 -0.97527,-0.0273 -1.01173,-0.0273 -0.11849,0 -0.88411,0.0273 -0.75651,0.0274 -1.13021,0.0274 -0.31901,0 -0.31901,-0.16406 0,-0.17318 0.26432,-0.17318 0.35547,0 0.57422,-0.0547 0.23698,-0.0547 0.33724,-0.25521 0.10938,-0.20052 0.15495,-0.58333 0.0729,-0.67448 0.0729,-3.38152 z m 2.08724,-6.28907 v 4.72136 q 0,0.20963 0.15495,0.28255 0.47396,0.14584 1.2487,0.14584 0.48307,0 0.71094,-0.0456 0.22786,-0.0547 0.44661,-0.20963 1.06641,-0.75652 1.06641,-2.35157 0,-0.64714 -0.17318,-1.14844 -0.16406,-0.51042 -0.42838,-0.8112 -0.25521,-0.3099 -0.60157,-0.51042 -0.34635,-0.20052 -0.66536,-0.27343 -0.31901,-0.082 -0.63803,-0.082 -0.73828,0 -0.96614,0.0638 -0.15495,0.0456 -0.15495,0.21875 z"
       style="font-style:normal;font-variant:normal;font-weight:bold;font-stretch:normal;font-size:18.6667px;line-height:0%;font-family:'Trajan Pro';-inkscape-font-specification:'Trajan Pro Bold';letter-spacing:0px;fill:#1d4f91;fill-opacity:1"
       id="path111" />
    <path
       d="m 208.19875,537.63548 v 2.05079 q 0,0.3737 -0.0365,0.47396 -0.0365,0.10026 -0.20964,0.20052 -1.61328,0.83854 -4.4935,0.83854 -1.40364,0 -2.66146,-0.26432 -1.2487,-0.26433 -2.35157,-0.82943 -1.09375,-0.57422 -1.89583,-1.41276 -0.79297,-0.84766 -1.25782,-2.07813 -0.45573,-1.23047 -0.45573,-2.73438 0,-2.10547 0.92058,-3.6823 0.92969,-1.57683 2.32422,-2.42448 1.22136,-0.72917 2.40625,-0.96615 1.19402,-0.2461 2.61589,-0.2461 0.83855,0 1.85027,0.10938 1.02083,0.10937 1.44922,0.19141 0.95703,0.18229 1.47657,0.20052 0.16406,0.0182 0.20963,0.0729 0.0547,0.0547 0.0547,0.15495 0,0.0274 -0.0365,0.32813 -0.0273,0.29166 -0.0638,1.0026 -0.0274,0.70183 -0.0274,1.73178 0,0.39193 -0.20963,0.39193 -0.15495,0 -0.18229,-0.2461 -0.0456,-0.30078 -0.0911,-0.49219 -0.0365,-0.1914 -0.18229,-0.5013 -0.14584,-0.3099 -0.36459,-0.55599 -0.51953,-0.54688 -1.63151,-0.99349 -1.10287,-0.45573 -2.53386,-0.45573 -0.47396,0 -0.84766,0.0365 -0.36458,0.0273 -0.875,0.13672 -0.5013,0.10026 -1.0026,0.35546 -0.50131,0.2461 -0.96615,0.62891 -1.72266,1.44011 -1.72266,4.56642 0,1.49479 0.46484,2.78906 0.46485,1.29428 1.30339,2.23308 0.83855,0.92969 2.0599,1.46745 1.22136,0.52865 2.67058,0.52865 1.13932,0 1.58594,-0.20052 0.35547,-0.16407 0.35547,-0.69271 v -1.75001 q 0,-1.64974 -0.0182,-2.20573 -0.0182,-0.49219 -0.19141,-0.72917 -0.16406,-0.24609 -0.61067,-0.33724 -0.22787,-0.0547 -0.72917,-0.0547 -0.28256,0 -0.28256,-0.14584 0,-0.1914 0.39193,-0.1914 0.53776,0 1.50391,0.0273 0.97526,0.0273 1.20313,0.0273 0.29167,0 1.08464,-0.0273 0.79297,-0.0273 1.10286,-0.0273 0.3737,0 0.3737,0.1914 0,0.14584 -0.24609,0.14584 -0.17318,0 -0.50131,0.0547 -0.37369,0.0638 -0.53776,0.31901 -0.15495,0.2461 -0.17317,0.7474 -0.0182,0.55599 -0.0182,2.24219 z"
       style="font-style:normal;font-variant:normal;font-weight:bold;font-stretch:normal;font-size:18.6667px;line-height:0%;font-family:'Trajan Pro';-inkscape-font-specification:'Trajan Pro Bold';letter-spacing:0px;fill:#1d4f91;fill-opacity:1"
       id="path113" />
    <path
       d="m 212.65579,536.32298 v -2.79818 q 0,-2.85287 -0.0182,-3.36329 -0.0274,-0.40104 -0.17318,-0.5651 -0.14583,-0.17318 -0.53776,-0.29167 -0.19141,-0.0547 -0.65625,-0.0547 -0.27344,0 -0.27344,-0.16406 0,-0.15495 0.3737,-0.15495 0.47396,0 1.32162,0.0182 0.85677,0.0182 1.04817,0.0182 h 4.47527 q 0.0911,-0.009 0.69271,-0.0911 0.0365,-0.009 0.12761,-0.0365 0.0911,-0.0364 0.13672,-0.0364 0.10937,0 0.10937,0.14583 0,0.0365 -0.0273,0.14583 -0.0182,0.10026 -0.0547,0.33724 -0.0273,0.22787 -0.0456,0.54688 0,0.009 -0.0456,0.47396 -0.0365,0.45573 -0.0547,0.57422 -0.0638,0.25521 -0.1823,0.25521 -0.1276,0 -0.1276,-0.20052 0,-0.35547 -0.11849,-0.58334 -0.082,-0.17318 -0.15495,-0.26432 -0.0729,-0.0911 -0.30989,-0.18229 -0.22787,-0.0911 -0.6198,-0.12761 -0.54687,-0.0729 -2.57031,-0.0729 -0.10938,0 -0.10938,0.14584 v 3.91928 q 0,0.17317 0.10938,0.17317 2.4974,0 2.87109,-0.0456 0.62891,-0.0547 0.78386,-0.23698 0.0547,-0.0365 0.10937,-0.0912 0.0547,-0.0638 0.082,-0.0911 0.0365,-0.0273 0.0729,-0.0273 0.12761,0 0.12761,0.17318 0,0.0365 -0.12761,1.15756 -0.0729,0.63802 -0.0729,1.05729 0,0.35547 -0.17318,0.35547 -0.14583,0 -0.14583,-0.1276 0,-0.0365 -0.0182,-0.2461 -0.0182,-0.20963 -0.0365,-0.32812 -0.15495,-0.556 -0.92058,-0.6198 -0.58333,-0.0729 -2.57031,-0.0729 -0.0911,0 -0.0911,0.16406 v 1.26693 q 0,0.15495 -0.009,0.71094 0,0.54687 0,0.99349 0,0.4375 0.009,0.64713 0.0273,0.80209 0.48307,1.06641 0.45573,0.26433 1.73178,0.26433 1.08464,0 1.54948,-0.20964 0.30078,-0.13672 0.46484,-0.40104 0.16407,-0.27344 0.2461,-0.77474 0.0273,-0.12761 0.0638,-0.18229 0.0456,-0.0547 0.12761,-0.0547 0.14583,0 0.14583,0.3737 0,0.28255 -0.082,0.90234 -0.0729,0.61979 -0.14584,0.84766 -0.082,0.29167 -0.22786,0.34635 -0.14583,0.0638 -0.64714,0.0638 -1.82292,0 -3.02604,-0.0547 -1.60417,-0.0365 -1.90496,-0.0365 -0.0638,0 -0.39192,0.009 -0.31902,0.009 -0.53777,0.009 -0.78385,0.0365 -1.13932,0.0365 -0.31901,0 -0.31901,-0.16406 0,-0.17318 0.26432,-0.17318 0.35547,0 0.57422,-0.0547 0.23698,-0.0547 0.33724,-0.25521 0.10938,-0.20052 0.15495,-0.58333 0.0729,-0.67448 0.0729,-3.38152 z"
       style="font-style:normal;font-variant:normal;font-weight:bold;font-stretch:normal;font-size:18.6667px;line-height:0%;font-family:'Trajan Pro';-inkscape-font-specification:'Trajan Pro Bold';letter-spacing:0px;fill:#1d4f91;fill-opacity:1"
       id="path115" />
    <path
       d="m 223.86674,532.29433 0.19141,6.48048 q 0.0273,0.875 0.16406,1.2487 0.13672,0.3737 0.39193,0.46484 0.33724,0.10938 0.85677,0.10938 0.28256,0 0.28256,0.17318 0,0.16406 -0.3737,0.16406 -0.62891,0 -1.35808,-0.0274 -0.72005,-0.0273 -0.77474,-0.0273 -0.0456,0 -0.31901,0.009 -0.26432,0.0182 -0.67448,0.0273 -0.41016,0.0182 -0.77474,0.0182 -0.3737,0 -0.3737,-0.16406 0,-0.17318 0.26432,-0.17318 0.44662,0 0.7474,-0.0729 0.3099,-0.082 0.39193,-0.45573 0.0911,-0.3737 0.10937,-1.46745 l 0.14584,-9.40627 q 0,-0.23698 0.0729,-0.38281 0.082,-0.15495 0.20964,-0.15495 0.0912,0 0.21875,0.0911 0.13672,0.082 0.20964,0.15495 0.082,0.0729 0.28255,0.27343 l 5.0586,5.05861 q 0.46485,0.46484 1.3125,1.33073 0.85678,0.85677 1.4948,1.50391 0.63802,0.63802 0.73828,0.72917 h 0.0729 l -0.16407,-7.0547 q -0.009,-0.71094 -0.13671,-0.9935 -0.12761,-0.29166 -0.42839,-0.41015 -0.23698,-0.0911 -0.85677,-0.0911 -0.26433,0 -0.26433,-0.16406 0,-0.15495 0.41016,-0.15495 0.5013,0 1.23959,0.0182 0.73828,0.0182 0.85677,0.0182 0.009,0 0.5651,-0.0182 0.55599,-0.0182 1.03907,-0.0182 0.3737,0 0.3737,0.15495 0,0.16406 -0.28256,0.16406 -0.30078,0 -0.5013,0.0547 -0.33724,0.10026 -0.46484,0.3737 -0.12761,0.26432 -0.13672,0.9388 l -0.18229,9.99872 q 0,0.25521 -0.082,0.38281 -0.0729,0.1276 -0.18229,0.1276 -0.31901,0 -0.67448,-0.33724 l -4.79428,-4.57552 q -0.78385,-0.7474 -1.67708,-1.66798 -0.89323,-0.92057 -1.47657,-1.53125 -0.58333,-0.61979 -0.69271,-0.72005 z"
       style="font-style:normal;font-variant:normal;font-weight:bold;font-stretch:normal;font-size:18.6667px;line-height:0%;font-family:'Trajan Pro';-inkscape-font-specification:'Trajan Pro Bold';letter-spacing:0px;fill:#1d4f91;fill-opacity:1"
       id="path117" />
    <path
       d="m 238.72354,536.32298 v -2.79818 q 0,-2.85287 -0.0182,-3.36329 -0.0273,-0.40104 -0.17317,-0.5651 -0.14584,-0.17318 -0.53776,-0.29167 -0.19141,-0.0547 -0.65626,-0.0547 -0.27343,0 -0.27343,-0.16406 0,-0.15495 0.3737,-0.15495 0.47395,0 1.32161,0.0182 0.85677,0.0182 1.04818,0.0182 h 4.47527 q 0.0911,-0.009 0.69271,-0.0911 0.0365,-0.009 0.1276,-0.0365 0.0911,-0.0364 0.13672,-0.0364 0.10938,0 0.10938,0.14583 0,0.0365 -0.0274,0.14583 -0.0182,0.10026 -0.0547,0.33724 -0.0274,0.22787 -0.0456,0.54688 0,0.009 -0.0456,0.47396 -0.0365,0.45573 -0.0547,0.57422 -0.0638,0.25521 -0.18229,0.25521 -0.1276,0 -0.1276,-0.20052 0,-0.35547 -0.11849,-0.58334 -0.082,-0.17318 -0.15495,-0.26432 -0.0729,-0.0911 -0.3099,-0.18229 -0.22786,-0.0911 -0.61979,-0.12761 -0.54688,-0.0729 -2.57032,-0.0729 -0.10937,0 -0.10937,0.14584 v 3.91928 q 0,0.17317 0.10937,0.17317 2.4974,0 2.8711,-0.0456 0.62891,-0.0547 0.78386,-0.23698 0.0547,-0.0365 0.10937,-0.0912 0.0547,-0.0638 0.082,-0.0911 0.0365,-0.0273 0.0729,-0.0273 0.1276,0 0.1276,0.17318 0,0.0365 -0.1276,1.15756 -0.0729,0.63802 -0.0729,1.05729 0,0.35547 -0.17317,0.35547 -0.14584,0 -0.14584,-0.1276 0,-0.0365 -0.0182,-0.2461 -0.0182,-0.20963 -0.0365,-0.32812 -0.15494,-0.556 -0.92057,-0.6198 -0.58333,-0.0729 -2.57032,-0.0729 -0.0911,0 -0.0911,0.16406 v 1.26693 q 0,0.15495 -0.009,0.71094 0,0.54687 0,0.99349 0,0.4375 0.009,0.64713 0.0273,0.80209 0.48307,1.06641 0.45573,0.26433 1.73177,0.26433 1.08464,0 1.54949,-0.20964 0.30078,-0.13672 0.46484,-0.40104 0.16406,-0.27344 0.2461,-0.77474 0.0273,-0.12761 0.0638,-0.18229 0.0456,-0.0547 0.1276,-0.0547 0.14584,0 0.14584,0.3737 0,0.28255 -0.082,0.90234 -0.0729,0.61979 -0.14583,0.84766 -0.082,0.29167 -0.22786,0.34635 -0.14584,0.0638 -0.64714,0.0638 -1.82292,0 -3.02605,-0.0547 -1.60417,-0.0365 -1.90495,-0.0365 -0.0638,0 -0.39193,0.009 -0.31901,0.009 -0.53776,0.009 -0.78385,0.0365 -1.13932,0.0365 -0.31901,0 -0.31901,-0.16406 0,-0.17318 0.26432,-0.17318 0.35547,0 0.57422,-0.0547 0.23698,-0.0547 0.33724,-0.25521 0.10937,-0.20052 0.15495,-0.58333 0.0729,-0.67448 0.0729,-3.38152 z"
       style="font-style:normal;font-variant:normal;font-weight:bold;font-stretch:normal;font-size:18.6667px;line-height:0%;font-family:'Trajan Pro';-inkscape-font-specification:'Trajan Pro Bold';letter-spacing:0px;fill:#1d4f91;fill-opacity:1"
       id="path119" />
    <path
       d="m 251.65716,536.32298 v -6.41668 l -2.45182,0.0547 q -0.72006,0.0182 -1.06641,0.11849 -0.33724,0.10026 -0.51953,0.36458 -0.15495,0.21875 -0.28256,0.54688 -0.0547,0.20052 -0.18229,0.20052 -0.14583,0 -0.14583,-0.26432 0,-0.16407 0.14583,-0.95704 0.15495,-0.80208 0.20052,-0.96614 0.0638,-0.29167 0.19141,-0.29167 0.0456,0 0.26432,0.082 0.21875,0.0729 0.44662,0.10026 0.64714,0.0729 1.64063,0.0729 h 6.66277 q 0.62891,0 1.12109,-0.0729 0.10938,-0.0182 0.20964,-0.0365 0.10938,-0.0182 0.16406,-0.0273 0.0547,-0.009 0.0729,-0.009 0.13672,0 0.13672,0.33724 0,0.16407 -0.0273,0.93881 -0.0182,0.77474 -0.0182,0.98438 -0.0273,0.2552 -0.14584,0.2552 -0.0911,0 -0.1276,-0.0638 -0.0365,-0.0638 -0.0547,-0.24609 l -0.0182,-0.17318 q -0.0456,-0.3737 -0.49219,-0.63802 -0.44661,-0.26432 -1.44922,-0.27344 l -2.07813,-0.0365 v 6.41668 q 0,2.53386 0.0911,3.39975 0.0547,0.38281 0.17318,0.57422 0.1276,0.1914 0.46484,0.24609 0.33724,0.0547 0.83854,0.0547 0.12761,0 0.19141,0.0547 0.0729,0.0547 0.0729,0.11849 0,0.16406 -0.31901,0.16406 -0.6198,0 -1.5586,-0.0274 -0.9388,-0.0273 -1.09375,-0.0273 -0.15495,0 -0.97526,0.0273 -0.8112,0.0274 -1.16667,0.0274 -0.31901,0 -0.31901,-0.16406 0,-0.17318 0.26432,-0.17318 0.38281,0 0.57422,-0.0547 0.23698,-0.0547 0.33724,-0.24609 0.10026,-0.20053 0.14583,-0.59245 0.082,-0.67448 0.082,-3.38152 z"
       style="font-style:normal;font-variant:normal;font-weight:bold;font-stretch:normal;font-size:18.6667px;line-height:0%;font-family:'Trajan Pro';-inkscape-font-specification:'Trajan Pro Bold';letter-spacing:0px;fill:#1d4f91;fill-opacity:1"
       id="path121" />
    <path
       d="m 261.28218,536.32298 v -2.79818 q 0,-2.85287 -0.0182,-3.36329 -0.0274,-0.39193 -0.15495,-0.5651 -0.12761,-0.1823 -0.41016,-0.27344 -0.24609,-0.0729 -0.59245,-0.0729 -0.26432,0 -0.26432,-0.18229 0,-0.13672 0.39193,-0.13672 0.32812,0 1.15755,0.0182 0.83854,0.0182 1.04818,0.0182 0.18229,0 0.97526,-0.0182 0.79297,-0.0182 1.13021,-0.0182 0.33724,0 0.33724,0.13672 0,0.18229 -0.25521,0.18229 -0.20052,0 -0.49218,0.0547 -0.32813,0.0547 -0.45573,0.24609 -0.12761,0.18229 -0.15495,0.61068 -0.0365,0.51042 -0.0365,3.36329 v 2.79818 q 0,2.79818 0.0729,3.47266 0.0456,0.35547 0.17317,0.52865 0.13672,0.16406 0.47396,0.21875 0.34636,0.0547 0.84766,0.0547 0.1276,0 0.19141,0.0547 0.0638,0.0547 0.0638,0.11849 0,0.16406 -0.31901,0.16406 -0.6198,0 -1.5586,-0.0274 -0.9388,-0.0273 -1.08464,-0.0273 -0.15494,0 -0.97526,0.0273 -0.8112,0.0274 -1.17578,0.0274 -0.31901,0 -0.31901,-0.16406 0,-0.17318 0.26432,-0.17318 0.35547,0 0.57422,-0.0547 0.24609,-0.0547 0.34636,-0.22786 0.10026,-0.17318 0.14583,-0.53777 0.0729,-0.65625 0.0729,-3.45443 z"
       style="font-style:normal;font-variant:normal;font-weight:bold;font-stretch:normal;font-size:18.6667px;line-height:0%;font-family:'Trajan Pro';-inkscape-font-specification:'Trajan Pro Bold';letter-spacing:0px;fill:#1d4f91;fill-opacity:1"
       id="path123" />
    <path
       d="m 274.58949,541.1446 q -3.58203,0 -5.63282,-1.72266 -2.0599,-1.71354 -2.0599,-4.6849 0,-0.45573 0.082,-0.94792 0.0912,-0.5013 0.28255,-1.09375 0.20053,-0.59245 0.60157,-1.19401 0.40104,-0.61068 0.95703,-1.11198 0.93881,-0.82943 2.18751,-1.2487 1.25781,-0.42839 3.02604,-0.42839 1.03907,0 2.38803,0.16406 0.23698,0.0365 0.80208,0.13672 0.56511,0.10026 0.83855,0.12761 0.24609,0.0273 0.24609,0.18229 0,0.0547 -0.009,0.15495 -0.009,0.0911 -0.0365,0.29166 -0.0182,0.20052 -0.0365,0.4375 -0.0182,0.29167 -0.0365,0.94792 -0.009,0.65625 -0.0182,0.76563 -0.0273,0.39193 -0.21875,0.39193 -0.17318,0 -0.17318,-0.33724 -0.0365,-0.88412 -0.6289,-1.47657 -0.44662,-0.41927 -1.26693,-0.67448 -0.82032,-0.25521 -1.91407,-0.25521 -1.07552,0 -1.80469,0.20964 -0.72917,0.20963 -1.28516,0.68359 -1.51302,1.29428 -1.51302,4.12892 0,1.08463 0.31901,2.02344 0.31901,0.92969 0.83854,1.56771 0.52865,0.63802 1.20313,1.09375 0.67448,0.45573 1.3763,0.66537 0.70183,0.20963 1.37631,0.20963 1.1849,0 1.8138,-0.15495 0.63803,-0.16406 1.09376,-0.68359 0.46484,-0.52865 0.5651,-1.06641 0.0273,-0.18229 0.0638,-0.24609 0.0456,-0.0729 0.13672,-0.0729 0.082,0 0.13672,0.0911 0.0547,0.0911 0.0547,0.1914 0,0.18229 -0.12761,0.96615 -0.11849,0.78386 -0.22786,1.14844 -0.0547,0.20052 -0.13672,0.29167 -0.082,0.082 -0.29167,0.17317 -0.91146,0.35547 -2.97136,0.35547 z"
       style="font-style:normal;font-variant:normal;font-weight:bold;font-stretch:normal;font-size:18.6667px;line-height:0%;font-family:'Trajan Pro';-inkscape-font-specification:'Trajan Pro Bold';letter-spacing:0px;fill:#1d4f91;fill-opacity:1"
       id="path125" />
    <path
       d="m 283.61294,541.1446 q -1.73178,0 -2.66146,-0.41015 -0.20053,-0.0912 -0.26433,-0.1823 -0.0547,-0.10026 -0.0547,-0.36458 0,-0.82943 0.0912,-2.10547 0,-0.41016 0.20964,-0.41016 0.16406,0 0.16406,0.25521 0,0.3737 0.14583,0.82943 0.2461,0.8112 0.98438,1.19401 0.7474,0.3737 1.63151,0.3737 1.03907,0 1.65886,-0.57422 0.61979,-0.58333 0.61979,-1.44922 0,-0.40104 -0.0911,-0.70183 -0.0911,-0.30078 -0.46485,-0.71093 -0.3737,-0.41928 -1.06641,-0.82032 l -0.95703,-0.5651 q -1.41276,-0.82943 -1.9961,-1.66798 -0.57422,-0.84765 -0.57422,-1.93229 0,-1.42188 1.19402,-2.30599 1.19401,-0.88412 2.94401,-0.88412 1.33073,0 2.33334,0.25521 0.22786,0.0547 0.22786,0.20963 0,0.0547 -0.0182,0.28256 -0.009,0.21875 -0.0274,0.64713 -0.009,0.42839 -0.009,0.97527 0,0.5013 -0.20964,0.5013 -0.16406,0 -0.16406,-0.28255 0,-0.17318 -0.10026,-0.47396 -0.10026,-0.30079 -0.32813,-0.56511 -0.61068,-0.7474 -1.83203,-0.7474 -0.92969,0 -1.58594,0.45573 -0.65625,0.45573 -0.65625,1.23959 0,0.58333 0.34635,1.04818 0.35547,0.46484 1.39453,1.04818 l 0.66537,0.36458 q 1.5586,0.86589 2.19662,1.79558 0.64714,0.92057 0.64714,2.05078 0,0.91146 -0.38282,1.64063 -0.38281,0.72005 -1.25781,1.33073 -0.92969,0.65625 -2.75261,0.65625 z"
       style="font-style:normal;font-variant:normal;font-weight:bold;font-stretch:normal;font-size:18.6667px;line-height:0%;font-family:'Trajan Pro';-inkscape-font-specification:'Trajan Pro Bold';letter-spacing:0px;fill:#1d4f91;fill-opacity:1"
       id="path127" />
  </g>
  <path
     id="path90-3-4"
     d="m 39.369708,24.609149 c -2.023437,3.48829 -4.003906,6.85547 -6.484374,6.85547 -0.707031,0 -1.968749,-0.67187 -1.480469,-2.52734 l 2.335939,-2.35938 c 0.160155,-0.17968 0.28125,-0.38671 0.167967,-0.65234 l -1.476563,-3.125 c -0.08594,-0.18359 -0.249999,-0.17578 -0.42578,0 l -3.124999,3.125 c -0.16797,0.17188 -0.24219,0.40625 -0.132813,0.66016 l 0.98828,2.30859 c -0.382811,1.52734 -1.374998,2.64063 -2.58203,2.55469 -2.238281,-0.14844 -4.054687,-4.40235 -1.359376,-10.41016 0.453126,-1.01172 0.624999,-1.85937 0.578124,-2.59375 5.109377,-2.32422 11.683594,-4.82422 14.183594,-1.66406 1.503906,1.89453 0.800781,4.39844 -1.1875,7.82812 z m -21.695309,6.83985 c -1.203125,0.0859 -2.195314,-1.02735 -2.578126,-2.55469 l 0.984375,-2.30859 c 0.113282,-0.25391 0.03906,-0.48828 -0.128907,-0.66016 l -3.128905,-3.125 c -0.175782,-0.17578 -0.335937,-0.18359 -0.421875,0 l -1.480469,3.125 c -0.113282,0.26563 0.01172,0.47266 0.167968,0.65234 l 2.335939,2.35938 c 0.484374,1.85547 -0.769533,2.52734 -1.480469,2.52734 -2.476563,0 -4.4570311,-3.36718 -6.4843751,-6.85547 -1.98828,-3.42968 -2.687499,-5.93359 -1.1875,-7.82812 2.503906,-3.16016 9.0781241,-0.66016 14.1835941,1.66406 -0.04687,0.73438 0.124999,1.58203 0.578125,2.59375 2.699218,6.00781 0.878905,10.26172 -1.359375,10.41016 z m 8.355466,-15.39844 c -0.371093,0.12109 -0.757811,0.0117 -1.093748,-0.25781 -0.289062,-0.24219 -0.593751,-0.44531 -0.894531,-0.625 0.933594,-0.55469 1.562499,-1.57031 1.562499,-2.73438 0,-1.59375 -1.167969,-2.9101503 -2.695312,-3.1484303 l 1.171876,-1.51172 c 0.117186,-0.14844 0.117186,-0.39453 0,-0.54297 L 22.627523,5.355249 c -0.05859,-0.0781 -0.132813,-0.10938 -0.214844,-0.10938 -0.07422,0 -0.152344,0.0312 -0.210937,0.10938 l -1.449219,1.8749997 c -0.117187,0.14844 -0.117187,0.39453 0,0.54297 l 1.167969,1.51172 c -1.527343,0.23828 -2.691406,1.5546803 -2.691406,3.1484303 0,1.16407 0.624999,2.17969 1.5625,2.73438 -0.300781,0.17969 -0.60547,0.38281 -0.898438,0.625 -0.335937,0.26953 -0.718749,0.3789 -1.093749,0.25781 -6.628907,-2.11719 -12.4804691,-4.16016 -15.8046871,-0.90234 -3.98046905,3.91015 0.652344,10.22656 2.11328,12.82422 1.019532,1.82421 1.746094,3.94921 1.746094,5.63671 H 37.975178 c 0,-1.6875 0.726561,-3.8125 1.746093,-5.63671 1.460937,-2.59766 6.097657,-8.91407 2.113281,-12.82422 -3.324219,-3.25782 -9.175781,-1.21485 -15.804687,0.90234 z M 6.8579919,38.382589 H 37.975178 v -2.5625 H 6.8579919 Z"
     style="fill:#1d4f91;fill-opacity:1;fill-rule:nonzero;stroke:none;stroke-width:1" />
  <path
     id="path90-0"
     d="m 78.279865,31.792749 c -0.25781,0 -0.32422,0.12891 -0.42187,0.64844 -0.12891,0.58594 -0.55078,1.53125 -1.10156,2.14453 -1.30469,1.49609 -3.0586,1.82422 -5.95313,1.82422 -4.35547,0 -10.238281,-3.83985 -10.238281,-11.57422 0,-3.15234 0.617187,-6.23828 2.992187,-8.41797 1.429684,-1.30078 3.285154,-2.01562 6.109374,-2.01562 2.98828,0 5.52734,0.8789 6.59766,2.01562 0.8164,0.84375 1.23828,1.98438 1.26953,2.98828 0,0.45703 0.0664,0.71485 0.32422,0.71485 0.29297,0 0.35547,-0.25782 0.39062,-0.7461 0.0664,-0.64844 0.0312,-2.4375 0.0977,-3.51172 0.0625,-1.13672 0.16406,-1.52734 0.16406,-1.78515 0,-0.19532 -0.13281,-0.35547 -0.48828,-0.39453 -0.97656,-0.0937 -2.01562,-0.38672 -3.25,-0.55079 -1.49609,-0.19531 -2.69922,-0.32031 -4.71484,-0.32031 -4.84375,0 -7.929688,1.29688 -10.269532,3.44141 -3.121094,2.85937 -3.808594,6.69531 -3.808594,8.90625 0,3.15234 0.847656,6.79297 4.035156,9.58984 2.957032,2.56641 6.69531,3.54297 11.14844,3.54297 2.08203,0 4.55078,-0.22656 5.84765,-0.75 0.55469,-0.22656 0.6875,-0.38672 0.84766,-0.9375 0.32813,-1.10937 0.71875,-3.9375 0.71875,-4.32812 0,-0.25782 -0.0664,-0.48438 -0.29687,-0.48438"
     style="fill:#1d4f91;fill-opacity:1;fill-rule:nonzero;stroke:none;stroke-width:1" />
</svg>
