<?xml version="1.0" encoding="UTF-8" standalone="no"?>
<svg
   xmlns:dc="http://purl.org/dc/elements/1.1/"
   xmlns:cc="http://creativecommons.org/ns#"
   xmlns:rdf="http://www.w3.org/1999/02/22-rdf-syntax-ns#"
   xmlns:svg="http://www.w3.org/2000/svg"
   xmlns="http://www.w3.org/2000/svg"
   width="133.92018mm"
   height="21.533373mm"
   viewBox="0 0 379.61628 61.039488"
   version="1.2"
   id="svg93">
  <metadata
     id="metadata97">
    <rdf:RDF>
      <cc:Work
         rdf:about="">
        <dc:format>image/svg+xml</dc:format>
        <dc:type
           rdf:resource="http://purl.org/dc/dcmitype/StillImage" />
        <dc:title></dc:title>
      </cc:Work>
    </rdf:RDF>
  </metadata>
  <defs
     id="defs8">
    <clipPath
       id="clip1">
      <path
         d="m 246,782.74219 h 2 V 842 h -2 z m 0,0"
         id="path2" />
    </clipPath>
    <clipPath
       id="clip2">
      <path
         d="m 465,817 h 10.83984 v 10 H 465 Z m 0,0"
         id="path5" />
    </clipPath>
  </defs>
  <path
     id="path90"
     d="m 224.16984,27.041676 h -5.00391 c -0.10937,0 -0.13672,-0.082 -0.10937,-0.1914 l 2.5039,-6.69141 c 0.0273,-0.10547 0.0781,-0.24219 0.16016,-0.24219 0.082,0 0.10937,0.13672 0.13672,0.24219 l 2.44922,6.71875 c 0.0234,0.082 0,0.16406 -0.13672,0.16406 z m 9.1914,7.96875 c -0.32422,0 -0.73437,-0.0273 -1.14062,-0.10937 -0.57031,-0.13281 -1.35938,-0.51563 -2.39453,-2.96485 -1.74219,-4.13281 -6.09375,-15.22656 -6.7461,-16.72265 -0.26953,-0.625 -0.43359,-0.8711 -0.67578,-0.8711 -0.27344,0 -0.4375,0.29688 -0.76562,1.08594 l -6.82422,17.08203 c -0.54297,1.35547 -1.0625,2.28125 -2.3125,2.44532 -0.21485,0.0273 -0.59766,0.0547 -0.84375,0.0547 -0.21875,0 -0.32813,0.0547 -0.32813,0.21875 0,0.21485 0.16797,0.27344 0.51953,0.27344 1.41407,0 2.91016,-0.082 3.20704,-0.082 0.84765,0 2.01562,0.082 2.88671,0.082 0.29688,0 0.46094,-0.0586 0.46094,-0.27344 0,-0.16406 -0.082,-0.21875 -0.41015,-0.21875 h -0.40625 c -0.84375,0 -1.08985,-0.35156 -1.08985,-0.84375 0,-0.32422 0.13672,-0.97656 0.41016,-1.65625 l 1.46875,-3.89062 c 0.0547,-0.16406 0.10937,-0.21485 0.24219,-0.21485 h 6.0664 c 0.13672,0 0.21875,0.0508 0.27344,0.1875 l 2.17578,5.76563 c 0.13672,0.32422 -0.0547,0.57031 -0.24609,0.625 -0.26953,0.0273 -0.37891,0.082 -0.37891,0.24609 0,0.19141 0.32422,0.19141 0.8125,0.21485 2.17578,0.0586 4.16406,0.0586 5.14063,0.0586 1.00781,0 1.2539,-0.0586 1.2539,-0.27344 0,-0.1914 -0.13672,-0.21875 -0.35547,-0.21875 z m -55.63672,0 c -0.35156,0 -0.89843,-0.0273 -1.6875,-0.27343 -0.8125,-0.24219 -1.08593,-1.03125 -1.33203,-2.7461 l -2.47265,-16.80469 c -0.082,-0.57421 -0.2461,-0.84375 -0.49219,-0.84375 -0.24219,0 -0.40625,0.21485 -0.59766,0.65235 l -7.39843,15.52734 -7.42188,-15.33594 c -0.35156,-0.70703 -0.51562,-0.84375 -0.73437,-0.84375 -0.21875,0 -0.38282,0.2461 -0.46094,0.70704 l -2.69141,17.73437 c -0.13672,0.92188 -0.35547,1.98438 -1.11719,2.14453 -0.40625,0.082 -0.59765,0.082 -0.8164,0.082 -0.27344,0 -0.4336,0.0547 -0.4336,0.19141 0,0.24219 0.21485,0.30078 0.48829,0.30078 0.87109,0 2.17578,-0.0859 2.6914,-0.0859 0.49219,0 1.71485,0.0859 2.85547,0.0859 0.41016,0 0.65234,-0.0586 0.65234,-0.30078 0,-0.13672 -0.1875,-0.19141 -0.40625,-0.19141 -0.27343,0 -0.65234,-0.0273 -1.14453,-0.13672 -0.46093,-0.10546 -0.8125,-0.35156 -0.8125,-0.87109 0,-0.43359 0.0273,-0.78516 0.082,-1.27344 l 1.41407,-10.82422 h 0.10547 c 0.95312,2.03516 2.58593,5.46485 2.83203,6.03516 0.32422,0.76172 2.47656,4.92188 3.125,6.17188 0.4375,0.8164 0.70703,1.36328 0.95312,1.36328 0.2461,0 0.37891,-0.2461 1.00391,-1.52735 l 5.93359,-12.34375 h 0.10547 l 1.63281,11.96485 c 0.10938,0.76172 0.0273,1.11328 -0.13672,1.16797 -0.1875,0.082 -0.30078,0.16406 -0.30078,0.30078 0,0.16406 0.16407,0.24609 0.79297,0.30078 1.08594,0.082 4.83985,0.16406 5.51953,0.16406 0.38282,0 0.70703,-0.082 0.70703,-0.30078 0,-0.16406 -0.1914,-0.19141 -0.4375,-0.19141 z m 11.98829,-0.65234 c -0.625,0 -1.25,-0.0273 -1.98438,-0.32422 -0.86719,-0.35547 -0.94922,-0.81641 -0.94922,-2.61328 v -6.44141 c 0,-0.13672 0.0508,-0.1914 0.16016,-0.1914 0.41015,0 0.68359,0 1.17187,0.0234 1.0586,0.0547 1.6875,0.24219 2.25782,0.65625 2.0664,1.4375 2.63671,3.72266 2.63671,5.40625 0,2.83204 -2.0664,3.48438 -3.29296,3.48438 z m -2.9336,-17.78906 c 0,-0.29688 0.0508,-0.40235 0.24219,-0.46094 0.27344,-0.0547 0.51562,-0.0547 0.89844,-0.0547 2.33984,0 3.40234,2.39453 3.40234,4.21875 0,1.33203 -0.41016,2.3125 -1.11719,2.88281 -0.46093,0.40625 -1.0625,0.51563 -1.96093,0.51563 -0.6211,0 -1.03125,-0.0273 -1.27735,-0.082 -0.10547,-0.0273 -0.1875,-0.082 -0.1875,-0.30078 z m 4.6211,7.21093 c 1.49609,-1.19531 2.77734,-2.53125 2.77734,-4.75781 0,-1.44531 -0.87109,-4.08203 -5.79688,-4.08203 -0.92578,0 -1.98437,0.0781 -3.3164,0.0781 -0.54297,0 -2.25781,-0.0781 -3.69922,-0.0781 -0.40625,0 -0.59766,0.0547 -0.59766,0.24609 0,0.1875 0.16407,0.24219 0.46094,0.24219 0.37891,0 0.84375,0.0274 1.05859,0.0781 0.89844,0.19531 1.11719,0.6289 1.17188,1.55468 0.0547,0.8711 0.0547,1.63282 0.0547,5.76563 v 4.78906 c 0,2.5 0,4.65235 -0.13672,5.78906 -0.10938,0.78907 -0.24219,1.38672 -0.78516,1.4961 -0.24609,0.0547 -0.57422,0.10937 -0.98437,0.10937 -0.32422,0 -0.4336,0.082 -0.4336,0.21875 0,0.19141 0.19141,0.27344 0.54297,0.27344 1.08985,0 2.80469,-0.082 3.42969,-0.082 0.81641,0 3.28906,0.16016 3.94141,0.16016 5.00781,0 7.26171,-3.01563 7.26171,-5.92969 0,-3.17969 -2.71875,-5.10938 -4.94921,-5.8711 z m -67.30078,7.47657 c -0.21875,0 -0.26954,0.16406 -0.30079,0.41015 -0.0547,0.51563 -0.3789,1.27735 -0.70312,1.62891 -0.68359,0.73828 -1.74609,0.76172 -3.1875,0.76172 -2.12109,0 -2.82422,-0.19141 -3.28906,-0.59766 -0.57032,-0.48828 -0.57032,-2.36328 -0.57032,-5.84765 v -4.78516 c 0,-4.13281 0,-4.89453 0.0547,-5.76563 0.0547,-0.95312 0.26953,-1.41406 1.00391,-1.55078 0.32812,-0.0508 0.76172,-0.0781 1.0625,-0.0781 0.32812,0 0.48828,-0.0586 0.48828,-0.2461 0,-0.1914 -0.1875,-0.24609 -0.57031,-0.24609 -1.0625,0 -3.04688,0.0859 -3.69922,0.0859 -0.73438,0 -2.44922,-0.0859 -3.72656,-0.0859 -0.40625,0 -0.59766,0.0547 -0.59766,0.24609 0,0.1875 0.16406,0.2461 0.46094,0.2461 0.35547,0 0.67968,0.0273 0.89843,0.0781 0.89844,0.1875 1.11719,0.625 1.17188,1.55078 0.0547,0.8711 0.0547,1.63282 0.0547,5.76563 v 4.78516 c 0,2.5039 0,4.65625 -0.13672,5.79296 -0.10938,0.78907 -0.2461,1.38672 -0.78906,1.4961 -0.2461,0.0547 -0.57422,0.10937 -0.98047,0.10937 -0.32422,0 -0.4336,0.082 -0.4336,0.21875 0,0.1875 0.19141,0.27344 0.54297,0.27344 1.08594,0 2.80078,-0.0859 3.42969,-0.0859 2.20312,0 3.99609,0.16407 7.91016,0.16407 1.41406,0 1.55078,-0.13672 1.71484,-0.73438 0.21875,-0.78906 0.40625,-2.82812 0.40625,-3.125 0,-0.32812 -0.0234,-0.46484 -0.21484,-0.46484 z m 84.55859,3.7539 c -0.41016,0 -1.00391,-0.0547 -1.38672,-0.10937 -0.81641,-0.10938 -1.00391,-0.59766 -1.08984,-1.33203 -0.10938,-1.16797 -0.10938,-3.32032 -0.10938,-5.95703 v -4.78516 c 0,-4.13281 0,-4.89453 0.0547,-5.76563 0.0547,-0.95312 0.27344,-1.41406 1.00781,-1.55468 0.32813,-0.0508 0.54297,-0.0781 0.81641,-0.0781 0.27343,0 0.43359,-0.0547 0.43359,-0.27344 0,-0.16015 -0.21484,-0.21484 -0.57031,-0.21484 -1.03516,0 -2.64063,0.082 -3.31641,0.082 -0.79297,0 -2.5039,-0.082 -3.53906,-0.082 -0.43359,0 -0.65234,0.0547 -0.65234,0.21484 0,0.21875 0.16406,0.27344 0.4375,0.27344 0.32421,0 0.67968,0.0274 0.97656,0.10938 0.60156,0.13672 0.87109,0.59765 0.92578,1.52343 0.0547,0.8711 0.0547,1.63282 0.0547,5.76563 v 4.78516 c 0,2.63671 0,4.78906 -0.13672,5.92968 -0.082,0.78907 -0.24219,1.25 -0.78906,1.35938 -0.24219,0.0547 -0.57032,0.10937 -0.97657,0.10937 -0.32812,0 -0.43359,0.082 -0.43359,0.21875 0,0.1875 0.1875,0.27344 0.54297,0.27344 1.08594,0 2.79687,-0.0859 3.42578,-0.0859 0.73437,0 2.44531,0.0859 4.24219,0.0859 0.29687,0 0.51953,-0.0859 0.51953,-0.27344 0,-0.13672 -0.14063,-0.21875 -0.4375,-0.21875 z m -60.63281,-20.07031 c -1.0625,0 -2.77735,0.082 -3.10157,0.082 -0.0273,0 -1.73828,-0.082 -3.125,-0.082 -0.38281,0 -0.57031,0.0547 -0.57031,0.24609 0,0.1875 0.16016,0.24219 0.45703,0.24219 0.30078,0 0.76172,0.0274 0.98438,0.0781 0.89453,0.1914 1.11328,0.6289 1.16797,1.55468 0.0508,0.8711 0.0508,1.63282 0.0508,5.76563 v 3.39844 c 0,2.80468 -0.0781,5.2539 -1.57813,6.74609 -1.08203,1.08594 -2.55469,1.46875 -3.75,1.46875 -0.92578,0 -2.17578,-0.10937 -3.40234,-1.11719 -1.32813,-1.08593 -2.1211,-2.74609 -2.1211,-6.6875 v -3.80859 c 0,-4.13281 0,-4.89453 0.0547,-5.76563 0.0586,-0.95312 0.27344,-1.41406 1.00781,-1.55468 0.32813,-0.0508 0.49219,-0.0781 0.78907,-0.0781 0.26953,0 0.43359,-0.0547 0.43359,-0.24219 0,-0.1914 -0.1875,-0.24609 -0.59766,-0.24609 -0.97656,0 -2.6914,0.082 -3.34375,0.082 -0.8164,0 -2.53124,-0.082 -3.97265,-0.082 -0.40625,0 -0.59766,0.0547 -0.59766,0.24609 0,0.1875 0.16407,0.24219 0.46094,0.24219 0.38281,0 0.84766,0.0274 1.0625,0.0781 0.89844,0.1914 1.11719,0.6289 1.16797,1.55468 0.0547,0.8711 0.0547,1.63282 0.0547,5.76563 v 3.96875 c 0,3.94531 1.03515,5.95703 2.42187,7.20703 1.98438,1.79688 4.59375,1.87891 6.03906,1.87891 1.76563,0 3.72657,-0.30078 5.65625,-1.95703 2.28516,-1.96094 2.58594,-5.16797 2.58594,-8.1875 v -2.91016 c 0,-4.13281 0,-4.89453 0.0508,-5.76563 0.0547,-0.95312 0.27344,-1.41406 1.00781,-1.55468 0.32422,-0.0508 0.48829,-0.0781 0.78907,-0.0781 0.32422,0 0.48828,-0.0547 0.48828,-0.24219 0,-0.1914 -0.19141,-0.24609 -0.57031,-0.24609 z m -51.83594,19.58203 c -5.222665,0 -8.347665,-4.48828 -8.347665,-10.14453 0,-6.77344 3.5586,-8.51172 6.69141,-8.51172 4.457031,0 7.968755,3.78125 7.968755,9.8711 0,7.85937 -4.41016,8.78515 -6.3125,8.78515 z m -0.871095,-19.96484 c -8.15625,0 -11.230474,6.01172 -11.230474,10.66406 0,4.8125 3.152344,10.66016 10.960934,10.66016 6.906255,0 11.257825,-4.92578 11.257825,-11.15235 0,-6.22656 -4.21485,-10.17187 -10.988285,-10.17187 z"
     style="fill:#ffffff;fill-opacity:1;fill-rule:nonzero;stroke:none" />
  <g
     aria-label="INSTITUTE FOR CANCER GENETICS"
     transform="matrix(0.75000006,0,0,0.75000006,-26.297332,-344.47215)"
     style="font-style:normal;font-variant:normal;font-weight:normal;font-stretch:normal;font-size:40px;line-height:125%;font-family:'Libre Baskerville';-inkscape-font-specification:'Libre Baskerville';letter-spacing:0px;word-spacing:0px;fill:#ffffff;fill-opacity:1;stroke:none;stroke-width:1px;stroke-linecap:butt;stroke-linejoin:miter;stroke-opacity:1"
     id="flowRoot817-5-3">
    <path
       d="m 113.38904,536.55595 v -17.78667 h -2.21334 v 17.78667 z"
       style="font-style:normal;font-variant:normal;font-weight:normal;font-stretch:normal;font-size:26.66666603px;line-height:0%;font-family:'Proxima Nova';-inkscape-font-specification:'Proxima Nova';letter-spacing:0px;fill:#ffffff;fill-opacity:1"
       id="path1572" />
    <path
       d="m 132.24987,536.55595 v -17.78667 h -2.21333 v 13.89333 l -10.24,-13.89333 h -2.26667 v 17.78667 h 2.21333 v -14.18667 l 10.37334,14.18667 z"
       style="font-style:normal;font-variant:normal;font-weight:normal;font-stretch:normal;font-size:26.66666603px;line-height:0%;font-family:'Proxima Nova';-inkscape-font-specification:'Proxima Nova';letter-spacing:0px;fill:#ffffff;fill-opacity:1"
       id="path1574" />
    <path
       d="m 142.19612,536.87595 c 4.8,0 6.56,-2.64 6.56,-5.22667 0,-6.64 -10.53333,-4.34667 -10.53333,-8.34667 0,-1.68 1.52,-2.82666 3.65333,-2.82666 1.94667,0 3.81333,0.66666 5.14667,2.13333 l 1.33333,-1.62667 c -1.49333,-1.57333 -3.6,-2.48 -6.32,-2.48 -3.49333,0 -6.10667,2 -6.10667,4.93334 0,6.34666 10.53334,3.81333 10.53334,8.4 0,1.36 -1.01334,3.06666 -4.18667,3.06666 -2.50667,0 -4.42667,-1.22666 -5.6,-2.53333 l -1.30667,1.68 c 1.46667,1.65333 3.73334,2.82667 6.82667,2.82667 z"
       style="font-style:normal;font-variant:normal;font-weight:normal;font-stretch:normal;font-size:26.66666603px;line-height:0%;font-family:'Proxima Nova';-inkscape-font-specification:'Proxima Nova';letter-spacing:0px;fill:#ffffff;fill-opacity:1"
       id="path1576" />
    <path
       d="m 158.5182,536.55595 v -15.81334 h 5.65334 v -1.97333 H 150.6782 v 1.97333 h 5.62667 v 15.81334 z"
       style="font-style:normal;font-variant:normal;font-weight:normal;font-stretch:normal;font-size:26.66666603px;line-height:0%;font-family:'Proxima Nova';-inkscape-font-specification:'Proxima Nova';letter-spacing:0px;fill:#ffffff;fill-opacity:1"
       id="path1578" />
    <path
       d="m 169.32654,536.55595 v -17.78667 h -2.21334 v 17.78667 z"
       style="font-style:normal;font-variant:normal;font-weight:normal;font-stretch:normal;font-size:26.66666603px;line-height:0%;font-family:'Proxima Nova';-inkscape-font-specification:'Proxima Nova';letter-spacing:0px;fill:#ffffff;fill-opacity:1"
       id="path1580" />
    <path
       d="m 180.0807,536.55595 v -15.81334 h 5.65333 v -1.97333 H 172.2407 v 1.97333 h 5.62667 v 15.81334 z"
       style="font-style:normal;font-variant:normal;font-weight:normal;font-stretch:normal;font-size:26.66666603px;line-height:0%;font-family:'Proxima Nova';-inkscape-font-specification:'Proxima Nova';letter-spacing:0px;fill:#ffffff;fill-opacity:1"
       id="path1582" />
    <path
       d="m 195.92904,536.87595 c 4.82666,0 7.25333,-2.82667 7.25333,-7.25334 v -10.85333 h -2.21333 v 10.82667 c 0,3.25333 -1.76,5.30666 -5.04,5.30666 -3.28,0 -5.04,-2.05333 -5.04,-5.30666 v -10.82667 h -2.21334 v 10.88 c 0,4.37333 2.42667,7.22667 7.25334,7.22667 z"
       style="font-style:normal;font-variant:normal;font-weight:normal;font-stretch:normal;font-size:26.66666603px;line-height:0%;font-family:'Proxima Nova';-inkscape-font-specification:'Proxima Nova';letter-spacing:0px;fill:#ffffff;fill-opacity:1"
       id="path1584" />
    <path
       d="m 213.93486,536.55595 v -15.81334 h 5.65334 v -1.97333 h -13.49334 v 1.97333 h 5.62667 v 15.81334 z"
       style="font-style:normal;font-variant:normal;font-weight:normal;font-stretch:normal;font-size:26.66666603px;line-height:0%;font-family:'Proxima Nova';-inkscape-font-specification:'Proxima Nova';letter-spacing:0px;fill:#ffffff;fill-opacity:1"
       id="path1586" />
    <path
       d="m 234.1832,536.55595 v -1.97334 h -9.44 v -6.13333 h 9.25333 v -1.97333 h -9.25333 v -5.73334 h 9.44 v -1.97333 h -11.65333 v 17.78667 z"
       style="font-style:normal;font-variant:normal;font-weight:normal;font-stretch:normal;font-size:26.66666603px;line-height:0%;font-family:'Proxima Nova';-inkscape-font-specification:'Proxima Nova';letter-spacing:0px;fill:#ffffff;fill-opacity:1"
       id="path1588" />
    <path
       d="m 246.77444,536.55595 v -8.10667 h 9.25334 v -1.97333 h -9.25334 v -5.73334 h 9.44 v -1.97333 h -11.65333 v 17.78667 z"
       style="font-style:normal;font-variant:normal;font-weight:normal;font-stretch:normal;font-size:26.66666603px;line-height:0%;font-family:'Proxima Nova';-inkscape-font-specification:'Proxima Nova';letter-spacing:0px;fill:#ffffff;fill-opacity:1"
       id="path1590" />
    <path
       d="m 267.35528,536.87595 c 5.25333,0 8.82666,-3.94667 8.82666,-9.2 0,-5.25334 -3.57333,-9.2 -8.82666,-9.2 -5.28,0 -8.82667,3.94666 -8.82667,9.2 0,5.25333 3.54667,9.2 8.82667,9.2 z m 0,-1.97334 c -4,0 -6.53334,-3.09333 -6.53334,-7.22666 0,-4.16 2.53334,-7.22667 6.53334,-7.22667 3.97333,0 6.53333,3.06667 6.53333,7.22667 0,4.13333 -2.56,7.22666 -6.53333,7.22666 z"
       style="font-style:normal;font-variant:normal;font-weight:normal;font-stretch:normal;font-size:26.66666603px;line-height:0%;font-family:'Proxima Nova';-inkscape-font-specification:'Proxima Nova';letter-spacing:0px;fill:#ffffff;fill-opacity:1"
       id="path1592" />
    <path
       d="m 292.57195,536.55595 -4.8,-7.25334 c 2.42666,-0.21333 4.61333,-1.97333 4.61333,-5.17333 0,-3.28 -2.32,-5.36 -5.57333,-5.36 h -7.14667 v 17.78667 h 2.21333 v -7.06667 h 3.54667 l 4.53333,7.06667 z m -6.02667,-9.01334 h -4.66667 v -6.8 h 4.66667 c 2.10667,0 3.54667,1.38667 3.54667,3.38667 0,2 -1.44,3.41333 -3.54667,3.41333 z"
       style="font-style:normal;font-variant:normal;font-weight:normal;font-stretch:normal;font-size:26.66666603px;line-height:0%;font-family:'Proxima Nova';-inkscape-font-specification:'Proxima Nova';letter-spacing:0px;fill:#ffffff;fill-opacity:1"
       id="path1594" />
    <path
       d="m 311.08487,536.87595 c 3.6,0 5.78667,-1.86667 7.14667,-4 l -2.66667,-1.36 c -0.85333,1.49333 -2.56,2.58666 -4.48,2.58666 -3.52,0 -6.13333,-2.69333 -6.13333,-6.42666 0,-3.73334 2.61333,-6.42667 6.13333,-6.42667 1.92,0 3.62667,1.12 4.48,2.58667 l 2.66667,-1.36 c -1.33334,-2.13334 -3.54667,-4 -7.14667,-4 -5.25333,0 -9.33333,3.73333 -9.33333,9.2 0,5.46666 4.08,9.2 9.33333,9.2 z"
       style="font-style:normal;font-variant:normal;font-weight:600;font-stretch:normal;font-size:26.66666603px;font-family:'Proxima Nova';-inkscape-font-specification:'Proxima Nova Semi-Bold';fill:#ffffff;fill-opacity:1"
       id="path1596" />
    <path
       d="m 336.57236,536.55595 -6.98666,-17.78667 h -3.89334 l -6.98666,17.78667 h 3.54666 l 1.30667,-3.41334 h 8.16 l 1.30667,3.41334 z m -5.73333,-6.16 h -6.4 l 3.2,-8.48 z"
       style="font-style:normal;font-variant:normal;font-weight:600;font-stretch:normal;font-size:26.66666603px;font-family:'Proxima Nova';-inkscape-font-specification:'Proxima Nova Semi-Bold';fill:#ffffff;fill-opacity:1"
       id="path1598" />
    <path
       d="m 353.95445,536.55595 v -17.78667 h -3.12 v 12.34667 l -9.09334,-12.34667 h -3.2 v 17.78667 h 3.12 v -12.69334 l 9.28,12.69334 z"
       style="font-style:normal;font-variant:normal;font-weight:600;font-stretch:normal;font-size:26.66666603px;font-family:'Proxima Nova';-inkscape-font-specification:'Proxima Nova Semi-Bold';fill:#ffffff;fill-opacity:1"
       id="path1600" />
    <path
       d="m 366.2932,536.87595 c 3.6,0 5.78666,-1.86667 7.14666,-4 l -2.66666,-1.36 c -0.85334,1.49333 -2.56,2.58666 -4.48,2.58666 -3.52,0 -6.13334,-2.69333 -6.13334,-6.42666 0,-3.73334 2.61334,-6.42667 6.13334,-6.42667 1.92,0 3.62666,1.12 4.48,2.58667 l 2.66666,-1.36 c -1.33333,-2.13334 -3.54666,-4 -7.14666,-4 -5.25334,0 -9.33334,3.73333 -9.33334,9.2 0,5.46666 4.08,9.2 9.33334,9.2 z"
       style="font-style:normal;font-variant:normal;font-weight:600;font-stretch:normal;font-size:26.66666603px;font-family:'Proxima Nova';-inkscape-font-specification:'Proxima Nova Semi-Bold';fill:#ffffff;fill-opacity:1"
       id="path1602" />
    <path
       d="m 388.12361,536.55595 v -2.74667 h -9.06667 v -4.93333 h 8.88 v -2.74667 h -8.88 v -4.61333 h 9.06667 v -2.74667 h -12.18667 v 17.78667 z"
       style="font-style:normal;font-variant:normal;font-weight:600;font-stretch:normal;font-size:26.66666603px;font-family:'Proxima Nova';-inkscape-font-specification:'Proxima Nova Semi-Bold';fill:#ffffff;fill-opacity:1"
       id="path1604" />
    <path
       d="m 405.06154,536.55595 -4.34667,-6.98667 c 2.13333,-0.34667 4.21333,-2.05333 4.21333,-5.22667 0,-3.28 -2.29333,-5.57333 -5.81333,-5.57333 h -7.81333 v 17.78667 h 3.12 v -6.64 h 3.09333 l 3.94667,6.64 z m -6.37334,-9.38667 h -4.26666 v -5.65333 h 4.26666 c 1.76,0 3.04,1.12 3.04,2.82666 0,1.70667 -1.28,2.82667 -3.04,2.82667 z"
       style="font-style:normal;font-variant:normal;font-weight:600;font-stretch:normal;font-size:26.66666603px;font-family:'Proxima Nova';-inkscape-font-specification:'Proxima Nova Semi-Bold';fill:#ffffff;fill-opacity:1"
       id="path1606" />
    <path
       d="m 423.48068,536.90261 c 3.09334,0 5.57334,-1.28 7.33334,-3.22666 v -6.66667 h -8.42667 v 2.74667 h 5.30667 v 2.77333 c -0.8,0.74667 -2.4,1.6 -4.21334,1.6 -3.52,0 -6.13333,-2.72 -6.13333,-6.45333 0,-3.73334 2.61333,-6.42667 6.13333,-6.42667 2,0 3.68,1.04 4.61334,2.37333 l 2.56,-1.44 c -1.44,-2.05333 -3.70667,-3.70666 -7.17334,-3.70666 -5.14666,0 -9.33333,3.62666 -9.33333,9.2 0,5.57333 4.18667,9.22666 9.33333,9.22666 z"
       style="font-style:normal;font-variant:normal;font-weight:600;font-stretch:normal;font-size:26.66666603px;font-family:'Proxima Nova';-inkscape-font-specification:'Proxima Nova Semi-Bold';fill:#ffffff;fill-opacity:1"
       id="path1608" />
    <path
       d="m 446.24861,536.55595 v -2.74667 h -9.06667 v -4.93333 h 8.88 v -2.74667 h -8.88 v -4.61333 h 9.06667 v -2.74667 h -12.18667 v 17.78667 z"
       style="font-style:normal;font-variant:normal;font-weight:600;font-stretch:normal;font-size:26.66666603px;font-family:'Proxima Nova';-inkscape-font-specification:'Proxima Nova Semi-Bold';fill:#ffffff;fill-opacity:1"
       id="path1610" />
    <path
       d="m 464.83987,536.55595 v -17.78667 h -3.12 v 12.34667 l -9.09333,-12.34667 h -3.2 v 17.78667 h 3.12 v -12.69334 l 9.28,12.69334 z"
       style="font-style:normal;font-variant:normal;font-weight:600;font-stretch:normal;font-size:26.66666603px;font-family:'Proxima Nova';-inkscape-font-specification:'Proxima Nova Semi-Bold';fill:#ffffff;fill-opacity:1"
       id="path1612" />
    <path
       d="m 480.83195,536.55595 v -2.74667 h -9.06666 v -4.93333 h 8.88 v -2.74667 h -8.88 v -4.61333 h 9.06666 v -2.74667 h -12.18666 v 17.78667 z"
       style="font-style:normal;font-variant:normal;font-weight:600;font-stretch:normal;font-size:26.66666603px;font-family:'Proxima Nova';-inkscape-font-specification:'Proxima Nova Semi-Bold';fill:#ffffff;fill-opacity:1"
       id="path1614" />
    <path
       d="m 491.36985,536.55595 v -15.04 h 5.38667 v -2.74667 h -13.89334 v 2.74667 h 5.38667 v 15.04 z"
       style="font-style:normal;font-variant:normal;font-weight:600;font-stretch:normal;font-size:26.66666603px;font-family:'Proxima Nova';-inkscape-font-specification:'Proxima Nova Semi-Bold';fill:#ffffff;fill-opacity:1"
       id="path1616" />
    <path
       d="m 502.49444,536.55595 v -17.78667 h -3.12 v 17.78667 z"
       style="font-style:normal;font-variant:normal;font-weight:600;font-stretch:normal;font-size:26.66666603px;font-family:'Proxima Nova';-inkscape-font-specification:'Proxima Nova Semi-Bold';fill:#ffffff;fill-opacity:1"
       id="path1618" />
    <path
       d="m 514.83487,536.87595 c 3.6,0 5.78667,-1.86667 7.14667,-4 l -2.66667,-1.36 c -0.85333,1.49333 -2.56,2.58666 -4.48,2.58666 -3.52,0 -6.13333,-2.69333 -6.13333,-6.42666 0,-3.73334 2.61333,-6.42667 6.13333,-6.42667 1.92,0 3.62667,1.12 4.48,2.58667 l 2.66667,-1.36 c -1.33334,-2.13334 -3.54667,-4 -7.14667,-4 -5.25333,0 -9.33333,3.73333 -9.33333,9.2 0,5.46666 4.08,9.2 9.33333,9.2 z"
       style="font-style:normal;font-variant:normal;font-weight:600;font-stretch:normal;font-size:26.66666603px;font-family:'Proxima Nova';-inkscape-font-specification:'Proxima Nova Semi-Bold';fill:#ffffff;fill-opacity:1"
       id="path1620" />
    <path
       d="m 530.5586,536.87595 c 4.8,0 6.88,-2.53334 6.88,-5.49334 0,-6.64 -10.34667,-4.58666 -10.34667,-7.89333 0,-1.33333 1.17334,-2.21333 3.01334,-2.21333 1.86666,0 3.76,0.64 5.14666,2.02666 l 1.78667,-2.32 c -1.65333,-1.6 -3.89333,-2.48 -6.66667,-2.48 -3.89333,0 -6.48,2.26667 -6.48,5.2 0,6.56 10.37334,4.24 10.37334,7.97334 0,1.17333 -1.01334,2.42666 -3.57334,2.42666 -2.48,0 -4.4,-1.14666 -5.62666,-2.45333 l -1.73334,2.4 c 1.57334,1.68 3.94667,2.82667 7.22667,2.82667 z"
       style="font-style:normal;font-variant:normal;font-weight:600;font-stretch:normal;font-size:26.66666603px;font-family:'Proxima Nova';-inkscape-font-specification:'Proxima Nova Semi-Bold';fill:#ffffff;fill-opacity:1"
       id="path1622" />
  </g>
  <path
     id="path90-3-4"
     d="m 40.787031,22.197926 c -2.023437,3.48829 -4.003906,6.85547 -6.484374,6.85547 -0.707031,0 -1.968749,-0.67187 -1.480469,-2.52734 l 2.335939,-2.35938 c 0.160155,-0.17968 0.28125,-0.38671 0.167967,-0.65234 l -1.476563,-3.125 c -0.08594,-0.18359 -0.249999,-0.17578 -0.42578,0 l -3.124999,3.125 c -0.16797,0.17188 -0.24219,0.40625 -0.132813,0.66016 l 0.98828,2.30859 c -0.382811,1.52734 -1.374998,2.64063 -2.58203,2.55469 -2.238281,-0.14844 -4.054687,-4.40235 -1.359376,-10.41016 0.453126,-1.01172 0.624999,-1.85937 0.578124,-2.59375 5.109377,-2.32422 11.683594,-4.82422 14.183594,-1.66406 1.503906,1.89453 0.800781,4.39844 -1.1875,7.82812 z m -21.695309,6.83985 c -1.203125,0.0859 -2.195314,-1.02735 -2.578126,-2.55469 l 0.984375,-2.30859 c 0.113282,-0.25391 0.03906,-0.48828 -0.128907,-0.66016 l -3.128905,-3.125 c -0.175782,-0.17578 -0.335937,-0.18359 -0.421875,0 l -1.480469,3.125 c -0.113282,0.26563 0.01172,0.47266 0.167968,0.65234 l 2.335939,2.35938 c 0.484374,1.85547 -0.769533,2.52734 -1.480469,2.52734 -2.476563,0 -4.4570312,-3.36718 -6.4843752,-6.85547 -1.98828,-3.42968 -2.687499,-5.93359 -1.1875,-7.82812 2.503906,-3.16016 9.0781242,-0.66016 14.1835942,1.66406 -0.04687,0.73438 0.124999,1.58203 0.578125,2.59375 2.699218,6.00781 0.878905,10.26172 -1.359375,10.41016 z m 8.355466,-15.39844 c -0.371093,0.12109 -0.757811,0.0117 -1.093748,-0.25781 -0.289062,-0.24219 -0.593751,-0.44531 -0.894531,-0.625 0.933594,-0.55469 1.562499,-1.57031 1.562499,-2.73438 0,-1.5937501 -1.167969,-2.9101501 -2.695312,-3.1484301 l 1.171876,-1.51172 c 0.117186,-0.14844 0.117186,-0.39453 0,-0.54297 l -1.453126,-1.875 c -0.05859,-0.0781 -0.132813,-0.10938 -0.214844,-0.10938 -0.07422,0 -0.152344,0.0312 -0.210937,0.10938 l -1.449219,1.875 c -0.117187,0.14844 -0.117187,0.39453 0,0.54297 l 1.167969,1.51172 c -1.527343,0.23828 -2.691406,1.55468 -2.691406,3.1484301 0,1.16407 0.624999,2.17969 1.5625,2.73438 -0.300781,0.17969 -0.60547,0.38281 -0.898438,0.625 -0.335937,0.26953 -0.718749,0.3789 -1.093749,0.25781 -6.628907,-2.11719 -12.4804692,-4.1601601 -15.8046872,-0.90234 -3.98046896,3.91015 0.652344,10.22656 2.11328,12.82422 1.019532,1.82421 1.746094,3.94921 1.746094,5.63671 H 39.392501 c 0,-1.6875 0.726561,-3.8125 1.746093,-5.63671 1.460937,-2.59766 6.097657,-8.91407 2.113281,-12.82422 -3.324219,-3.2578201 -9.175781,-1.21485 -15.804687,0.90234 z M 8.2753148,35.971366 H 39.392501 v -2.5625 H 8.2753148 Z"
     style="fill:#ffffff;fill-opacity:1;fill-rule:nonzero;stroke:none;stroke-width:1" />
  <path
     id="path90-0"
     d="m 79.697188,29.381526 c -0.25781,0 -0.32422,0.12891 -0.42187,0.64844 -0.12891,0.58594 -0.55078,1.53125 -1.10156,2.14453 -1.30469,1.49609 -3.0586,1.82422 -5.95313,1.82422 -4.35547,0 -10.238281,-3.83985 -10.238281,-11.57422 0,-3.15234 0.617187,-6.23828 2.992187,-8.41797 1.429684,-1.30078 3.285154,-2.01562 6.109374,-2.01562 2.98828,0 5.52734,0.8789 6.59766,2.01562 0.8164,0.84375 1.23828,1.98438 1.26953,2.98828 0,0.45703 0.0664,0.71485 0.32422,0.71485 0.29297,0 0.35547,-0.25782 0.39062,-0.7461 0.0664,-0.64844 0.0312,-2.4375 0.0977,-3.51172 0.0625,-1.13672 0.16406,-1.52734 0.16406,-1.78515 0,-0.19532 -0.13281,-0.35547 -0.48828,-0.39453 -0.97656,-0.0937 -2.01562,-0.38672 -3.25,-0.55079 -1.49609,-0.19531 -2.69922,-0.32031 -4.71484,-0.32031 -4.84375,0 -7.929688,1.29688 -10.269532,3.44141 -3.121094,2.85937 -3.808594,6.69531 -3.808594,8.90625 0,3.15234 0.847656,6.79297 4.035156,9.58984 2.957032,2.56641 6.69531,3.54297 11.14844,3.54297 2.08203,0 4.55078,-0.22656 5.84765,-0.75 0.55469,-0.22656 0.6875,-0.38672 0.84766,-0.9375 0.32813,-1.10937 0.71875,-3.9375 0.71875,-4.32812 0,-0.25782 -0.0664,-0.48438 -0.29687,-0.48438"
     style="fill:#ffffff;fill-opacity:1;fill-rule:nonzero;stroke:none;stroke-width:1" />
</svg>
